<?xml version="1.0" encoding="UTF-8"?> <!-- Generator: Adobe Illustrator 16.0.0, SVG Export Plug-In . SVG Version: 6.00 Build 0) --> <svg xmlns="http://www.w3.org/2000/svg" xmlns:xlink="http://www.w3.org/1999/xlink" id="Layer_1" x="0px" y="0px" width="963.874px" height="462.214px" viewBox="0 0 963.874 462.214" xml:space="preserve"> <g> <path fill="#D2D3D4" d="M227.36,227.376L157.097,11.129C180.984,3.368,202.245,0,227.36,0V227.376z"></path> <path fill="#0068A7" d="M227.36,227.376L7.732,286.224C-23.469,169.78,42.444,48.382,157.097,11.129L227.36,227.376z"></path> <path fill="#B83895" d="M227.36,227.376V0c125.576,0,227.377,101.799,227.377,227.376c0,125.576-101.801,227.377-227.377,227.377 c-105.484,0-192.327-66.637-219.628-168.529L227.36,227.376z"></path> </g> <g> <path fill="#010101" d="M545.834,70.771c2.279,0,4.056,0.443,5.332,1.329c1.276,0.887,1.914,2.211,1.914,3.976 c0,0.895-0.239,1.695-0.711,2.399c-0.475,0.704-1.164,1.234-2.068,1.589c1.163,0.249,2.032,0.78,2.614,1.595 c0.58,0.815,0.87,1.759,0.87,2.832c0,1.853-0.611,3.255-1.835,4.207c-1.223,0.953-2.955,1.429-5.197,1.429h-9.519V87.8l2.061-0.399 V73.51l-2.061-0.399v-2.339h2.061H545.834L545.834,70.771z M543.177,78.879h2.792c1.036,0,1.833-0.212,2.393-0.638 c0.559-0.424,0.837-1.046,0.837-1.86c0-0.895-0.279-1.555-0.844-1.98c-0.563-0.425-1.401-0.639-2.519-0.639h-2.659V78.879 L543.177,78.879z M543.177,81.565v5.584h3.576c1.028,0,1.812-0.224,2.352-0.672c0.543-0.447,0.812-1.109,0.812-1.987 c0-0.948-0.229-1.673-0.691-2.173c-0.461-0.501-1.188-0.752-2.18-0.752H543.177z"></path> <path fill="#010101" d="M555.619,87.8l1.86-0.399v-8.92l-2.06-0.399v-2.339h5.676l0.172,2.1c0.339-0.744,0.771-1.324,1.303-1.741 c0.532-0.417,1.148-0.624,1.85-0.624c0.203,0,0.418,0.015,0.644,0.045c0.227,0.032,0.416,0.069,0.564,0.113l-0.411,3.535 l-1.596-0.04c-0.565,0-1.036,0.111-1.408,0.333c-0.371,0.221-0.655,0.536-0.851,0.943v6.993l1.86,0.399v2.326h-7.604V87.8 L555.619,87.8z"></path> <path fill="#010101" d="M573.427,90.406c-2.075,0-3.731-0.665-4.973-1.994c-1.242-1.329-1.859-3.018-1.859-5.065v-0.531 c0-2.136,0.586-3.896,1.761-5.278c1.172-1.382,2.75-2.069,4.726-2.06c1.94,0,3.447,0.584,4.521,1.754 c1.072,1.17,1.607,2.752,1.607,4.746v2.113h-8.587l-0.026,0.08c0.07,0.948,0.388,1.728,0.949,2.34 c0.562,0.611,1.328,0.917,2.294,0.917c0.859,0,1.572-0.086,2.14-0.259c0.568-0.173,1.188-0.445,1.859-0.817l1.053,2.393 c-0.595,0.47-1.363,0.864-2.307,1.183C575.639,90.246,574.586,90.406,573.427,90.406z M573.079,78.468 c-0.717,0-1.284,0.275-1.701,0.824c-0.416,0.55-0.673,1.272-0.771,2.167l0.039,0.065h4.759v-0.346c0-0.824-0.191-1.481-0.577-1.974 C574.442,78.714,573.858,78.468,573.079,78.468z"></path> <path fill="#010101" d="M590.203,90.126c-0.105-0.239-0.2-0.485-0.279-0.737c-0.08-0.252-0.142-0.507-0.187-0.765 c-0.459,0.532-1.022,0.962-1.682,1.29c-0.661,0.328-1.415,0.492-2.267,0.492c-1.408,0-2.527-0.383-3.355-1.15 c-0.829-0.766-1.243-1.811-1.243-3.131c0-1.346,0.54-2.388,1.622-3.124c1.079-0.735,2.668-1.104,4.759-1.104h1.979v-1.409 c0-0.691-0.199-1.227-0.599-1.609c-0.398-0.381-0.985-0.571-1.768-0.571c-0.441,0-0.837,0.051-1.182,0.153 c-0.347,0.102-0.626,0.223-0.839,0.365l-0.252,1.542h-2.924l0.014-3.19c0.708-0.478,1.521-0.881,2.44-1.209 c0.915-0.329,1.914-0.492,2.996-0.492c1.782,0,3.228,0.437,4.34,1.309c1.113,0.873,1.669,2.116,1.669,3.728v5.942 c0,0.221,0.002,0.43,0.007,0.625c0.004,0.195,0.019,0.381,0.047,0.559l1.182,0.159v2.326h-4.479V90.126z M586.838,87.534 c0.586,0,1.117-0.126,1.596-0.379c0.479-0.252,0.852-0.57,1.117-0.95v-2.194h-1.981c-0.822,0-1.448,0.192-1.874,0.579 c-0.426,0.385-0.638,0.849-0.638,1.389c0,0.487,0.158,0.868,0.473,1.143C585.844,87.396,586.281,87.534,586.838,87.534z"></path> <path fill="#010101" d="M595.586,71.727v-2.339h5.941v12.017h0.864l2.234-3.15l-1.263-0.173v-2.339h7.07v2.339l-1.701,0.385 l-2.592,3.562l3.629,5.463l1.475,0.306v2.326h-6.647v-2.326l0.798-0.134l-2.206-3.562h-1.661v3.296l1.675,0.399v2.326h-7.418 v-2.326l1.873-0.399V72.126L595.586,71.727z"></path> <path fill="#010101" d="M621.715,88.371c-0.453,0.665-0.986,1.17-1.602,1.515c-0.617,0.346-1.317,0.519-2.108,0.519 c-1.771,0-3.146-0.647-4.126-1.94c-0.979-1.293-1.47-3.005-1.47-5.131v-0.279c0-2.269,0.493-4.1,1.478-5.49 c0.983-1.392,2.365-2.087,4.147-2.087c0.717,0,1.363,0.157,1.94,0.472c0.576,0.314,1.081,0.76,1.514,1.336v-5.158l-2.073-0.399 v-2.339h2.073h3.884v18.012l1.859,0.399v2.326h-5.224L621.715,88.371z M616.291,83.333c0,1.259,0.211,2.249,0.633,2.971 c0.42,0.723,1.11,1.083,2.068,1.083c0.565,0,1.058-0.115,1.474-0.345c0.417-0.23,0.759-0.562,1.024-0.997v-6.102 c-0.266-0.46-0.604-0.817-1.016-1.07c-0.412-0.252-0.899-0.379-1.456-0.379c-0.948,0-1.64,0.421-2.075,1.263 c-0.435,0.843-0.65,1.94-0.65,3.296v0.28H616.291z"></path> <path fill="#010101" d="M628.468,82.801c0-2.145,0.6-3.902,1.802-5.271c1.201-1.368,2.86-2.053,4.978-2.053 c2.128,0,3.791,0.682,4.992,2.047c1.202,1.365,1.802,3.124,1.802,5.278v0.279c0,2.163-0.6,3.924-1.802,5.284 c-1.201,1.361-2.855,2.042-4.966,2.042c-2.135,0-3.803-0.681-5.004-2.042c-1.2-1.36-1.802-3.122-1.802-5.284V82.801L628.468,82.801 z M632.35,83.081c0,1.312,0.229,2.364,0.691,3.158c0.462,0.793,1.206,1.189,2.232,1.189c1.003,0,1.736-0.399,2.201-1.196 c0.465-0.798,0.698-1.848,0.698-3.15v-0.279c0-1.276-0.234-2.318-0.705-3.124c-0.47-0.806-1.209-1.209-2.221-1.209 c-1.01,0-1.744,0.403-2.204,1.209c-0.462,0.806-0.691,1.847-0.691,3.124v0.279H632.35z"></path> <path fill="#010101" d="M664.229,78.082l-1.449,0.187l-3.006,11.857h-3.242l-2.672-8.561h-0.08l-2.672,8.561h-3.229l-3.019-11.857 l-1.449-0.187v-2.339h6.514v2.339l-1.528,0.292l1.357,6.581h0.079l2.686-9.212h2.605l2.712,9.239h0.079l1.344-6.594l-1.543-0.306 v-2.339h6.514V78.082L664.229,78.082z"></path> <path fill="#010101" d="M665.346,87.8l1.859-0.399v-8.92l-2.061-0.399v-2.339h5.677l0.172,2.06c0.48-0.735,1.069-1.307,1.769-1.715 c0.7-0.408,1.485-0.611,2.354-0.611c1.453,0,2.587,0.456,3.402,1.368c0.815,0.914,1.222,2.345,1.222,4.293V87.4l1.861,0.399v2.326 h-7.418v-2.326l1.664-0.399v-6.248c0-0.965-0.195-1.65-0.588-2.054c-0.39-0.403-0.978-0.605-1.768-0.605 c-0.514,0-0.973,0.104-1.381,0.312c-0.408,0.209-0.75,0.503-1.024,0.884v7.71l1.568,0.399v2.326h-7.31V87.8L665.346,87.8z"></path> <path fill="#010101" d="M689.511,82.801c0-2.145,0.602-3.902,1.802-5.271c1.201-1.368,2.859-2.053,4.978-2.053 c2.127,0,3.793,0.682,4.992,2.047c1.202,1.365,1.802,3.124,1.802,5.278v0.279c0,2.163-0.6,3.924-1.802,5.284 c-1.199,1.361-2.854,2.042-4.964,2.042c-2.135,0-3.805-0.681-5.004-2.042c-1.2-1.36-1.802-3.122-1.802-5.284v-0.28H689.511z M693.395,83.081c0,1.312,0.229,2.364,0.691,3.158c0.46,0.793,1.203,1.189,2.232,1.189c1.002,0,1.734-0.399,2.199-1.196 c0.467-0.798,0.699-1.848,0.699-3.15v-0.279c0-1.276-0.235-2.318-0.704-3.124c-0.472-0.806-1.21-1.209-2.221-1.209 c-1.01,0-1.743,0.403-2.206,1.209c-0.462,0.806-0.691,1.847-0.691,3.124V83.081L693.395,83.081z"></path> <path fill="#010101" d="M704.985,87.8l1.875-0.399v-8.933h-2.142v-2.725h2.142v-1.595c0-1.613,0.465-2.855,1.396-3.729 c0.93-0.873,2.238-1.31,3.921-1.31c0.327,0,0.662,0.025,1.004,0.074c0.341,0.049,0.715,0.118,1.123,0.206l-0.331,2.884 c-0.213-0.036-0.418-0.066-0.619-0.093c-0.2-0.026-0.432-0.04-0.697-0.04c-0.631,0-1.106,0.173-1.43,0.518 c-0.323,0.346-0.485,0.843-0.485,1.489v1.595h2.857v2.725h-2.857v8.933l1.874,0.399v2.326h-7.629V87.8H704.985z"></path> <path fill="#010101" d="M733.979,81.618h-6.555v5.531h6.248l0.172-2.313h2.951v5.291h-15.312V87.8l2.06-0.399V73.51l-2.06-0.399 v-2.339h2.06h13.227v5.304h-2.977l-0.173-2.313h-6.193v4.866h6.553V81.618L733.979,81.618z"></path> <path fill="#010101" d="M738.552,87.8l1.343-0.213l3.908-4.732l-3.776-4.546l-1.342-0.226v-2.339h6.473v2.246l-1.314,0.159 l2.179,2.765l2.142-2.765l-1.344-0.159v-2.246h6.501v2.339l-1.305,0.226l-3.694,4.546l3.895,4.732l1.355,0.213v2.326h-6.579v-2.233 l1.316-0.159l-2.234-2.898l-2.273,2.912l1.158,0.146v2.232h-6.409V87.8H738.552z"></path> <path fill="#010101" d="M754.503,78.082v-2.339h5.636l0.186,1.675c0.426-0.62,0.937-1.098,1.529-1.436 c0.594-0.337,1.284-0.505,2.074-0.505c1.782,0,3.164,0.695,4.148,2.087c0.982,1.391,1.475,3.221,1.475,5.49v0.279 c0,2.126-0.492,3.837-1.475,5.131c-0.984,1.294-2.357,1.94-4.121,1.94c-0.752,0-1.423-0.14-2.008-0.419 c-0.584-0.279-1.086-0.689-1.502-1.229v4.161l1.873,0.399v2.34h-7.617v-2.34l1.876-0.399V78.481L754.503,78.082z M765.671,83.054 c0-1.357-0.227-2.455-0.679-3.296c-0.451-0.842-1.144-1.263-2.073-1.263c-0.586,0-1.086,0.12-1.497,0.359 c-0.411,0.239-0.738,0.58-0.977,1.023v6.301c0.24,0.407,0.565,0.718,0.977,0.931c0.411,0.212,0.92,0.319,1.521,0.319 c0.939,0,1.63-0.367,2.068-1.104c0.439-0.734,0.659-1.732,0.659-2.991V83.054L765.671,83.054z"></path> <path fill="#010101" d="M778.167,90.406c-2.075,0-3.734-0.665-4.973-1.994c-1.242-1.329-1.861-3.018-1.861-5.065v-0.531 c0-2.136,0.587-3.896,1.762-5.278c1.173-1.382,2.748-2.069,4.727-2.06c1.94,0,3.445,0.584,4.519,1.754 c1.072,1.17,1.608,2.752,1.608,4.746v2.113h-8.588l-0.024,0.08c0.069,0.948,0.388,1.728,0.949,2.34 c0.562,0.611,1.326,0.917,2.292,0.917c0.861,0,1.574-0.086,2.14-0.259c0.567-0.173,1.189-0.445,1.861-0.817l1.051,2.393 c-0.593,0.47-1.361,0.864-2.307,1.183C780.377,90.246,779.326,90.406,778.167,90.406z M777.819,78.468 c-0.717,0-1.284,0.275-1.701,0.824c-0.416,0.55-0.674,1.272-0.772,2.167l0.041,0.065h4.759v-0.346c0-0.824-0.193-1.481-0.578-1.974 C779.181,78.714,778.599,78.468,777.819,78.468z"></path> <path fill="#010101" d="M785.571,87.8l1.858-0.399v-8.92l-2.059-0.399v-2.339h5.676l0.172,2.06 c0.479-0.735,1.068-1.307,1.768-1.715c0.701-0.408,1.486-0.611,2.355-0.611c1.453,0,2.587,0.456,3.402,1.368 c0.815,0.914,1.223,2.345,1.223,4.293V87.4l1.859,0.399v2.326h-7.415v-2.326l1.661-0.399v-6.248c0-0.965-0.195-1.65-0.586-2.054 c-0.391-0.403-0.979-0.605-1.77-0.605c-0.513,0-0.974,0.104-1.381,0.312c-0.408,0.209-0.749,0.503-1.023,0.884v7.71l1.569,0.399 v2.326h-7.311V87.8L785.571,87.8z"></path> <path fill="#010101" d="M814.802,80.688h-2.604l-0.413-1.794c-0.266-0.212-0.601-0.39-1.003-0.532 c-0.404-0.141-0.85-0.212-1.336-0.212c-0.683,0-1.224,0.154-1.622,0.459c-0.398,0.306-0.599,0.69-0.599,1.15 c0,0.434,0.19,0.795,0.571,1.083s1.145,0.542,2.286,0.765c1.782,0.354,3.102,0.875,3.961,1.562 c0.861,0.687,1.291,1.632,1.291,2.838c0,1.294-0.556,2.351-1.67,3.171c-1.111,0.819-2.575,1.229-4.392,1.229 c-1.108,0-2.125-0.162-3.051-0.486c-0.927-0.324-1.747-0.786-2.466-1.389l-0.039-3.23h2.71l0.532,1.875 c0.229,0.195,0.546,0.339,0.943,0.433c0.398,0.093,0.815,0.14,1.25,0.14c0.788,0,1.388-0.142,1.8-0.426 c0.413-0.283,0.618-0.669,0.618-1.156c0-0.425-0.207-0.793-0.623-1.104c-0.418-0.31-1.185-0.584-2.302-0.824 c-1.692-0.345-2.97-0.857-3.834-1.535c-0.863-0.678-1.297-1.602-1.297-2.771c0-1.206,0.496-2.245,1.489-3.118 c0.992-0.874,2.405-1.309,4.24-1.309c1.117,0,2.173,0.151,3.171,0.452c0.996,0.301,1.779,0.687,2.346,1.156L814.802,80.688z"></path> <path fill="#010101" d="M823.962,90.406c-2.075,0-3.732-0.665-4.973-1.994c-1.241-1.329-1.861-3.018-1.861-5.065v-0.531 c0-2.136,0.588-3.896,1.763-5.278c1.173-1.382,2.748-2.069,4.727-2.06c1.939,0,3.444,0.584,4.518,1.754 c1.072,1.17,1.609,2.752,1.609,4.746v2.113h-8.589l-0.024,0.08c0.07,0.948,0.388,1.728,0.949,2.34 c0.562,0.611,1.326,0.917,2.293,0.917c0.86,0,1.573-0.086,2.14-0.259c0.567-0.173,1.189-0.445,1.86-0.817l1.051,2.393 c-0.592,0.47-1.361,0.864-2.306,1.183C826.173,90.246,825.122,90.406,823.962,90.406z M823.615,78.468 c-0.718,0-1.284,0.275-1.701,0.824c-0.417,0.55-0.674,1.272-0.772,2.167l0.041,0.065h4.759v-0.346c0-0.824-0.193-1.481-0.579-1.974 C824.977,78.714,824.395,78.468,823.615,78.468z"></path> <path fill="#010101" d="M843.316,80.688h-2.605l-0.413-1.794c-0.266-0.212-0.6-0.39-1.002-0.532 c-0.404-0.141-0.851-0.212-1.337-0.212c-0.683,0-1.224,0.154-1.622,0.459c-0.398,0.306-0.598,0.69-0.598,1.15 c0,0.434,0.189,0.795,0.571,1.083c0.381,0.288,1.144,0.542,2.286,0.765c1.782,0.354,3.101,0.875,3.961,1.562 c0.86,0.687,1.29,1.632,1.29,2.838c0,1.294-0.556,2.351-1.669,3.171c-1.112,0.819-2.575,1.229-4.393,1.229 c-1.108,0-2.124-0.162-3.05-0.486c-0.927-0.324-1.748-0.786-2.467-1.389l-0.039-3.23h2.711l0.531,1.875 c0.229,0.195,0.547,0.339,0.943,0.433c0.398,0.093,0.815,0.14,1.25,0.14c0.789,0,1.389-0.142,1.801-0.426 c0.413-0.283,0.617-0.669,0.617-1.156c0-0.425-0.207-0.793-0.623-1.104c-0.417-0.31-1.184-0.584-2.301-0.824 c-1.693-0.345-2.97-0.857-3.834-1.535s-1.297-1.602-1.297-2.771c0-1.206,0.496-2.245,1.489-3.118 c0.991-0.874,2.405-1.309,4.239-1.309c1.117,0,2.174,0.151,3.171,0.452c0.997,0.301,1.78,0.687,2.346,1.156L843.316,80.688z"></path> </g> <g> <path fill="#B83895" d="M559.487,153.572v5.715l-11.295,27.095h-7.877l11.433-26.24H537.75v-6.57H559.487L559.487,153.572z"></path> <path fill="#B83895" d="M566.242,160.683h-4.457v-7.156h12.47v32.856h-8.013V160.683z"></path> </g> <g> <path fill="#B83895" d="M580.666,152.629c2.492,0,4.355,1.522,4.355,4.435s-1.863,4.435-4.355,4.435 c-2.494,0-4.384-1.522-4.384-4.435C576.284,154.152,578.174,152.629,580.666,152.629z M579.382,157.065 c0,1.233,0.472,1.784,1.257,1.784c0.789,0,1.286-0.551,1.286-1.784c0-1.26-0.497-1.812-1.286-1.812 C579.854,155.253,579.382,155.805,579.382,157.065z M589.773,152.917h4.329L584,171.394h-4.332L589.773,152.917z M593.131,162.812 c2.493,0,4.358,1.495,4.358,4.435c0,2.913-1.865,4.435-4.358,4.435s-4.354-1.522-4.354-4.435 C588.776,164.308,590.638,162.812,593.131,162.812z M591.847,167.247c0,1.233,0.472,1.784,1.259,1.784s1.286-0.552,1.286-1.784 c0-1.233-0.499-1.811-1.286-1.811S591.847,166.014,591.847,167.247z"></path> </g> <g> <path fill="#010101" d="M647.064,151.593c1.036,0.795,1.736,1.875,2.096,3.237h-2.188c-0.302-0.771-0.781-1.383-1.437-1.836 c-0.658-0.452-1.462-0.678-2.414-0.678c-0.76,0-1.439,0.187-2.036,0.56c-0.597,0.375-1.066,0.908-1.41,1.602 c-0.345,0.693-0.517,1.505-0.517,2.433c0,0.917,0.172,1.722,0.517,2.414c0.344,0.694,0.813,1.227,1.41,1.601s1.276,0.56,2.036,0.56 c0.952,0,1.756-0.226,2.414-0.677c0.657-0.453,1.135-1.058,1.437-1.819h2.188c-0.361,1.363-1.06,2.439-2.096,3.229 c-1.039,0.79-2.342,1.186-3.908,1.186c-1.207,0-2.273-0.274-3.201-0.823c-0.928-0.548-1.646-1.314-2.153-2.297 s-0.76-2.108-0.76-3.374s0.253-2.391,0.76-3.374c0.507-0.982,1.226-1.751,2.153-2.306s1.996-0.832,3.201-0.832 C644.723,150.398,646.025,150.796,647.064,151.593z"></path> <path fill="#010101" d="M653.284,149.91v13.385h-2.06V149.91H653.284z"></path> <path fill="#010101" d="M655.854,149.566c0.242-0.229,0.561-0.344,0.96-0.344c0.398,0,0.72,0.115,0.968,0.344 c0.248,0.229,0.37,0.519,0.37,0.869c0,0.349-0.124,0.633-0.37,0.849c-0.248,0.217-0.569,0.326-0.968,0.326 c-0.399,0-0.718-0.108-0.96-0.326c-0.241-0.216-0.361-0.5-0.361-0.849C655.492,150.084,655.612,149.795,655.854,149.566z M657.844,153.329v9.966h-2.062v-9.966H657.844z"></path> <path fill="#010101" d="M668.695,154.288c0.7,0.748,1.05,1.814,1.05,3.202v5.806h-2.061v-5.589c0-0.892-0.229-1.583-0.688-2.07 c-0.458-0.488-1.086-0.733-1.881-0.733c-0.82,0-1.479,0.262-1.972,0.787c-0.496,0.524-0.742,1.292-0.742,2.307v5.299h-2.062v-9.966 h2.062v2.189c0.266-0.748,0.71-1.326,1.339-1.737c0.626-0.409,1.351-0.614,2.17-0.614 C667.068,153.166,667.997,153.541,668.695,154.288z"></path> <path fill="#010101" d="M672.225,149.566c0.24-0.229,0.56-0.344,0.957-0.344c0.4,0,0.722,0.115,0.969,0.344 c0.247,0.229,0.371,0.519,0.371,0.869c0,0.349-0.124,0.633-0.371,0.849c-0.247,0.217-0.568,0.326-0.969,0.326 c-0.397,0-0.717-0.108-0.957-0.326c-0.243-0.216-0.363-0.5-0.363-0.849C671.861,150.084,671.983,149.795,672.225,149.566z M674.213,153.329v9.966h-2.061v-9.966H674.213z"></path> <path fill="#010101" d="M684.342,154.224c0.846,0.682,1.37,1.607,1.575,2.777h-2.188c-0.12-0.626-0.413-1.118-0.877-1.475 c-0.466-0.355-1.048-0.533-1.746-0.533c-0.796,0-1.459,0.28-1.988,0.841c-0.532,0.561-0.796,1.384-0.796,2.469 s0.264,1.912,0.796,2.478c0.529,0.568,1.192,0.85,1.988,0.85c0.7,0,1.282-0.181,1.746-0.542s0.757-0.856,0.877-1.484h2.188 c-0.205,1.17-0.729,2.099-1.575,2.786c-0.844,0.688-1.908,1.031-3.199,1.031c-0.967,0-1.819-0.205-2.56-0.614 c-0.741-0.409-1.324-1.001-1.743-1.773c-0.425-0.771-0.635-1.682-0.635-2.731c0-1.037,0.212-1.94,0.635-2.713 c0.419-0.772,1.002-1.362,1.743-1.772c0.74-0.41,1.593-0.615,2.56-0.615C682.434,153.203,683.498,153.543,684.342,154.224z"></path> <path fill="#010101" d="M694.219,153.872c0.639,0.446,1.093,1.037,1.356,1.773v-2.316h2.062v9.966h-2.062v-2.315 c-0.264,0.735-0.716,1.327-1.356,1.772c-0.64,0.446-1.412,0.67-2.315,0.67c-0.868,0-1.644-0.205-2.324-0.614 c-0.681-0.41-1.215-1.001-1.601-1.773c-0.387-0.771-0.578-1.682-0.578-2.731c0-1.037,0.191-1.94,0.578-2.714 c0.386-0.771,0.92-1.362,1.601-1.772c0.681-0.41,1.456-0.615,2.324-0.615C692.807,153.203,693.579,153.425,694.219,153.872z M690.339,155.888c-0.548,0.585-0.822,1.39-0.822,2.415c0,1.025,0.272,1.83,0.822,2.414c0.55,0.585,1.282,0.877,2.198,0.877 c0.579,0,1.098-0.135,1.556-0.406c0.459-0.271,0.819-0.654,1.086-1.148c0.265-0.495,0.396-1.074,0.396-1.737 c0-0.651-0.132-1.227-0.396-1.727c-0.267-0.5-0.627-0.887-1.086-1.158c-0.458-0.271-0.977-0.407-1.556-0.407 C691.619,155.011,690.887,155.303,690.339,155.888z"></path> <path fill="#010101" d="M702.179,149.91v13.385h-2.062V149.91H702.179z"></path> <path fill="#010101" d="M710.969,158.339v4.957h-2.062v-12.771h4.342c1.471,0,2.578,0.35,3.318,1.05 c0.743,0.7,1.113,1.659,1.113,2.876c0,1.207-0.381,2.156-1.141,2.85c-0.758,0.693-1.857,1.04-3.291,1.04L710.969,158.339 L710.969,158.339z M715.582,154.45c0-0.724-0.203-1.274-0.605-1.654c-0.404-0.38-1.053-0.57-1.945-0.57h-2.062v4.431h2.062 C714.73,156.657,715.582,155.922,715.582,154.45z"></path> <path fill="#010101" d="M722.998,153.736c0.626-0.379,1.351-0.569,2.17-0.569v2.243h-0.615c-0.905,0-1.631,0.22-2.179,0.661 c-0.55,0.44-0.825,1.167-0.825,2.179v5.047h-2.062v-9.966h2.062v1.954C721.888,154.631,722.37,154.116,722.998,153.736z"></path> <path fill="#010101" d="M733.869,153.817c0.772,0.41,1.374,1,1.809,1.772c0.436,0.772,0.65,1.676,0.65,2.713 c0,1.049-0.215,1.96-0.65,2.731c-0.435,0.772-1.036,1.363-1.809,1.773s-1.64,0.614-2.604,0.614s-1.831-0.205-2.596-0.614 c-0.766-0.41-1.37-1.004-1.81-1.783c-0.439-0.778-0.659-1.685-0.659-2.722c0-1.037,0.218-1.94,0.659-2.713 c0.439-0.772,1.044-1.362,1.81-1.772c0.765-0.41,1.631-0.615,2.596-0.615C732.229,153.203,733.097,153.408,733.869,153.817z M729.799,155.355c-0.446,0.242-0.806,0.612-1.077,1.112c-0.271,0.5-0.405,1.112-0.405,1.836c0,0.736,0.135,1.351,0.405,1.845 c0.271,0.494,0.631,0.863,1.077,1.104c0.445,0.241,0.936,0.361,1.466,0.361s1.018-0.12,1.465-0.361 c0.446-0.241,0.806-0.609,1.077-1.104c0.271-0.495,0.405-1.109,0.405-1.845c0-0.724-0.135-1.336-0.405-1.836 c-0.271-0.5-0.631-0.871-1.077-1.112c-0.447-0.241-0.935-0.361-1.465-0.361S730.244,155.114,729.799,155.355z"></path> <path fill="#010101" d="M744.631,153.872c0.639,0.446,1.093,1.037,1.356,1.773v-2.316h2.062v10.076c0,0.928-0.188,1.751-0.57,2.47 c-0.379,0.718-0.925,1.281-1.636,1.691c-0.711,0.409-1.556,0.615-2.533,0.615c-1.396,0-2.529-0.332-3.391-0.995 c-0.863-0.663-1.402-1.562-1.621-2.696h2.047c0.168,0.592,0.493,1.052,0.975,1.384c0.481,0.331,1.098,0.498,1.845,0.498 c0.821,0,1.495-0.253,2.026-0.759c0.53-0.507,0.796-1.243,0.796-2.207v-2.424c-0.266,0.736-0.718,1.327-1.356,1.773 c-0.639,0.446-1.412,0.669-2.317,0.669c-0.868,0-1.642-0.205-2.324-0.614c-0.679-0.41-1.212-1.001-1.599-1.773 c-0.387-0.771-0.578-1.682-0.578-2.731c0-1.037,0.191-1.941,0.578-2.713c0.387-0.772,0.92-1.362,1.599-1.772 c0.683-0.41,1.456-0.615,2.324-0.615C743.221,153.203,743.992,153.425,744.631,153.872z M740.751,155.888 c-0.55,0.585-0.823,1.39-0.823,2.415c0,1.025,0.273,1.83,0.823,2.414c0.55,0.585,1.282,0.877,2.199,0.877 c0.578,0,1.095-0.135,1.553-0.406c0.459-0.271,0.822-0.654,1.088-1.148c0.264-0.495,0.396-1.074,0.396-1.737 c0-0.651-0.133-1.227-0.396-1.727c-0.266-0.5-0.629-0.887-1.088-1.158c-0.458-0.271-0.975-0.407-1.553-0.407 C742.033,155.011,741.301,155.303,740.751,155.888z"></path> <path fill="#010101" d="M754.037,153.736c0.627-0.379,1.352-0.569,2.17-0.569v2.243h-0.614c-0.905,0-1.631,0.22-2.179,0.661 c-0.55,0.44-0.825,1.167-0.825,2.179v5.047h-2.062v-9.966h2.062v1.954C752.928,154.631,753.41,154.116,754.037,153.736z"></path> <path fill="#010101" d="M764.058,153.872c0.638,0.446,1.092,1.037,1.355,1.773v-2.316h2.062v9.966h-2.062v-2.315 c-0.264,0.735-0.716,1.327-1.355,1.772c-0.641,0.446-1.41,0.67-2.315,0.67c-0.868,0-1.644-0.205-2.324-0.614 c-0.682-0.41-1.216-1.001-1.602-1.773c-0.386-0.771-0.578-1.682-0.578-2.731c0-1.037,0.192-1.94,0.578-2.714 c0.386-0.771,0.92-1.362,1.602-1.772c0.681-0.41,1.456-0.615,2.324-0.615C762.647,153.203,763.417,153.425,764.058,153.872z M760.178,155.888c-0.55,0.585-0.823,1.39-0.823,2.415c0,1.025,0.273,1.83,0.823,2.414c0.549,0.585,1.282,0.877,2.197,0.877 c0.579,0,1.097-0.135,1.555-0.406c0.459-0.271,0.82-0.654,1.085-1.148c0.267-0.495,0.398-1.074,0.398-1.737 c0-0.651-0.132-1.227-0.398-1.727c-0.265-0.5-0.626-0.887-1.085-1.158c-0.458-0.271-0.976-0.407-1.555-0.407 C761.46,155.011,760.727,155.303,760.178,155.888z"></path> <path fill="#010101" d="M785.248,154.288c0.705,0.748,1.058,1.814,1.058,3.202v5.806h-2.062v-5.589c0-0.868-0.216-1.54-0.649-2.017 c-0.436-0.477-1.031-0.714-1.792-0.714c-0.808,0-1.449,0.256-1.925,0.769c-0.479,0.513-0.716,1.264-0.716,2.252v5.299h-2.062 v-5.589c0-0.868-0.216-1.54-0.649-2.017c-0.435-0.477-1.031-0.714-1.792-0.714c-0.808,0-1.449,0.256-1.925,0.769 c-0.479,0.513-0.715,1.264-0.715,2.252v5.299h-2.062v-9.966h2.062v2.08c0.253-0.723,0.675-1.278,1.266-1.664 c0.592-0.386,1.285-0.579,2.081-0.579c0.831,0,1.552,0.205,2.162,0.614c0.607,0.411,1.051,1,1.33,1.773 c0.287-0.747,0.752-1.333,1.393-1.755c0.639-0.421,1.362-0.633,2.17-0.633C783.599,153.166,784.543,153.541,785.248,154.288z"></path> <path fill="#010101" d="M794.799,154.098c0.707,0.597,1.135,1.396,1.291,2.396h-1.952c-0.084-0.542-0.315-0.979-0.696-1.312 c-0.379-0.332-0.884-0.498-1.512-0.498c-0.518,0-0.919,0.125-1.203,0.371c-0.283,0.247-0.424,0.581-0.424,1.003 c0,0.313,0.103,0.566,0.308,0.76c0.204,0.193,0.461,0.344,0.769,0.452c0.307,0.108,0.745,0.229,1.312,0.361 c0.747,0.169,1.354,0.344,1.817,0.525c0.465,0.18,0.864,0.467,1.194,0.859c0.331,0.392,0.498,0.925,0.498,1.601 c0,0.832-0.315,1.508-0.95,2.026c-0.632,0.519-1.486,0.778-2.558,0.778c-1.243,0-2.247-0.289-3.014-0.868 c-0.765-0.578-1.226-1.387-1.382-2.424h2.008c0.059,0.543,0.3,0.983,0.722,1.32c0.423,0.338,0.978,0.506,1.666,0.506 c0.493,0,0.884-0.13,1.167-0.388c0.282-0.26,0.424-0.589,0.424-0.987c0-0.349-0.107-0.626-0.324-0.831 c-0.218-0.206-0.489-0.364-0.814-0.479c-0.325-0.115-0.772-0.232-1.34-0.353c-0.723-0.168-1.312-0.337-1.763-0.506 c-0.452-0.169-0.839-0.443-1.158-0.823c-0.32-0.38-0.479-0.895-0.479-1.546c0-0.843,0.316-1.529,0.949-2.053 c0.632-0.524,1.511-0.786,2.631-0.786C793.155,153.203,794.093,153.501,794.799,154.098z"></path> <path fill="#010101" d="M799.854,163.603c0,0.675-0.175,1.227-0.524,1.655c-0.351,0.428-0.881,0.642-1.593,0.642v-0.833 c0.303,0,0.524-0.079,0.67-0.234c0.146-0.157,0.216-0.422,0.216-0.797v-0.162h-1.049v-1.991h1.955 C799.746,162.439,799.854,163.013,799.854,163.603z"></path> <path fill="#010101" d="M819.227,150.724v12.571h-2.08v-9.424l-3.637,9.424h-1.809l-3.655-9.424v9.424h-2.062v-12.571h2.498 l4.158,10.039l4.089-10.039H819.227z"></path> <path fill="#010101" d="M830.895,158.719h-7.671c0.035,1.025,0.321,1.784,0.851,2.279c0.53,0.495,1.188,0.741,1.974,0.741 c0.686,0,1.268-0.175,1.743-0.524c0.477-0.349,0.769-0.814,0.877-1.392h2.208c-0.135,0.699-0.411,1.32-0.832,1.862 c-0.424,0.542-0.972,0.968-1.647,1.275c-0.674,0.308-1.428,0.461-2.26,0.461c-0.966,0-1.818-0.205-2.561-0.614 c-0.74-0.409-1.322-1.001-1.743-1.773c-0.425-0.771-0.634-1.682-0.634-2.731c0-1.037,0.211-1.94,0.634-2.714 c0.421-0.771,1.003-1.362,1.743-1.772c0.742-0.41,1.595-0.615,2.561-0.615c0.978,0,1.828,0.202,2.559,0.606 c0.729,0.404,1.292,0.958,1.684,1.664c0.391,0.706,0.587,1.493,0.587,2.36C830.966,158.17,830.942,158.466,830.895,158.719z M828.551,156.141c-0.247-0.44-0.586-0.766-1.013-0.977c-0.428-0.211-0.896-0.316-1.401-0.316c-0.809,0-1.483,0.248-2.025,0.742 c-0.543,0.495-0.838,1.224-0.888,2.188h5.662C828.91,157.127,828.8,156.582,828.551,156.141z"></path> <path fill="#010101" d="M839.269,153.872c0.64,0.446,1.085,1.037,1.338,1.773v-5.734h2.081v13.385h-2.081v-2.316 c-0.253,0.736-0.698,1.327-1.338,1.773c-0.64,0.446-1.41,0.669-2.315,0.669c-0.868,0-1.643-0.205-2.324-0.614 c-0.681-0.41-1.215-1.001-1.602-1.773c-0.386-0.771-0.577-1.682-0.577-2.731c0-1.037,0.191-1.941,0.577-2.713 c0.387-0.772,0.921-1.362,1.602-1.772c0.682-0.41,1.456-0.615,2.324-0.615C837.856,153.203,838.629,153.425,839.269,153.872z M835.389,155.888c-0.55,0.585-0.823,1.39-0.823,2.415c0,1.025,0.273,1.83,0.823,2.414c0.55,0.585,1.282,0.877,2.199,0.877 c0.577,0,1.097-0.135,1.556-0.406c0.458-0.271,0.819-0.654,1.084-1.148c0.265-0.495,0.397-1.074,0.397-1.737 c0-0.651-0.133-1.227-0.397-1.727c-0.265-0.5-0.626-0.887-1.084-1.158c-0.459-0.271-0.979-0.407-1.556-0.407 C836.669,155.011,835.936,155.303,835.389,155.888z"></path> <path fill="#010101" d="M845.237,149.566c0.241-0.229,0.56-0.344,0.958-0.344c0.399,0,0.723,0.115,0.968,0.344 c0.249,0.229,0.372,0.519,0.372,0.869c0,0.349-0.125,0.633-0.372,0.849c-0.245,0.217-0.568,0.326-0.968,0.326 c-0.398,0-0.717-0.108-0.958-0.326c-0.242-0.216-0.361-0.5-0.361-0.849C844.876,150.084,844.995,149.795,845.237,149.566z M847.227,153.329v9.966h-2.061v-9.966H847.227z"></path> <path fill="#010101" d="M857.356,154.224c0.845,0.682,1.369,1.607,1.573,2.777h-2.188c-0.121-0.626-0.414-1.118-0.877-1.475 c-0.465-0.355-1.047-0.533-1.746-0.533c-0.796,0-1.459,0.28-1.988,0.841c-0.531,0.561-0.796,1.384-0.796,2.469 s0.265,1.912,0.796,2.478c0.529,0.568,1.192,0.85,1.988,0.85c0.701,0,1.283-0.181,1.746-0.542s0.756-0.856,0.877-1.484h2.188 c-0.204,1.17-0.729,2.099-1.573,2.786c-0.844,0.688-1.911,1.031-3.199,1.031c-0.967,0-1.819-0.205-2.56-0.614 c-0.742-0.409-1.324-1.001-1.747-1.773c-0.421-0.771-0.632-1.682-0.632-2.731c0-1.037,0.211-1.94,0.632-2.713 c0.423-0.772,1.005-1.362,1.747-1.772c0.74-0.41,1.593-0.615,2.56-0.615C855.445,153.203,856.513,153.543,857.356,154.224z"></path> <path fill="#010101" d="M867.233,153.872c0.637,0.446,1.093,1.037,1.355,1.773v-2.316h2.062v9.966h-2.062v-2.315 c-0.263,0.735-0.717,1.327-1.355,1.772c-0.64,0.446-1.41,0.67-2.315,0.67c-0.868,0-1.644-0.205-2.324-0.614 c-0.682-0.41-1.215-1.001-1.602-1.773c-0.386-0.771-0.578-1.682-0.578-2.731c0-1.037,0.192-1.94,0.578-2.714 c0.387-0.771,0.92-1.362,1.602-1.772c0.681-0.41,1.456-0.615,2.324-0.615C865.823,153.203,866.594,153.425,867.233,153.872z M863.354,155.888c-0.551,0.585-0.823,1.39-0.823,2.415c0,1.025,0.272,1.83,0.823,2.414c0.549,0.585,1.282,0.877,2.198,0.877 c0.578,0,1.096-0.135,1.554-0.406s0.82-0.654,1.087-1.148c0.264-0.495,0.396-1.074,0.396-1.737c0-0.651-0.133-1.227-0.396-1.727 c-0.267-0.5-0.629-0.887-1.087-1.158s-0.976-0.407-1.554-0.407C864.636,155.011,863.902,155.303,863.354,155.888z"></path> <path fill="#010101" d="M875.191,149.91v13.385h-2.061V149.91H875.191z"></path> <path fill="#010101" d="M889.86,161.641c-0.302,0.536-0.76,0.968-1.374,1.293c-0.616,0.326-1.369,0.488-2.262,0.488 c-0.868,0-1.646-0.154-2.333-0.461c-0.688-0.307-1.236-0.738-1.646-1.293c-0.409-0.555-0.645-1.194-0.706-1.917h2.209 c0.059,0.555,0.296,1.031,0.712,1.429c0.415,0.398,0.974,0.597,1.673,0.597c0.627,0,1.112-0.169,1.457-0.506 c0.343-0.337,0.516-0.772,0.516-1.303c0-0.458-0.127-0.835-0.381-1.13c-0.251-0.295-0.566-0.528-0.939-0.696 c-0.374-0.169-0.886-0.363-1.538-0.579c-0.796-0.253-1.444-0.507-1.943-0.76c-0.501-0.253-0.926-0.621-1.275-1.104 c-0.351-0.482-0.524-1.115-0.524-1.899c0-0.687,0.169-1.291,0.506-1.808c0.338-0.519,0.821-0.919,1.446-1.203 c0.627-0.284,1.352-0.425,2.172-0.425c1.302,0,2.335,0.313,3.103,0.94c0.764,0.627,1.202,1.447,1.312,2.46h-2.227 c-0.084-0.482-0.311-0.896-0.677-1.239c-0.368-0.344-0.873-0.516-1.511-0.516c-0.58,0-1.044,0.148-1.394,0.443 c-0.352,0.295-0.525,0.72-0.525,1.274c0,0.435,0.121,0.793,0.363,1.077c0.24,0.283,0.544,0.507,0.912,0.669 c0.367,0.163,0.872,0.353,1.512,0.57c0.808,0.253,1.469,0.51,1.98,0.769c0.513,0.26,0.947,0.636,1.303,1.13 c0.355,0.495,0.534,1.146,0.534,1.954C890.313,160.522,890.162,161.104,889.86,161.641z"></path> <path fill="#010101" d="M901.563,158.719h-7.67c0.035,1.025,0.321,1.784,0.851,2.279c0.531,0.495,1.188,0.741,1.973,0.741 c0.687,0,1.269-0.175,1.744-0.524c0.477-0.349,0.77-0.814,0.877-1.392h2.208c-0.135,0.699-0.411,1.32-0.831,1.862 c-0.425,0.542-0.972,0.968-1.648,1.275c-0.674,0.308-1.428,0.461-2.26,0.461c-0.966,0-1.817-0.205-2.56-0.614 c-0.741-0.409-1.323-1.001-1.744-1.773c-0.424-0.771-0.632-1.682-0.632-2.731c0-1.037,0.21-1.94,0.632-2.714 c0.421-0.771,1.003-1.362,1.744-1.772c0.742-0.41,1.594-0.615,2.56-0.615c0.978,0,1.829,0.202,2.558,0.606 c0.729,0.404,1.293,0.958,1.684,1.664c0.392,0.706,0.588,1.493,0.588,2.36C901.636,158.17,901.612,158.466,901.563,158.719z M899.221,156.141c-0.247-0.44-0.585-0.766-1.013-0.977c-0.428-0.211-0.896-0.316-1.401-0.316c-0.809,0-1.483,0.248-2.025,0.742 c-0.543,0.495-0.838,1.224-0.888,2.188h5.662C899.58,157.127,899.47,156.582,899.221,156.141z"></path> <path fill="#010101" d="M907.135,153.736c0.627-0.379,1.351-0.569,2.172-0.569v2.243h-0.616c-0.903,0-1.631,0.22-2.18,0.661 c-0.55,0.44-0.824,1.167-0.824,2.179v5.047h-2.06v-9.966h2.06v1.954C906.026,154.631,906.507,154.116,907.135,153.736z"></path> <path fill="#010101" d="M914.932,161.161l2.821-7.833h2.206l-3.8,9.966h-2.497l-3.797-9.966h2.205L914.932,161.161z"></path> <path fill="#010101" d="M921.55,149.566c0.243-0.229,0.562-0.344,0.96-0.344c0.399,0,0.721,0.115,0.968,0.344 c0.249,0.229,0.37,0.519,0.37,0.869c0,0.349-0.123,0.633-0.37,0.849c-0.247,0.217-0.568,0.326-0.968,0.326 c-0.398,0-0.717-0.108-0.96-0.326c-0.24-0.216-0.36-0.5-0.36-0.849C921.189,150.084,921.31,149.795,921.55,149.566z M923.541,153.329v9.966h-2.061v-9.966H923.541z"></path> <path fill="#010101" d="M933.671,154.224c0.845,0.682,1.369,1.607,1.573,2.777h-2.189c-0.121-0.626-0.412-1.118-0.877-1.475 c-0.463-0.355-1.045-0.533-1.744-0.533c-0.796,0-1.459,0.28-1.99,0.841c-0.53,0.561-0.796,1.384-0.796,2.469 s0.266,1.912,0.796,2.478c0.531,0.568,1.194,0.85,1.99,0.85c0.699,0,1.281-0.181,1.744-0.542c0.465-0.362,0.756-0.856,0.877-1.484 h2.189c-0.204,1.17-0.729,2.099-1.573,2.786c-0.845,0.688-1.911,1.031-3.201,1.031c-0.965,0-1.817-0.205-2.56-0.614 c-0.74-0.409-1.324-1.001-1.745-1.773c-0.423-0.771-0.632-1.682-0.632-2.731c0-1.037,0.21-1.94,0.632-2.713 c0.423-0.772,1.005-1.362,1.745-1.772c0.742-0.41,1.595-0.615,2.56-0.615C931.76,153.203,932.826,153.543,933.671,154.224z"></path> <path fill="#010101" d="M946.423,158.719h-7.67c0.036,1.025,0.319,1.784,0.852,2.279c0.529,0.495,1.188,0.741,1.972,0.741 c0.688,0,1.269-0.175,1.745-0.524c0.476-0.349,0.769-0.814,0.877-1.392h2.207c-0.135,0.699-0.411,1.32-0.832,1.862 c-0.424,0.542-0.972,0.968-1.646,1.275c-0.676,0.308-1.429,0.461-2.26,0.461c-0.967,0-1.82-0.205-2.561-0.614 c-0.742-0.409-1.324-1.001-1.744-1.773c-0.424-0.771-0.635-1.682-0.635-2.731c0-1.037,0.213-1.94,0.635-2.714 c0.42-0.771,1.002-1.362,1.744-1.772c0.74-0.41,1.594-0.615,2.561-0.615c0.976,0,1.828,0.202,2.558,0.606 c0.729,0.404,1.289,0.958,1.684,1.664c0.392,0.706,0.588,1.493,0.588,2.36C946.497,158.17,946.472,158.466,946.423,158.719z M944.081,156.141c-0.246-0.44-0.584-0.766-1.014-0.977c-0.427-0.211-0.896-0.316-1.4-0.316c-0.809,0-1.484,0.248-2.027,0.742 c-0.542,0.495-0.837,1.224-0.885,2.188h5.662C944.438,157.127,944.326,156.582,944.081,156.141z"></path> <path fill="#010101" d="M954.572,154.098c0.705,0.597,1.137,1.396,1.293,2.396h-1.953c-0.086-0.542-0.317-0.979-0.696-1.312 c-0.381-0.332-0.884-0.498-1.512-0.498c-0.519,0-0.919,0.125-1.203,0.371c-0.284,0.247-0.425,0.581-0.425,1.003 c0,0.313,0.102,0.566,0.307,0.76c0.206,0.193,0.463,0.344,0.771,0.452c0.307,0.108,0.743,0.229,1.312,0.361 c0.746,0.169,1.353,0.344,1.817,0.525c0.464,0.18,0.863,0.467,1.193,0.859c0.333,0.392,0.497,0.925,0.497,1.601 c0,0.832-0.316,1.508-0.948,2.026s-1.485,0.778-2.56,0.778c-1.243,0-2.245-0.289-3.012-0.868c-0.767-0.578-1.226-1.387-1.384-2.424 h2.01c0.059,0.543,0.3,0.983,0.722,1.32c0.423,0.338,0.978,0.506,1.666,0.506c0.493,0,0.882-0.13,1.165-0.388 c0.284-0.26,0.426-0.589,0.426-0.987c0-0.349-0.107-0.626-0.324-0.831c-0.218-0.206-0.489-0.364-0.814-0.479 c-0.327-0.115-0.774-0.232-1.34-0.353c-0.723-0.168-1.312-0.337-1.763-0.506c-0.452-0.169-0.839-0.443-1.159-0.823 c-0.319-0.38-0.479-0.895-0.479-1.546c0-0.843,0.317-1.529,0.95-2.053c0.632-0.524,1.511-0.786,2.631-0.786 C952.93,153.203,953.865,153.501,954.572,154.098z"></path> <path fill="#010101" d="M959.629,163.603c0,0.675-0.176,1.227-0.524,1.655c-0.351,0.428-0.881,0.642-1.593,0.642v-0.833 c0.301,0,0.524-0.079,0.67-0.234c0.145-0.157,0.216-0.422,0.216-0.797v-0.162h-1.049v-1.991h1.953 C959.519,162.439,959.629,163.013,959.629,163.603z"></path> </g> <g> <path fill="#010101" d="M643.771,181.004c0.637,0.446,1.092,1.038,1.356,1.773v-2.315h2.062v9.966h-2.062v-2.316 c-0.265,0.735-0.718,1.327-1.356,1.773c-0.64,0.446-1.41,0.669-2.316,0.669c-0.867,0-1.644-0.205-2.324-0.614 c-0.681-0.41-1.214-1.001-1.6-1.773c-0.388-0.772-0.579-1.682-0.579-2.731c0-1.037,0.191-1.94,0.579-2.714 c0.386-0.771,0.919-1.362,1.6-1.772c0.681-0.41,1.457-0.615,2.324-0.615C642.361,180.335,643.132,180.558,643.771,181.004z M639.891,183.021c-0.55,0.585-0.822,1.39-0.822,2.415c0,1.025,0.272,1.83,0.822,2.414c0.55,0.585,1.283,0.877,2.199,0.877 c0.578,0,1.096-0.135,1.554-0.406s0.821-0.654,1.087-1.149c0.264-0.495,0.397-1.073,0.397-1.736c0-0.651-0.134-1.227-0.397-1.728 c-0.266-0.5-0.629-0.886-1.087-1.158c-0.458-0.272-0.976-0.407-1.554-0.407C641.174,182.143,640.44,182.436,639.891,183.021z"></path> <path fill="#010101" d="M658.025,181.421c0.698,0.748,1.049,1.814,1.049,3.202v5.806h-2.062v-5.589c0-0.892-0.229-1.583-0.688-2.07 c-0.458-0.488-1.085-0.733-1.881-0.733c-0.82,0-1.477,0.262-1.973,0.787c-0.493,0.524-0.742,1.292-0.742,2.307v5.299h-2.06v-9.966 h2.06v2.189c0.267-0.748,0.712-1.326,1.339-1.737c0.629-0.409,1.351-0.614,2.171-0.614 C656.396,180.299,657.325,180.673,658.025,181.421z"></path> <path fill="#010101" d="M667.792,181.004c0.639,0.446,1.086,1.038,1.339,1.773v-5.733h2.08v13.385h-2.08v-2.316 c-0.253,0.735-0.7,1.327-1.339,1.773s-1.41,0.669-2.315,0.669c-0.867,0-1.644-0.205-2.324-0.614s-1.214-1-1.601-1.773 c-0.387-0.772-0.579-1.682-0.579-2.732c0-1.037,0.192-1.94,0.579-2.713c0.387-0.772,0.92-1.362,1.601-1.773 c0.681-0.41,1.457-0.615,2.324-0.615C666.382,180.335,667.153,180.558,667.792,181.004z M663.912,183.021 c-0.549,0.585-0.822,1.39-0.822,2.415c0,1.025,0.273,1.83,0.822,2.414c0.55,0.585,1.282,0.877,2.199,0.877 c0.578,0,1.096-0.135,1.553-0.406c0.459-0.271,0.821-0.654,1.088-1.149c0.264-0.495,0.396-1.073,0.396-1.736 c0-0.651-0.133-1.227-0.396-1.728c-0.267-0.5-0.629-0.886-1.088-1.158c-0.457-0.272-0.975-0.407-1.553-0.407 C665.194,182.143,664.462,182.436,663.912,183.021z"></path> <path fill="#010101" d="M679.984,185.472v4.957h-2.062v-12.771h4.342c1.472,0,2.578,0.349,3.318,1.05 c0.742,0.7,1.113,1.659,1.113,2.875c0,1.207-0.38,2.156-1.14,2.85c-0.761,0.693-1.857,1.04-3.292,1.04L679.984,185.472 L679.984,185.472z M684.598,181.583c0-0.724-0.203-1.274-0.607-1.654c-0.402-0.38-1.051-0.571-1.943-0.571h-2.062v4.432h2.062 C683.746,183.79,684.598,183.055,684.598,181.583z"></path> <path fill="#010101" d="M692.013,180.869c0.628-0.38,1.352-0.569,2.171-0.569v2.242h-0.617c-0.903,0-1.629,0.22-2.179,0.661 c-0.548,0.44-0.822,1.167-0.822,2.179v5.047h-2.062v-9.966h2.062v1.954C690.902,181.764,691.385,181.249,692.013,180.869z"></path> <path fill="#010101" d="M702.883,180.95c0.773,0.41,1.375,1,1.81,1.772s0.649,1.676,0.649,2.713c0,1.049-0.215,1.959-0.649,2.731 c-0.435,0.771-1.036,1.363-1.81,1.773c-0.772,0.41-1.641,0.614-2.604,0.614s-1.83-0.205-2.596-0.614 c-0.766-0.41-1.367-1.004-1.81-1.783c-0.439-0.778-0.659-1.685-0.659-2.722c0-1.037,0.22-1.94,0.659-2.713 c0.442-0.772,1.044-1.362,1.81-1.772s1.632-0.615,2.596-0.615C701.242,180.335,702.11,180.541,702.883,180.95z M698.814,182.487 c-0.447,0.242-0.805,0.613-1.076,1.112c-0.271,0.5-0.408,1.112-0.408,1.836c0,0.736,0.137,1.351,0.408,1.844 c0.271,0.495,0.629,0.864,1.076,1.104c0.445,0.241,0.934,0.362,1.465,0.362s1.02-0.121,1.465-0.362 c0.445-0.24,0.805-0.608,1.078-1.104c0.271-0.494,0.405-1.108,0.405-1.844c0-0.725-0.135-1.336-0.405-1.836 c-0.273-0.5-0.633-0.871-1.078-1.112c-0.445-0.241-0.934-0.361-1.465-0.361S699.26,182.247,698.814,182.487z"></path> <path fill="#010101" d="M711.421,188.294l2.822-7.833h2.206l-3.799,9.966h-2.496l-3.799-9.966h2.206L711.421,188.294z"></path> <path fill="#010101" d="M718.041,176.698c0.242-0.229,0.561-0.344,0.959-0.344s0.721,0.115,0.969,0.344 c0.246,0.23,0.37,0.519,0.37,0.869s-0.124,0.633-0.37,0.85c-0.248,0.217-0.57,0.326-0.969,0.326s-0.717-0.108-0.959-0.326 c-0.242-0.217-0.363-0.5-0.363-0.85S717.799,176.928,718.041,176.698z M720.031,180.461v9.966h-2.062v-9.966H720.031z"></path> <path fill="#010101" d="M730.886,181.421c0.698,0.748,1.049,1.814,1.049,3.202v5.806h-2.062v-5.589c0-0.892-0.229-1.583-0.688-2.07 c-0.458-0.488-1.086-0.733-1.882-0.733c-0.82,0-1.476,0.262-1.972,0.787c-0.494,0.524-0.742,1.292-0.742,2.307v5.299h-2.061v-9.966 h2.061v2.189c0.267-0.748,0.711-1.326,1.339-1.737c0.628-0.409,1.351-0.614,2.17-0.614 C729.256,180.299,730.185,180.673,730.886,181.421z"></path> <path fill="#010101" d="M741.973,181.357c0.845,0.682,1.369,1.607,1.574,2.777h-2.19c-0.12-0.626-0.413-1.118-0.877-1.475 c-0.464-0.355-1.046-0.533-1.744-0.533c-0.796,0-1.459,0.28-1.99,0.841c-0.53,0.561-0.796,1.384-0.796,2.469 c0,1.085,0.266,1.912,0.796,2.478c0.531,0.567,1.194,0.85,1.99,0.85c0.698,0,1.28-0.18,1.744-0.542s0.757-0.856,0.877-1.484h2.19 c-0.205,1.169-0.729,2.099-1.574,2.786c-0.845,0.688-1.911,1.03-3.201,1.03c-0.967,0-1.818-0.205-2.561-0.614 c-0.741-0.409-1.323-1.001-1.743-1.773c-0.425-0.772-0.633-1.682-0.633-2.731c0-1.037,0.21-1.94,0.633-2.713 c0.42-0.772,1.004-1.362,1.743-1.772c0.742-0.41,1.594-0.615,2.561-0.615C740.062,180.335,741.128,180.676,741.973,181.357z"></path> <path fill="#010101" d="M745.606,176.698c0.242-0.229,0.561-0.344,0.959-0.344c0.399,0,0.721,0.115,0.969,0.344 c0.247,0.23,0.37,0.519,0.37,0.869s-0.124,0.633-0.37,0.85c-0.248,0.217-0.569,0.326-0.969,0.326c-0.398,0-0.717-0.108-0.959-0.326 c-0.24-0.217-0.361-0.5-0.361-0.85S745.366,176.928,745.606,176.698z M747.597,180.461v9.966h-2.061v-9.966H747.597z"></path> <path fill="#010101" d="M756.406,181.004c0.638,0.446,1.093,1.038,1.357,1.773v-2.315h2.062v9.966h-2.062v-2.316 c-0.265,0.735-0.718,1.327-1.357,1.773c-0.639,0.446-1.41,0.669-2.315,0.669c-0.867,0-1.642-0.205-2.324-0.614 c-0.681-0.41-1.214-1.001-1.602-1.773c-0.386-0.772-0.577-1.682-0.577-2.731c0-1.037,0.191-1.94,0.577-2.714 c0.388-0.771,0.921-1.362,1.602-1.772c0.683-0.41,1.457-0.615,2.324-0.615C754.996,180.335,755.768,180.558,756.406,181.004z M752.526,183.021c-0.55,0.585-0.823,1.39-0.823,2.415c0,1.025,0.273,1.83,0.823,2.414c0.55,0.585,1.282,0.877,2.199,0.877 c0.578,0,1.097-0.135,1.556-0.406c0.456-0.271,0.819-0.654,1.084-1.149s0.398-1.073,0.398-1.736c0-0.651-0.134-1.227-0.398-1.728 c-0.265-0.5-0.628-0.886-1.084-1.158c-0.459-0.272-0.978-0.407-1.556-0.407C753.809,182.143,753.076,182.436,752.526,183.021z"></path> <path fill="#010101" d="M764.366,177.042v13.385h-2.062v-13.385H764.366z"></path> <path fill="#010101" d="M773.156,185.472v4.957h-2.061v-12.771h4.34c1.474,0,2.58,0.349,3.319,1.05 c0.742,0.7,1.112,1.659,1.112,2.875c0,1.207-0.379,2.156-1.139,2.85c-0.76,0.693-1.857,1.04-3.293,1.04L773.156,185.472 L773.156,185.472z M777.77,181.583c0-0.724-0.204-1.274-0.607-1.654c-0.402-0.38-1.051-0.571-1.943-0.571h-2.062v4.432h2.062 C776.918,183.79,777.77,183.055,777.77,181.583z"></path> <path fill="#010101" d="M785.185,180.869c0.627-0.38,1.351-0.569,2.17-0.569v2.242h-0.614c-0.903,0-1.631,0.22-2.18,0.661 c-0.549,0.44-0.824,1.167-0.824,2.179v5.047h-2.06v-9.966h2.06v1.954C784.076,181.764,784.558,181.249,785.185,180.869z"></path> <path fill="#010101" d="M796.055,180.95c0.774,0.41,1.376,1,1.811,1.772s0.65,1.676,0.65,2.713c0,1.049-0.216,1.959-0.65,2.731 c-0.435,0.771-1.036,1.363-1.811,1.773c-0.771,0.41-1.639,0.614-2.603,0.614c-0.967,0-1.831-0.205-2.597-0.614 c-0.765-0.41-1.368-1.004-1.809-1.783c-0.439-0.778-0.661-1.685-0.661-2.722c0-1.037,0.22-1.94,0.661-2.713 c0.44-0.772,1.044-1.362,1.809-1.772c0.766-0.41,1.63-0.615,2.597-0.615C794.416,180.335,795.283,180.541,796.055,180.95z M791.985,182.487c-0.445,0.242-0.805,0.613-1.075,1.112c-0.271,0.5-0.406,1.112-0.406,1.836c0,0.736,0.135,1.351,0.406,1.844 c0.271,0.495,0.63,0.864,1.075,1.104c0.446,0.241,0.937,0.362,1.467,0.362c0.529,0,1.019-0.121,1.466-0.362 c0.443-0.24,0.804-0.608,1.075-1.104c0.272-0.494,0.407-1.108,0.407-1.844c0-0.725-0.135-1.336-0.407-1.836 c-0.271-0.5-0.632-0.871-1.075-1.112c-0.447-0.241-0.937-0.361-1.466-0.361C792.922,182.126,792.433,182.247,791.985,182.487z"></path> <path fill="#010101" d="M806.818,181.004c0.638,0.446,1.093,1.038,1.357,1.773v-2.315h2.061v10.076 c0,0.928-0.188,1.751-0.568,2.469c-0.379,0.718-0.928,1.282-1.637,1.691c-0.712,0.409-1.556,0.615-2.533,0.615 c-1.399,0-2.529-0.332-3.392-0.995c-0.861-0.663-1.401-1.562-1.62-2.696h2.045c0.17,0.591,0.493,1.052,0.977,1.384 c0.481,0.331,1.098,0.497,1.846,0.497c0.82,0,1.494-0.252,2.025-0.759c0.53-0.507,0.797-1.242,0.797-2.207v-2.424 c-0.267,0.735-0.72,1.327-1.359,1.773c-0.637,0.446-1.41,0.669-2.315,0.669c-0.867,0-1.642-0.205-2.324-0.614 c-0.681-0.41-1.212-1-1.601-1.773c-0.387-0.772-0.578-1.682-0.578-2.732c0-1.037,0.191-1.94,0.578-2.713 c0.389-0.772,0.92-1.362,1.601-1.773c0.683-0.41,1.457-0.615,2.324-0.615C805.406,180.335,806.18,180.558,806.818,181.004z M802.938,183.021c-0.548,0.585-0.823,1.39-0.823,2.415c0,1.025,0.275,1.83,0.823,2.414c0.55,0.585,1.283,0.877,2.199,0.877 c0.58,0,1.098-0.135,1.556-0.406s0.819-0.654,1.084-1.149s0.399-1.073,0.399-1.736c0-0.651-0.135-1.227-0.399-1.728 c-0.265-0.5-0.626-0.886-1.084-1.158c-0.458-0.272-0.978-0.407-1.556-0.407C804.219,182.143,803.486,182.436,802.938,183.021z"></path> <path fill="#010101" d="M816.225,180.869c0.627-0.38,1.351-0.569,2.17-0.569v2.242h-0.615c-0.905,0-1.63,0.22-2.18,0.661 c-0.548,0.44-0.823,1.167-0.823,2.179v5.047h-2.062v-9.966h2.062v1.954C815.114,181.764,815.596,181.249,816.225,180.869z"></path> <path fill="#010101" d="M826.244,181.004c0.639,0.446,1.093,1.038,1.357,1.773v-2.315h2.062v9.966h-2.062v-2.316 c-0.265,0.735-0.717,1.327-1.357,1.773c-0.639,0.446-1.412,0.669-2.315,0.669c-0.866,0-1.644-0.205-2.324-0.614 c-0.681-0.41-1.214-1.001-1.601-1.773c-0.387-0.772-0.578-1.682-0.578-2.731c0-1.037,0.191-1.94,0.578-2.714 c0.387-0.771,0.92-1.362,1.601-1.772c0.681-0.41,1.458-0.615,2.324-0.615C824.832,180.335,825.605,180.558,826.244,181.004z M822.364,183.021c-0.548,0.585-0.822,1.39-0.822,2.415c0,1.025,0.274,1.83,0.822,2.414c0.551,0.585,1.282,0.877,2.199,0.877 c0.579,0,1.097-0.135,1.556-0.406c0.458-0.271,0.819-0.654,1.085-1.149c0.265-0.495,0.399-1.073,0.399-1.736 c0-0.651-0.135-1.227-0.399-1.728c-0.266-0.5-0.627-0.886-1.085-1.158c-0.459-0.272-0.977-0.407-1.556-0.407 C823.645,182.143,822.913,182.436,822.364,183.021z"></path> <path fill="#010101" d="M847.436,181.421c0.705,0.748,1.058,1.814,1.058,3.202v5.806h-2.062v-5.589c0-0.868-0.218-1.541-0.65-2.017 c-0.436-0.477-1.031-0.715-1.791-0.715c-0.809,0-1.45,0.256-1.926,0.769c-0.479,0.513-0.716,1.264-0.716,2.252v5.299h-2.062v-5.589 c0-0.868-0.216-1.541-0.65-2.017c-0.436-0.477-1.031-0.715-1.791-0.715c-0.809,0-1.45,0.256-1.926,0.769 c-0.479,0.513-0.716,1.264-0.716,2.252v5.299h-2.062v-9.966h2.062v2.08c0.254-0.723,0.676-1.278,1.267-1.664 c0.591-0.386,1.285-0.578,2.08-0.578c0.832,0,1.553,0.205,2.163,0.614c0.607,0.411,1.051,1,1.328,1.773 c0.289-0.747,0.754-1.333,1.394-1.755c0.638-0.421,1.361-0.633,2.17-0.633C845.786,180.299,846.731,180.673,847.436,181.421z"></path> <path fill="#010101" d="M856.984,181.23c0.708,0.597,1.137,1.396,1.294,2.396h-1.953c-0.085-0.542-0.316-0.979-0.696-1.312 c-0.38-0.332-0.885-0.498-1.511-0.498c-0.518,0-0.921,0.125-1.204,0.371c-0.283,0.247-0.424,0.581-0.424,1.003 c0,0.313,0.102,0.566,0.307,0.76c0.205,0.193,0.462,0.344,0.769,0.452c0.308,0.108,0.746,0.229,1.312,0.361 c0.747,0.169,1.354,0.344,1.817,0.524c0.466,0.18,0.862,0.467,1.194,0.859c0.331,0.391,0.498,0.925,0.498,1.601 c0,0.832-0.316,1.507-0.95,2.026c-0.633,0.519-1.486,0.778-2.56,0.778c-1.242,0-2.246-0.289-3.012-0.868 c-0.765-0.579-1.227-1.387-1.383-2.424h2.009c0.06,0.542,0.3,0.983,0.723,1.32c0.421,0.337,0.977,0.506,1.664,0.506 c0.495,0,0.883-0.13,1.168-0.388c0.281-0.26,0.424-0.589,0.424-0.986c0-0.349-0.107-0.626-0.325-0.831 c-0.217-0.206-0.489-0.364-0.813-0.479c-0.325-0.115-0.772-0.232-1.34-0.353c-0.723-0.168-1.312-0.337-1.763-0.506 c-0.453-0.169-0.839-0.443-1.158-0.823c-0.319-0.38-0.479-0.895-0.479-1.546c0-0.843,0.316-1.529,0.948-2.053 c0.633-0.524,1.511-0.786,2.632-0.786C855.343,180.335,856.28,180.634,856.984,181.23z"></path> </g> <g> <path fill="#0068A7" d="M538.323,266.022c7.289-6.021,15.05-11.993,15.05-17.777c0-2.492-1.13-4.09-3.575-4.09 c-2.397,0-3.81,1.88-3.81,5.124h-7.761c0.235-8.324,5.645-11.899,11.899-11.899c7.808,0,11.286,4.563,11.286,10.349 c0,7.523-6.725,13.543-12.181,17.729h12.698v6.537h-23.607V266.022L538.323,266.022z"></path> <path fill="#0068A7" d="M581.452,266.352h-15.801v-6.491l14.86-21.256h8.982v20.787h3.855v6.96h-3.855v6.112h-8.042V266.352z M582.017,259.392v-11.945l-7.9,11.945H582.017z"></path> </g> <g> <path fill="#0068A7" d="M600.148,237.193c2.604,0,4.552,1.591,4.552,4.635c0,3.046-1.947,4.635-4.552,4.635 c-2.605,0-4.58-1.589-4.58-4.635C595.568,238.784,597.543,237.193,600.148,237.193z M598.805,241.828 c0,1.289,0.493,1.865,1.315,1.865c0.823,0,1.344-0.576,1.344-1.865c0-1.317-0.521-1.893-1.344-1.893 C599.298,239.936,598.805,240.513,598.805,241.828z M609.664,237.495h4.523l-10.557,19.307h-4.525L609.664,237.495z M613.173,247.837c2.605,0,4.553,1.562,4.553,4.634c0,3.043-1.947,4.633-4.553,4.633c-2.604,0-4.552-1.59-4.552-4.633 C608.621,249.398,610.568,247.837,613.173,247.837z M611.829,252.471c0,1.287,0.494,1.864,1.317,1.864 c0.822,0,1.344-0.577,1.344-1.864c0-1.29-0.521-1.894-1.344-1.894C612.323,250.577,611.829,251.181,611.829,252.471z"></path> </g> <g> <path fill="#010101" d="M646.584,235.595c0.958,0.556,1.712,1.327,2.261,2.323s0.824,2.121,0.824,3.374s-0.275,2.379-0.824,3.373 c-0.549,0.995-1.303,1.772-2.261,2.334c-0.959,0.561-2.029,0.841-3.212,0.841c-1.192,0-2.269-0.28-3.228-0.841 c-0.96-0.562-1.716-1.339-2.271-2.334c-0.555-0.994-0.831-2.12-0.831-3.373s0.276-2.378,0.831-3.374 c0.556-0.996,1.312-1.77,2.271-2.323c0.959-0.554,2.035-0.833,3.228-0.833C644.555,234.762,645.625,235.041,646.584,235.595z M641.185,237.24c-0.64,0.374-1.135,0.91-1.493,1.609c-0.355,0.699-0.533,1.515-0.533,2.442c0,0.929,0.178,1.743,0.533,2.442 c0.358,0.699,0.854,1.235,1.493,1.61c0.639,0.372,1.368,0.559,2.188,0.559c0.809,0,1.529-0.187,2.163-0.559 c0.633-0.375,1.128-0.911,1.482-1.61c0.357-0.701,0.533-1.514,0.533-2.442c0-0.928-0.176-1.743-0.533-2.442 c-0.356-0.699-0.85-1.235-1.482-1.609c-0.632-0.373-1.354-0.56-2.163-0.56C642.553,236.681,641.823,236.867,641.185,237.24z"></path> <path fill="#010101" d="M659.788,238.218c0.681,0.41,1.214,1.001,1.601,1.773c0.386,0.771,0.58,1.676,0.58,2.712 c0,1.051-0.194,1.96-0.58,2.731c-0.387,0.772-0.92,1.363-1.601,1.773c-0.682,0.41-1.456,0.614-2.325,0.614 c-0.903,0-1.676-0.222-2.313-0.669c-0.64-0.445-1.087-1.037-1.341-1.773v7.054h-2.06v-14.704h2.06v2.314 c0.254-0.734,0.701-1.325,1.341-1.771c0.638-0.447,1.408-0.669,2.313-0.669C658.332,237.604,659.106,237.806,659.788,238.218z M655.275,239.819c-0.458,0.27-0.821,0.656-1.086,1.155c-0.265,0.502-0.398,1.079-0.398,1.729c0,0.664,0.134,1.242,0.398,1.737 c0.265,0.494,0.628,0.877,1.086,1.147c0.458,0.273,0.977,0.408,1.556,0.408c0.916,0,1.652-0.293,2.205-0.879 c0.556-0.584,0.833-1.39,0.833-2.414c0-1.014-0.277-1.815-0.833-2.405c-0.555-0.591-1.289-0.888-2.205-0.888 C656.25,239.41,655.733,239.547,655.275,239.819z"></path> <path fill="#010101" d="M673.146,243.12h-7.669c0.037,1.024,0.32,1.784,0.85,2.279c0.531,0.493,1.188,0.742,1.973,0.742 c0.688,0,1.271-0.174,1.744-0.523c0.479-0.352,0.77-0.815,0.879-1.396h2.206c-0.133,0.701-0.41,1.32-0.832,1.863 c-0.422,0.544-0.97,0.968-1.646,1.274c-0.676,0.31-1.43,0.462-2.262,0.462c-0.965,0-1.817-0.204-2.56-0.614 c-0.742-0.408-1.322-1.001-1.745-1.773c-0.421-0.771-0.632-1.681-0.632-2.731c0-1.036,0.211-1.94,0.632-2.712 c0.423-0.772,1.005-1.363,1.745-1.773c0.744-0.41,1.595-0.614,2.56-0.614c0.978,0,1.831,0.201,2.56,0.604 c0.729,0.405,1.29,0.96,1.682,1.665c0.392,0.706,0.589,1.493,0.589,2.36C673.219,242.57,673.196,242.864,673.146,243.12z M670.804,240.541c-0.247-0.439-0.584-0.765-1.014-0.976c-0.428-0.212-0.896-0.318-1.401-0.318c-0.809,0-1.484,0.249-2.026,0.742 c-0.542,0.495-0.837,1.225-0.886,2.19h5.662C671.162,241.528,671.051,240.979,670.804,240.541z"></path> <path fill="#010101" d="M678.718,238.136c0.627-0.379,1.352-0.569,2.17-0.569v2.243h-0.615c-0.903,0-1.63,0.219-2.18,0.661 c-0.548,0.439-0.823,1.166-0.823,2.178v5.048h-2.062v-9.967h2.062v1.953C677.607,239.031,678.089,238.516,678.718,238.136z"></path> <path fill="#010101" d="M688.738,238.271c0.638,0.445,1.092,1.038,1.356,1.772v-2.314h2.062v9.967h-2.062v-2.316 c-0.265,0.734-0.717,1.326-1.356,1.773c-0.64,0.445-1.412,0.669-2.315,0.669c-0.867,0-1.644-0.206-2.325-0.616 c-0.68-0.408-1.214-0.999-1.6-1.772c-0.387-0.771-0.579-1.682-0.579-2.73c0-1.038,0.192-1.941,0.579-2.714 c0.386-0.771,0.92-1.361,1.6-1.773c0.682-0.41,1.458-0.614,2.325-0.614C687.326,237.604,688.099,237.825,688.738,238.271z M684.857,240.289c-0.547,0.586-0.822,1.39-0.822,2.414s0.273,1.83,0.822,2.414c0.551,0.588,1.283,0.879,2.199,0.879 c0.579,0,1.098-0.135,1.557-0.407c0.457-0.271,0.818-0.654,1.084-1.148c0.265-0.495,0.397-1.073,0.397-1.737 c0-0.649-0.133-1.227-0.397-1.729c-0.266-0.499-0.627-0.886-1.084-1.155c-0.459-0.272-0.978-0.409-1.557-0.409 C686.14,239.41,685.406,239.703,684.857,240.289z"></path> <path fill="#010101" d="M699.646,245.905v1.791h-1.267c-1.062,0-1.866-0.258-2.415-0.771c-0.55-0.513-0.824-1.365-0.824-2.56 v-4.885h-1.43v-1.752h1.43v-2.479h2.08v2.479h2.406v1.752h-2.406v4.922c0,0.566,0.106,0.959,0.318,1.176 c0.209,0.216,0.58,0.326,1.112,0.326H699.646L699.646,245.905z"></path> <path fill="#010101" d="M701.652,233.967c0.241-0.229,0.561-0.345,0.958-0.345c0.4,0,0.722,0.116,0.968,0.345 c0.248,0.229,0.372,0.519,0.372,0.868s-0.124,0.632-0.372,0.85c-0.246,0.219-0.569,0.327-0.968,0.327 c-0.397,0-0.717-0.108-0.958-0.327c-0.242-0.218-0.362-0.5-0.362-0.85C701.291,234.485,701.412,234.195,701.652,233.967z M703.644,237.729v9.967h-2.062v-9.967H703.644z"></path> <path fill="#010101" d="M713.3,238.218c0.773,0.41,1.377,1.001,1.81,1.773c0.437,0.771,0.651,1.676,0.651,2.712 c0,1.051-0.215,1.96-0.651,2.731c-0.433,0.772-1.036,1.363-1.81,1.773c-0.771,0.41-1.64,0.614-2.603,0.614 c-0.967,0-1.83-0.204-2.596-0.614c-0.768-0.408-1.369-1.003-1.809-1.782c-0.44-0.777-0.662-1.685-0.662-2.723 c0-1.036,0.22-1.94,0.662-2.712c0.439-0.772,1.041-1.363,1.809-1.773c0.766-0.41,1.629-0.614,2.596-0.614 C711.66,237.604,712.529,237.806,713.3,238.218z M709.231,239.755c-0.445,0.241-0.805,0.612-1.076,1.113 c-0.271,0.5-0.405,1.111-0.405,1.835c0,0.736,0.135,1.351,0.405,1.845c0.271,0.496,0.631,0.864,1.076,1.104 c0.446,0.241,0.936,0.362,1.466,0.362s1.019-0.121,1.466-0.362c0.445-0.241,0.805-0.607,1.075-1.104 c0.272-0.494,0.407-1.108,0.407-1.845c0-0.724-0.135-1.335-0.407-1.835c-0.271-0.501-0.63-0.872-1.075-1.113 s-0.936-0.362-1.466-0.362C710.165,239.393,709.678,239.514,709.231,239.755z"></path> <path fill="#010101" d="M726.108,238.687c0.699,0.749,1.05,1.815,1.05,3.202v5.806h-2.062v-5.589c0-0.894-0.229-1.584-0.686-2.072 c-0.461-0.487-1.088-0.732-1.884-0.732c-0.821,0-1.477,0.263-1.972,0.786c-0.494,0.525-0.742,1.294-0.742,2.308v5.3h-2.061v-9.967 h2.061v2.188c0.266-0.746,0.711-1.324,1.34-1.734c0.627-0.41,1.35-0.616,2.168-0.616 C724.481,237.566,725.41,237.941,726.108,238.687z"></path> <path fill="#010101" d="M735.649,238.496c0.708,0.597,1.137,1.397,1.293,2.396h-1.952c-0.084-0.541-0.316-0.979-0.697-1.31 c-0.379-0.332-0.884-0.499-1.511-0.499c-0.518,0-0.919,0.124-1.203,0.371s-0.425,0.582-0.425,1.005 c0,0.313,0.104,0.565,0.308,0.758c0.205,0.193,0.462,0.344,0.77,0.452c0.307,0.11,0.743,0.231,1.311,0.364 c0.747,0.169,1.354,0.343,1.818,0.523c0.465,0.18,0.861,0.467,1.194,0.859c0.33,0.392,0.497,0.927,0.497,1.601 c0,0.831-0.315,1.507-0.949,2.025c-0.633,0.519-1.486,0.777-2.561,0.777c-1.241,0-2.245-0.289-3.011-0.866 c-0.766-0.58-1.228-1.388-1.383-2.425h2.008c0.06,0.542,0.3,0.981,0.723,1.321c0.422,0.337,0.977,0.507,1.665,0.507 c0.494,0,0.882-0.129,1.168-0.39c0.282-0.26,0.424-0.588,0.424-0.985c0-0.35-0.108-0.629-0.325-0.833 c-0.218-0.204-0.488-0.363-0.814-0.478c-0.324-0.115-0.771-0.232-1.34-0.354c-0.722-0.167-1.311-0.336-1.762-0.504 c-0.453-0.171-0.84-0.444-1.159-0.825c-0.319-0.38-0.479-0.896-0.479-1.546c0-0.846,0.318-1.528,0.95-2.053 c0.633-0.525,1.511-0.786,2.632-0.786C734.008,237.604,734.945,237.9,735.649,238.496z"></path> <path fill="#010101" d="M749.659,238.271c0.638,0.445,1.092,1.038,1.356,1.772v-2.314h2.062v9.967h-2.062v-2.316 c-0.265,0.734-0.717,1.326-1.356,1.773c-0.64,0.445-1.41,0.669-2.315,0.669c-0.867,0-1.645-0.206-2.325-0.616 c-0.681-0.408-1.214-0.999-1.6-1.772c-0.386-0.771-0.579-1.682-0.579-2.73c0-1.038,0.193-1.941,0.579-2.714 c0.386-0.771,0.919-1.361,1.6-1.773c0.684-0.41,1.458-0.614,2.325-0.614C748.249,237.604,749.02,237.825,749.659,238.271z M745.779,240.289c-0.55,0.586-0.822,1.39-0.822,2.414s0.272,1.83,0.822,2.414c0.55,0.588,1.282,0.879,2.198,0.879 c0.579,0,1.098-0.135,1.554-0.407c0.459-0.271,0.821-0.654,1.088-1.148c0.264-0.495,0.396-1.073,0.396-1.737 c0-0.649-0.133-1.227-0.396-1.729c-0.267-0.499-0.629-0.886-1.088-1.155c-0.456-0.272-0.975-0.409-1.554-0.409 C747.062,239.41,746.329,239.703,745.779,240.289z"></path> <path fill="#010101" d="M763.914,238.687c0.699,0.749,1.049,1.815,1.049,3.202v5.806H762.9v-5.589c0-0.894-0.229-1.584-0.687-2.072 c-0.46-0.487-1.086-0.732-1.882-0.732c-0.819,0-1.478,0.263-1.971,0.786c-0.496,0.525-0.744,1.294-0.744,2.308v5.3h-2.061v-9.967 h2.061v2.188c0.266-0.746,0.711-1.324,1.341-1.734c0.626-0.41,1.351-0.616,2.17-0.616 C762.284,237.566,763.213,237.941,763.914,238.687z"></path> <path fill="#010101" d="M773.681,238.271c0.638,0.445,1.085,1.038,1.338,1.772v-5.732h2.08v13.385h-2.08v-2.316 c-0.253,0.736-0.7,1.326-1.338,1.773c-0.64,0.445-1.41,0.669-2.315,0.669c-0.867,0-1.645-0.204-2.324-0.614 c-0.682-0.408-1.215-1.001-1.602-1.773c-0.386-0.771-0.578-1.681-0.578-2.731c0-1.036,0.192-1.94,0.578-2.712 c0.387-0.772,0.92-1.363,1.602-1.773c0.68-0.41,1.457-0.614,2.324-0.614C772.271,237.604,773.041,237.825,773.681,238.271z M769.801,240.289c-0.55,0.586-0.823,1.39-0.823,2.414s0.273,1.83,0.823,2.414c0.55,0.588,1.282,0.879,2.198,0.879 c0.579,0,1.096-0.135,1.555-0.407c0.458-0.271,0.82-0.654,1.086-1.148c0.265-0.495,0.397-1.073,0.397-1.737 c0-0.649-0.133-1.227-0.397-1.729c-0.266-0.499-0.628-0.886-1.086-1.155c-0.459-0.272-0.976-0.409-1.555-0.409 C771.083,239.41,770.351,239.703,769.801,240.289z"></path> <path fill="#010101" d="M793.415,235.992c1.037,0.795,1.738,1.876,2.098,3.239h-2.188c-0.302-0.772-0.781-1.387-1.438-1.837 c-0.657-0.451-1.464-0.679-2.414-0.679c-0.76,0-1.439,0.188-2.035,0.562c-0.597,0.372-1.067,0.908-1.41,1.599 c-0.345,0.696-0.518,1.506-0.518,2.436c0,0.916,0.173,1.722,0.518,2.414c0.343,0.694,0.813,1.229,1.41,1.601 c0.596,0.373,1.275,0.56,2.035,0.56c0.95,0,1.757-0.226,2.414-0.676c0.658-0.453,1.136-1.059,1.438-1.818h2.188 c-0.361,1.361-1.061,2.439-2.098,3.228c-1.038,0.791-2.34,1.186-3.906,1.186c-1.207,0-2.274-0.275-3.201-0.824 c-0.93-0.548-1.647-1.314-2.154-2.296c-0.507-0.982-0.76-2.107-0.76-3.375c0-1.266,0.253-2.389,0.76-3.372s1.225-1.752,2.154-2.308 c0.927-0.554,1.996-0.832,3.201-0.832C791.075,234.798,792.377,235.197,793.415,235.992z"></path> <path fill="#010101" d="M799.637,234.312v13.385h-2.061v-13.385H799.637z"></path> <path fill="#010101" d="M802.205,233.967c0.243-0.229,0.561-0.345,0.959-0.345c0.399,0,0.721,0.116,0.969,0.345 s0.37,0.519,0.37,0.868s-0.124,0.632-0.37,0.85c-0.246,0.219-0.569,0.327-0.969,0.327c-0.398,0-0.716-0.108-0.959-0.327 c-0.24-0.218-0.362-0.5-0.362-0.85S801.965,234.195,802.205,233.967z M804.195,237.729v9.967h-2.062v-9.967H804.195z"></path> <path fill="#010101" d="M815.048,238.687c0.698,0.749,1.049,1.815,1.049,3.202v5.806h-2.061v-5.589 c0-0.894-0.229-1.584-0.688-2.072c-0.458-0.487-1.087-0.732-1.881-0.732c-0.821,0-1.479,0.263-1.973,0.786 c-0.495,0.525-0.742,1.294-0.742,2.308v5.3h-2.062v-9.967h2.062v2.188c0.267-0.746,0.71-1.324,1.339-1.734 c0.627-0.41,1.352-0.616,2.17-0.616C813.42,237.566,814.35,237.941,815.048,238.687z"></path> <path fill="#010101" d="M818.576,233.967c0.241-0.229,0.561-0.345,0.957-0.345c0.401,0,0.723,0.116,0.969,0.345 c0.248,0.229,0.371,0.519,0.371,0.868s-0.123,0.632-0.371,0.85c-0.246,0.219-0.569,0.327-0.969,0.327 c-0.396,0-0.716-0.108-0.957-0.327c-0.243-0.218-0.363-0.5-0.363-0.85C818.215,234.485,818.335,234.195,818.576,233.967z M820.566,237.729v9.967h-2.062v-9.967H820.566z"></path> <path fill="#010101" d="M830.694,238.624c0.844,0.682,1.368,1.606,1.573,2.776h-2.188c-0.121-0.627-0.413-1.116-0.877-1.475 c-0.465-0.355-1.047-0.533-1.745-0.533c-0.796,0-1.459,0.28-1.989,0.842c-0.531,0.559-0.796,1.383-0.796,2.469 s0.265,1.912,0.796,2.478c0.53,0.566,1.193,0.851,1.989,0.851c0.7,0,1.282-0.181,1.745-0.543c0.464-0.362,0.756-0.855,0.877-1.482 h2.188c-0.205,1.17-0.729,2.099-1.573,2.785s-1.911,1.031-3.199,1.031c-0.967,0-1.819-0.206-2.56-0.616 c-0.742-0.408-1.324-0.999-1.747-1.772c-0.421-0.771-0.632-1.682-0.632-2.73c0-1.038,0.211-1.941,0.632-2.714 c0.423-0.771,1.005-1.361,1.747-1.773c0.742-0.41,1.593-0.614,2.56-0.614C828.783,237.604,829.851,237.942,830.694,238.624z"></path> <path fill="#010101" d="M840.571,238.271c0.639,0.445,1.092,1.038,1.356,1.772v-2.314h2.062v9.967h-2.062v-2.316 c-0.265,0.734-0.718,1.326-1.356,1.773c-0.64,0.445-1.41,0.669-2.315,0.669c-0.868,0-1.642-0.206-2.325-0.616 c-0.681-0.408-1.214-0.999-1.601-1.772c-0.386-0.771-0.578-1.682-0.578-2.73c0-1.038,0.192-1.941,0.578-2.714 c0.387-0.771,0.92-1.361,1.601-1.773c0.684-0.41,1.457-0.614,2.325-0.614C839.159,237.604,839.932,237.825,840.571,238.271z M836.691,240.289c-0.551,0.586-0.823,1.39-0.823,2.414s0.272,1.83,0.823,2.414c0.549,0.588,1.282,0.879,2.198,0.879 c0.578,0,1.098-0.135,1.556-0.407c0.458-0.271,0.819-0.654,1.085-1.148c0.264-0.495,0.397-1.073,0.397-1.737 c0-0.649-0.134-1.227-0.397-1.729c-0.266-0.499-0.627-0.886-1.085-1.155c-0.458-0.272-0.978-0.409-1.556-0.409 C837.972,239.41,837.238,239.703,836.691,240.289z"></path> <path fill="#010101" d="M848.531,234.312v13.385h-2.062v-13.385H848.531z"></path> </g> <g> <path fill="#010101" d="M645.398,273.173c-0.302,0.536-0.76,0.969-1.374,1.292c-0.616,0.326-1.369,0.489-2.263,0.489 c-0.866,0-1.645-0.154-2.333-0.461c-0.688-0.309-1.235-0.738-1.646-1.294c-0.408-0.556-0.645-1.194-0.705-1.917h2.207 c0.06,0.556,0.297,1.031,0.714,1.431c0.414,0.397,0.974,0.595,1.672,0.595c0.628,0,1.112-0.171,1.457-0.506 c0.343-0.338,0.516-0.772,0.516-1.303c0-0.458-0.128-0.835-0.381-1.131c-0.252-0.297-0.565-0.527-0.939-0.697 c-0.374-0.167-0.886-0.36-1.538-0.579c-0.795-0.252-1.444-0.506-1.943-0.76c-0.501-0.254-0.925-0.621-1.275-1.103 c-0.351-0.48-0.524-1.116-0.524-1.898c0-0.688,0.168-1.291,0.507-1.81c0.337-0.518,0.82-0.919,1.445-1.203 c0.627-0.284,1.351-0.426,2.172-0.426c1.303,0,2.336,0.314,3.103,0.94c0.763,0.627,1.202,1.447,1.312,2.46h-2.226 c-0.084-0.48-0.311-0.895-0.677-1.24c-0.369-0.343-0.874-0.515-1.512-0.515c-0.58,0-1.044,0.147-1.394,0.443 c-0.351,0.295-0.524,0.721-0.524,1.276c0,0.434,0.12,0.792,0.363,1.075c0.24,0.284,0.544,0.506,0.912,0.67 c0.366,0.163,0.871,0.353,1.511,0.569c0.808,0.252,1.47,0.51,1.981,0.769c0.512,0.26,0.947,0.636,1.302,1.131 c0.356,0.495,0.533,1.145,0.533,1.952C645.851,272.055,645.7,272.637,645.398,273.173z"></path> <path fill="#010101" d="M657.102,264.862v9.966h-2.079v-2.17c-0.254,0.734-0.694,1.304-1.321,1.709 c-0.629,0.402-1.357,0.605-2.189,0.605c-1.156,0-2.088-0.375-2.784-1.122c-0.7-0.747-1.05-1.814-1.05-3.2v-5.788h2.062v5.569 c0,0.903,0.228,1.604,0.688,2.09c0.458,0.489,1.085,0.732,1.881,0.732c0.82,0,1.477-0.265,1.973-0.795 c0.493-0.531,0.742-1.303,0.742-2.316v-5.28H657.102L657.102,264.862z"></path> <path fill="#010101" d="M667.62,265.351c0.683,0.409,1.216,1.001,1.601,1.772c0.386,0.772,0.58,1.676,0.58,2.713 c0,1.051-0.194,1.959-0.58,2.733c-0.385,0.77-0.918,1.361-1.601,1.771c-0.681,0.409-1.455,0.615-2.324,0.615 c-0.904,0-1.675-0.224-2.313-0.671c-0.641-0.445-1.088-1.036-1.341-1.773v7.056h-2.061v-14.705h2.061v2.314 c0.253-0.735,0.7-1.326,1.341-1.771c0.637-0.447,1.409-0.669,2.313-0.669C666.163,264.736,666.939,264.938,667.62,265.351z M663.107,266.951c-0.46,0.271-0.821,0.657-1.086,1.157c-0.265,0.501-0.398,1.077-0.398,1.728c0,0.663,0.134,1.244,0.398,1.737 s0.626,0.877,1.086,1.148c0.458,0.271,0.977,0.406,1.556,0.406c0.916,0,1.65-0.293,2.204-0.879 c0.557-0.584,0.834-1.388,0.834-2.413c0-1.014-0.279-1.814-0.834-2.405c-0.554-0.592-1.288-0.888-2.204-0.888 C664.084,266.543,663.565,266.68,663.107,266.951z"></path> <path fill="#010101" d="M679.83,265.351c0.681,0.409,1.214,1.001,1.601,1.772c0.386,0.772,0.58,1.676,0.58,2.713 c0,1.051-0.194,1.959-0.58,2.733c-0.387,0.77-0.92,1.361-1.601,1.771c-0.681,0.409-1.455,0.615-2.324,0.615 c-0.904,0-1.677-0.224-2.313-0.671c-0.64-0.445-1.087-1.036-1.341-1.773v7.056h-2.061v-14.705h2.061v2.314 c0.254-0.735,0.701-1.326,1.341-1.771c0.637-0.447,1.407-0.669,2.313-0.669C678.375,264.736,679.149,264.938,679.83,265.351z M675.317,266.951c-0.458,0.271-0.821,0.657-1.085,1.157c-0.266,0.501-0.399,1.077-0.399,1.728c0,0.663,0.134,1.244,0.399,1.737 c0.264,0.493,0.627,0.877,1.085,1.148s0.978,0.406,1.556,0.406c0.916,0,1.652-0.293,2.206-0.879 c0.555-0.584,0.832-1.388,0.832-2.413c0-1.014-0.277-1.814-0.832-2.405c-0.556-0.592-1.29-0.888-2.206-0.888 C676.293,266.543,675.775,266.68,675.317,266.951z"></path> <path fill="#010101" d="M691.162,265.351c0.771,0.409,1.373,1.001,1.809,1.772c0.435,0.772,0.652,1.676,0.652,2.713 c0,1.051-0.218,1.959-0.652,2.733c-0.436,0.77-1.037,1.361-1.809,1.771c-0.772,0.409-1.641,0.615-2.605,0.615 s-1.829-0.206-2.594-0.615c-0.767-0.408-1.369-1.003-1.811-1.78c-0.44-0.779-0.659-1.687-0.659-2.725 c0-1.037,0.219-1.94,0.659-2.713c0.441-0.771,1.044-1.363,1.811-1.772c0.765-0.41,1.629-0.614,2.594-0.614 S690.39,264.938,691.162,265.351z M687.091,266.888c-0.445,0.243-0.805,0.613-1.075,1.112c-0.272,0.501-0.407,1.111-0.407,1.836 c0,0.736,0.135,1.351,0.407,1.846c0.271,0.495,0.63,0.862,1.075,1.103c0.447,0.243,0.937,0.361,1.466,0.361 c0.53,0,1.02-0.118,1.467-0.361c0.445-0.242,0.805-0.607,1.075-1.103c0.271-0.495,0.406-1.109,0.406-1.846 c0-0.725-0.135-1.335-0.406-1.836c-0.271-0.499-0.63-0.869-1.075-1.112c-0.446-0.242-0.937-0.362-1.467-0.362 C688.027,266.525,687.538,266.646,687.091,266.888z"></path> <path fill="#010101" d="M699.121,265.269c0.627-0.38,1.352-0.57,2.17-0.57v2.244h-0.613c-0.905,0-1.632,0.218-2.18,0.66 c-0.55,0.44-0.825,1.166-0.825,2.178v5.048h-2.062v-9.966h2.062v1.952C698.012,266.165,698.494,265.648,699.121,265.269z"></path> <path fill="#010101" d="M707.84,273.037v1.791h-1.267c-1.06,0-1.865-0.255-2.414-0.769c-0.551-0.513-0.825-1.366-0.825-2.561 v-4.884h-1.429v-1.753h1.429v-2.479h2.08v2.479h2.407v1.753h-2.407v4.921c0,0.566,0.106,0.958,0.318,1.177 c0.209,0.215,0.582,0.324,1.112,0.324H707.84L707.84,273.037z"></path> <path fill="#010101" d="M721.948,273.173c-0.302,0.536-0.761,0.969-1.374,1.292c-0.616,0.326-1.369,0.489-2.262,0.489 c-0.868,0-1.646-0.154-2.334-0.461c-0.688-0.309-1.235-0.738-1.646-1.294c-0.411-0.556-0.645-1.194-0.705-1.917h2.205 c0.062,0.556,0.298,1.031,0.715,1.431c0.416,0.397,0.974,0.595,1.673,0.595c0.627,0,1.111-0.171,1.455-0.506 c0.346-0.338,0.518-0.772,0.518-1.303c0-0.458-0.128-0.835-0.381-1.131c-0.254-0.297-0.566-0.527-0.939-0.697 c-0.374-0.167-0.888-0.36-1.537-0.579c-0.797-0.252-1.445-0.506-1.947-0.76c-0.498-0.254-0.924-0.621-1.274-1.103 c-0.349-0.48-0.524-1.116-0.524-1.898c0-0.688,0.171-1.291,0.508-1.81c0.338-0.518,0.819-0.919,1.447-1.203 c0.626-0.284,1.351-0.426,2.17-0.426c1.302,0,2.336,0.314,3.102,0.94c0.766,0.627,1.203,1.447,1.312,2.46h-2.224 c-0.085-0.48-0.311-0.895-0.678-1.24c-0.368-0.343-0.873-0.515-1.512-0.515c-0.579,0-1.042,0.147-1.393,0.443 c-0.351,0.295-0.524,0.721-0.524,1.276c0,0.434,0.119,0.792,0.36,1.075c0.242,0.284,0.546,0.506,0.914,0.67 c0.367,0.163,0.872,0.353,1.511,0.569c0.809,0.252,1.468,0.51,1.98,0.769c0.514,0.26,0.946,0.636,1.302,1.131 c0.357,0.495,0.534,1.145,0.534,1.952C722.399,272.055,722.25,272.637,721.948,273.173z"></path> <path fill="#010101" d="M733.65,270.253h-7.669c0.035,1.023,0.319,1.783,0.85,2.278c0.529,0.496,1.188,0.742,1.973,0.742 c0.686,0,1.27-0.174,1.744-0.523c0.476-0.352,0.769-0.814,0.878-1.396h2.206c-0.133,0.701-0.409,1.321-0.832,1.864 c-0.421,0.543-0.972,0.967-1.646,1.276c-0.675,0.307-1.43,0.461-2.261,0.461c-0.965,0-1.819-0.206-2.561-0.615 c-0.742-0.41-1.323-1.002-1.744-1.771c-0.424-0.774-0.633-1.683-0.633-2.733c0-1.037,0.21-1.94,0.633-2.713 c0.423-0.771,1.004-1.363,1.744-1.772c0.741-0.41,1.596-0.614,2.561-0.614c0.977,0,1.83,0.2,2.56,0.604 c0.729,0.403,1.289,0.959,1.682,1.664c0.391,0.706,0.589,1.492,0.589,2.36C733.724,269.702,733.698,269.997,733.65,270.253z M731.309,267.674c-0.247-0.44-0.585-0.766-1.014-0.977c-0.428-0.211-0.895-0.317-1.4-0.317c-0.808,0-1.483,0.248-2.025,0.742 c-0.543,0.495-0.84,1.225-0.888,2.189h5.662C731.667,268.66,731.556,268.114,731.309,267.674z"></path> <path fill="#010101" d="M739.221,265.269c0.629-0.38,1.353-0.57,2.172-0.57v2.244h-0.617c-0.903,0-1.631,0.218-2.179,0.66 c-0.547,0.44-0.822,1.166-0.822,2.178v5.048h-2.062v-9.966h2.062v1.952C738.112,266.165,738.594,265.648,739.221,265.269z"></path> <path fill="#010101" d="M747.019,272.693l2.82-7.831h2.206l-3.797,9.966h-2.498l-3.797-9.966h2.206L747.019,272.693z"></path> <path fill="#010101" d="M753.639,261.101c0.242-0.23,0.561-0.346,0.959-0.346s0.721,0.115,0.968,0.346 c0.246,0.228,0.37,0.517,0.37,0.866s-0.124,0.634-0.37,0.851c-0.247,0.218-0.569,0.326-0.968,0.326s-0.717-0.108-0.959-0.326 c-0.243-0.217-0.363-0.501-0.363-0.851S753.396,261.328,753.639,261.101z M755.629,264.862v9.966h-2.062v-9.966H755.629z"></path> <path fill="#010101" d="M765.759,265.757c0.844,0.682,1.368,1.607,1.573,2.777h-2.189c-0.121-0.628-0.413-1.12-0.877-1.475 c-0.463-0.356-1.045-0.534-1.746-0.534c-0.794,0-1.458,0.28-1.988,0.841c-0.529,0.56-0.796,1.383-0.796,2.47 c0,1.086,0.267,1.911,0.796,2.478c0.53,0.568,1.194,0.852,1.988,0.852c0.701,0,1.283-0.183,1.746-0.545 c0.464-0.36,0.756-0.855,0.877-1.481h2.189c-0.205,1.169-0.729,2.098-1.573,2.784c-0.845,0.688-1.912,1.031-3.201,1.031 c-0.967,0-1.818-0.205-2.56-0.615c-0.742-0.408-1.324-1-1.745-1.771c-0.424-0.772-0.632-1.683-0.632-2.731 c0-1.039,0.21-1.942,0.632-2.714c0.421-0.771,1.003-1.362,1.745-1.773c0.741-0.41,1.593-0.614,2.56-0.614 C763.847,264.736,764.914,265.075,765.759,265.757z"></path> <path fill="#010101" d="M778.509,270.253h-7.67c0.036,1.023,0.321,1.783,0.852,2.278c0.53,0.496,1.188,0.742,1.972,0.742 c0.687,0,1.269-0.174,1.745-0.523c0.476-0.352,0.769-0.814,0.876-1.396h2.208c-0.133,0.701-0.411,1.321-0.831,1.864 c-0.425,0.543-0.973,0.967-1.647,1.276c-0.674,0.307-1.429,0.461-2.261,0.461c-0.966,0-1.817-0.206-2.56-0.615 c-0.741-0.41-1.324-1.002-1.743-1.771c-0.425-0.774-0.633-1.683-0.633-2.733c0-1.037,0.21-1.94,0.633-2.713 c0.419-0.771,1.002-1.363,1.743-1.772c0.742-0.41,1.594-0.614,2.56-0.614c0.978,0,1.829,0.2,2.559,0.604 c0.729,0.403,1.292,0.959,1.683,1.664c0.393,0.706,0.588,1.492,0.588,2.36C778.581,269.702,778.558,269.997,778.509,270.253z M776.167,267.674c-0.248-0.44-0.586-0.766-1.014-0.977s-0.896-0.317-1.401-0.317c-0.809,0-1.483,0.248-2.025,0.742 c-0.543,0.495-0.838,1.225-0.888,2.189h5.662C776.526,268.66,776.415,268.114,776.167,267.674z"></path> <path fill="#010101" d="M786.658,265.629c0.707,0.598,1.137,1.396,1.293,2.397h-1.952c-0.085-0.543-0.316-0.979-0.698-1.312 c-0.379-0.332-0.883-0.498-1.51-0.498c-0.518,0-0.92,0.126-1.204,0.37c-0.284,0.249-0.424,0.583-0.424,1.005 c0,0.314,0.103,0.566,0.307,0.76c0.205,0.193,0.463,0.345,0.77,0.451c0.308,0.109,0.744,0.23,1.312,0.363 c0.747,0.169,1.354,0.343,1.818,0.524c0.465,0.179,0.861,0.467,1.194,0.858c0.33,0.395,0.498,0.927,0.498,1.602 c0,0.83-0.317,1.507-0.951,2.025c-0.633,0.518-1.485,0.778-2.56,0.778c-1.241,0-2.246-0.289-3.011-0.867 c-0.765-0.579-1.228-1.389-1.384-2.425h2.009c0.06,0.543,0.3,0.983,0.722,1.32c0.423,0.339,0.978,0.508,1.665,0.508 c0.495,0,0.883-0.13,1.168-0.391c0.282-0.259,0.425-0.588,0.425-0.985c0-0.35-0.108-0.628-0.326-0.83 c-0.217-0.206-0.488-0.364-0.813-0.479s-0.772-0.232-1.341-0.355c-0.721-0.166-1.311-0.335-1.761-0.504 c-0.453-0.17-0.839-0.443-1.159-0.825c-0.32-0.38-0.479-0.896-0.479-1.546c0-0.845,0.317-1.528,0.95-2.052 c0.632-0.523,1.511-0.786,2.632-0.786C785.017,264.736,785.953,265.032,786.658,265.629z"></path> </g> <g> <path fill="#818285" d="M538.284,351.389c7.132-5.89,14.726-11.734,14.726-17.395c0-2.439-1.103-4.005-3.498-4.005 c-2.347,0-3.727,1.841-3.727,5.017h-7.594c0.229-8.146,5.522-11.643,11.643-11.643c7.64,0,11.044,4.464,11.044,10.125 c0,7.362-6.579,13.252-11.917,17.349h12.424v6.396h-23.101V351.389z"></path> <path fill="#818285" d="M580.479,351.712h-15.461v-6.353l14.541-20.8h8.79v20.34h3.774v6.812h-3.774v5.981h-7.87V351.712z M581.032,344.899v-11.688l-7.729,11.688H581.032L581.032,344.899z"></path> </g> <g> <path fill="#818285" d="M598.763,323.195c2.549,0,4.453,1.555,4.453,4.533c0,2.977-1.904,4.531-4.453,4.531 c-2.547,0-4.479-1.555-4.479-4.531C594.284,324.75,596.217,323.195,598.763,323.195z M597.449,327.729 c0,1.258,0.483,1.822,1.288,1.822s1.313-0.564,1.313-1.822c0-1.289-0.509-1.852-1.313-1.852S597.449,326.439,597.449,327.729z M608.069,323.491h4.427l-10.327,18.879h-4.425L608.069,323.491z M611.502,333.6c2.549,0,4.454,1.53,4.454,4.533 c0,2.977-1.905,4.533-4.454,4.533c-2.547,0-4.451-1.555-4.451-4.533C607.051,335.13,608.955,333.6,611.502,333.6z M610.188,338.133 c0,1.261,0.483,1.823,1.288,1.823s1.314-0.562,1.314-1.823c0-1.26-0.51-1.851-1.314-1.851 C610.673,336.282,610.188,336.873,610.188,338.133z"></path> </g> <g> <path fill="#010101" d="M644.168,332.742l-3.184-5.101h-1.466v5.101h-2.06v-12.771h4.501c1.461,0,2.565,0.356,3.32,1.068 c0.753,0.71,1.132,1.652,1.132,2.82c0,1.001-0.282,1.821-0.841,2.46c-0.562,0.64-1.373,1.051-2.435,1.23l3.347,5.191H644.168 L644.168,332.742z M639.521,326.177h2.28c1.664,0,2.494-0.736,2.494-2.206c0-0.699-0.2-1.246-0.605-1.639 c-0.403-0.391-1.032-0.587-1.889-0.587h-2.28V326.177z"></path> <path fill="#010101" d="M657.465,328.167h-7.671c0.036,1.023,0.32,1.783,0.853,2.278c0.529,0.495,1.188,0.742,1.972,0.742 c0.687,0,1.269-0.174,1.745-0.523c0.476-0.35,0.768-0.814,0.876-1.396h2.206c-0.134,0.701-0.409,1.322-0.83,1.864 c-0.424,0.543-0.972,0.967-1.647,1.274c-0.675,0.309-1.428,0.463-2.259,0.463c-0.967,0-1.82-0.206-2.561-0.616 c-0.742-0.409-1.324-1.001-1.744-1.771c-0.424-0.772-0.635-1.684-0.635-2.732c0-1.038,0.212-1.941,0.635-2.714 c0.42-0.771,1.002-1.363,1.744-1.773c0.742-0.409,1.594-0.613,2.561-0.613c0.975,0,1.828,0.202,2.558,0.604 c0.729,0.404,1.289,0.96,1.681,1.666c0.394,0.705,0.589,1.491,0.589,2.359C657.536,327.618,657.512,327.913,657.465,328.167z M655.123,325.589c-0.248-0.439-0.586-0.765-1.016-0.976c-0.427-0.212-0.895-0.319-1.398-0.319c-0.809,0-1.484,0.25-2.027,0.743 c-0.542,0.495-0.839,1.225-0.888,2.188h5.662C655.48,326.574,655.368,326.029,655.123,325.589z"></path> <path fill="#010101" d="M665.613,323.545c0.706,0.596,1.136,1.396,1.291,2.396h-1.952c-0.084-0.543-0.315-0.979-0.696-1.312 c-0.379-0.33-0.884-0.497-1.512-0.497c-0.518,0-0.919,0.124-1.203,0.371s-0.425,0.582-0.425,1.005c0,0.312,0.104,0.566,0.309,0.758 c0.204,0.193,0.461,0.345,0.769,0.452c0.307,0.108,0.745,0.229,1.311,0.362c0.748,0.171,1.355,0.343,1.818,0.525 c0.465,0.18,0.864,0.467,1.194,0.857c0.331,0.395,0.498,0.927,0.498,1.602c0,0.832-0.316,1.509-0.95,2.026 c-0.633,0.517-1.485,0.777-2.558,0.777c-1.243,0-2.248-0.287-3.013-0.867c-0.766-0.579-1.227-1.387-1.383-2.425h2.007 c0.06,0.545,0.3,0.983,0.723,1.322s0.978,0.506,1.666,0.506c0.493,0,0.883-0.13,1.167-0.389c0.284-0.26,0.424-0.588,0.424-0.987 c0-0.348-0.108-0.626-0.324-0.83c-0.218-0.204-0.489-0.364-0.814-0.479c-0.325-0.113-0.772-0.23-1.338-0.354 c-0.725-0.169-1.313-0.335-1.765-0.506c-0.452-0.169-0.839-0.443-1.159-0.823c-0.319-0.38-0.478-0.896-0.478-1.548 c0-0.843,0.316-1.526,0.949-2.052c0.632-0.523,1.511-0.786,2.631-0.786C663.97,322.65,664.907,322.948,665.613,323.545z"></path> <path fill="#010101" d="M678.266,328.167h-7.669c0.035,1.023,0.319,1.783,0.85,2.278c0.529,0.495,1.188,0.742,1.973,0.742 c0.687,0,1.269-0.174,1.744-0.523c0.477-0.35,0.769-0.814,0.878-1.396h2.207c-0.134,0.701-0.41,1.322-0.833,1.864 c-0.421,0.543-0.972,0.967-1.646,1.274c-0.675,0.309-1.43,0.463-2.261,0.463c-0.967,0-1.818-0.206-2.561-0.616 c-0.741-0.409-1.323-1.001-1.744-1.771c-0.424-0.772-0.632-1.684-0.632-2.732c0-1.038,0.21-1.941,0.632-2.714 c0.421-0.771,1.005-1.363,1.744-1.773c0.742-0.409,1.594-0.613,2.561-0.613c0.977,0,1.828,0.202,2.558,0.604 c0.729,0.404,1.292,0.96,1.684,1.666c0.392,0.705,0.589,1.491,0.589,2.359C678.339,327.618,678.313,327.913,678.266,328.167z M675.923,325.589c-0.248-0.439-0.586-0.765-1.013-0.976c-0.428-0.212-0.896-0.319-1.401-0.319c-0.809,0-1.484,0.25-2.026,0.743 c-0.543,0.495-0.838,1.225-0.886,2.188h5.66C676.28,326.574,676.169,326.029,675.923,325.589z"></path> <path fill="#010101" d="M686.64,323.319c0.639,0.445,1.093,1.036,1.357,1.771v-2.314h2.062v9.966h-2.062v-2.316 c-0.265,0.737-0.718,1.328-1.357,1.775c-0.639,0.445-1.41,0.669-2.315,0.669c-0.868,0-1.644-0.206-2.324-0.616 c-0.681-0.408-1.214-1.001-1.601-1.771c-0.387-0.772-0.578-1.684-0.578-2.732c0-1.038,0.191-1.941,0.578-2.714 c0.387-0.771,0.92-1.363,1.601-1.773c0.681-0.409,1.456-0.613,2.324-0.613C685.229,322.65,686.001,322.872,686.64,323.319z M682.76,325.336c-0.549,0.585-0.822,1.39-0.822,2.415c0,1.024,0.273,1.828,0.822,2.414c0.548,0.586,1.282,0.877,2.197,0.877 c0.58,0,1.098-0.135,1.556-0.406s0.821-0.653,1.085-1.148c0.266-0.493,0.399-1.074,0.399-1.736c0-0.651-0.134-1.229-0.399-1.729 c-0.264-0.499-0.627-0.886-1.085-1.157s-0.976-0.406-1.556-0.406C684.042,324.459,683.308,324.752,682.76,325.336z"></path> <path fill="#010101" d="M696.047,323.185c0.626-0.38,1.351-0.57,2.17-0.57v2.242h-0.615c-0.904,0-1.631,0.22-2.179,0.66 c-0.55,0.442-0.825,1.168-0.825,2.18v5.046h-2.061v-9.966h2.062v1.954C694.938,324.079,695.419,323.564,696.047,323.185z"></path> <path fill="#010101" d="M707.389,323.671c0.844,0.682,1.366,1.607,1.573,2.777h-2.189c-0.12-0.626-0.413-1.118-0.877-1.475 c-0.463-0.355-1.047-0.534-1.746-0.534c-0.796,0-1.458,0.282-1.988,0.843c-0.531,0.56-0.796,1.383-0.796,2.469 c0,1.085,0.265,1.912,0.796,2.479c0.53,0.565,1.192,0.85,1.988,0.85c0.701,0,1.283-0.181,1.746-0.543 c0.464-0.362,0.757-0.855,0.877-1.482h2.189c-0.207,1.168-0.729,2.099-1.573,2.785c-0.844,0.688-1.912,1.031-3.201,1.031 c-0.967,0-1.817-0.206-2.56-0.616c-0.742-0.408-1.324-1.001-1.745-1.771c-0.424-0.772-0.634-1.684-0.634-2.732 c0-1.038,0.212-1.941,0.634-2.714c0.421-0.771,1.003-1.363,1.745-1.773c0.742-0.409,1.593-0.613,2.56-0.613 C705.477,322.65,706.545,322.991,707.389,323.671z"></path> <path fill="#010101" d="M719.308,323.734c0.698,0.747,1.049,1.815,1.049,3.2v5.808h-2.062v-5.589c0-0.893-0.228-1.584-0.687-2.071 c-0.459-0.488-1.086-0.733-1.882-0.733c-0.819,0-1.477,0.263-1.972,0.786c-0.494,0.525-0.743,1.294-0.743,2.308v5.3h-2.06v-13.387 h2.06v5.607c0.267-0.747,0.712-1.324,1.34-1.736c0.628-0.408,1.352-0.614,2.171-0.614 C717.678,322.612,718.609,322.987,719.308,323.734z"></path> </g> <g> <path fill="#010101" d="M643.771,350.451c0.637,0.447,1.092,1.039,1.356,1.773v-2.316h2.062v9.967h-2.062v-2.316 c-0.265,0.736-0.718,1.327-1.356,1.774c-0.64,0.446-1.41,0.67-2.316,0.67c-0.867,0-1.644-0.206-2.324-0.616 c-0.681-0.408-1.214-1.001-1.6-1.771c-0.388-0.772-0.579-1.683-0.579-2.731c0-1.039,0.191-1.942,0.579-2.714 c0.386-0.772,0.919-1.361,1.6-1.773c0.681-0.408,1.457-0.614,2.324-0.614C642.361,349.782,643.132,350.006,643.771,350.451z M639.891,352.468c-0.55,0.586-0.822,1.392-0.822,2.416c0,1.023,0.272,1.828,0.822,2.414c0.55,0.585,1.283,0.878,2.199,0.878 c0.578,0,1.096-0.137,1.554-0.408s0.821-0.653,1.087-1.148c0.264-0.493,0.397-1.073,0.397-1.735c0-0.651-0.134-1.227-0.397-1.729 c-0.266-0.498-0.629-0.886-1.087-1.157s-0.976-0.406-1.554-0.406C641.174,351.591,640.44,351.884,639.891,352.468z"></path> <path fill="#010101" d="M658.025,350.867c0.698,0.747,1.049,1.815,1.049,3.2v5.808h-2.062v-5.59c0-0.893-0.229-1.583-0.688-2.071 s-1.085-0.731-1.881-0.731c-0.82,0-1.477,0.261-1.973,0.785c-0.493,0.525-0.742,1.294-0.742,2.307v5.301h-2.06v-9.967h2.06v2.188 c0.267-0.747,0.712-1.326,1.339-1.735c0.629-0.41,1.351-0.616,2.171-0.616C656.396,349.745,657.325,350.119,658.025,350.867z"></path> <path fill="#010101" d="M667.792,350.451c0.639,0.447,1.086,1.039,1.339,1.773v-5.733h2.08v13.386h-2.08v-2.316 c-0.253,0.736-0.7,1.325-1.339,1.772c-0.639,0.446-1.41,0.67-2.315,0.67c-0.867,0-1.644-0.204-2.324-0.614 s-1.214-1.001-1.601-1.773c-0.387-0.771-0.579-1.683-0.579-2.731c0-1.037,0.192-1.942,0.579-2.713 c0.387-0.771,0.92-1.362,1.601-1.772s1.457-0.614,2.324-0.614C666.382,349.782,667.153,350.006,667.792,350.451z M663.912,352.468 c-0.549,0.586-0.822,1.392-0.822,2.416c0,1.023,0.273,1.828,0.822,2.414c0.55,0.585,1.282,0.878,2.199,0.878 c0.578,0,1.096-0.137,1.553-0.408c0.459-0.271,0.821-0.653,1.088-1.148c0.264-0.493,0.396-1.073,0.396-1.735 c0-0.651-0.133-1.227-0.396-1.729c-0.267-0.498-0.629-0.886-1.088-1.157c-0.457-0.271-0.975-0.406-1.553-0.406 C665.194,351.591,664.462,351.884,663.912,352.468z"></path> <path fill="#010101" d="M679.984,347.105v12.77h-2.062v-12.77H679.984z"></path> <path fill="#010101" d="M690.839,350.867c0.698,0.747,1.049,1.815,1.049,3.2v5.808h-2.062v-5.59c0-0.893-0.229-1.583-0.688-2.071 s-1.086-0.731-1.881-0.731c-0.822,0-1.477,0.261-1.973,0.785c-0.495,0.525-0.742,1.294-0.742,2.307v5.301h-2.061v-9.967h2.061 v2.188c0.267-0.747,0.712-1.326,1.338-1.735c0.63-0.41,1.351-0.616,2.17-0.616C689.209,349.745,690.138,350.119,690.839,350.867z"></path> <path fill="#010101" d="M702.647,350.867c0.699,0.747,1.049,1.815,1.049,3.2v5.808h-2.06v-5.59c0-0.893-0.229-1.583-0.688-2.071 c-0.458-0.488-1.087-0.731-1.881-0.731c-0.821,0-1.479,0.261-1.972,0.785c-0.496,0.525-0.742,1.294-0.742,2.307v5.301h-2.062 v-9.967h2.062v2.188c0.266-0.747,0.709-1.326,1.338-1.735c0.627-0.41,1.352-0.616,2.17-0.616 C701.02,349.745,701.949,350.119,702.647,350.867z"></path> <path fill="#010101" d="M713.267,350.396c0.771,0.41,1.374,1.001,1.809,1.773c0.435,0.771,0.65,1.675,0.65,2.714 c0,1.049-0.216,1.959-0.65,2.731c-0.435,0.771-1.037,1.361-1.809,1.771c-0.773,0.41-1.641,0.616-2.605,0.616 c-0.964,0-1.83-0.206-2.596-0.616c-0.765-0.408-1.366-1.003-1.809-1.78c-0.44-0.779-0.659-1.687-0.659-2.723 c0-1.039,0.219-1.942,0.659-2.714c0.442-0.772,1.044-1.361,1.809-1.773c0.766-0.408,1.632-0.614,2.596-0.614 C711.626,349.782,712.496,349.988,713.267,350.396z M709.197,351.936c-0.447,0.241-0.805,0.612-1.076,1.112 c-0.271,0.499-0.408,1.111-0.408,1.836c0,0.734,0.137,1.351,0.408,1.844c0.271,0.495,0.629,0.863,1.076,1.104 c0.445,0.241,0.935,0.362,1.466,0.362c0.53,0,1.019-0.121,1.465-0.362c0.445-0.241,0.804-0.609,1.075-1.104 c0.273-0.493,0.408-1.109,0.408-1.844c0-0.725-0.135-1.337-0.408-1.836c-0.271-0.5-0.63-0.871-1.075-1.112 c-0.446-0.243-0.935-0.364-1.465-0.364C710.132,351.573,709.643,351.694,709.197,351.936z"></path> <path fill="#010101" d="M721.805,357.741l2.822-7.833h2.205l-3.799,9.967h-2.495l-3.799-9.967h2.205L721.805,357.741z"></path> <path fill="#010101" d="M734.664,350.451c0.639,0.447,1.093,1.039,1.356,1.773v-2.316h2.062v9.967h-2.062v-2.316 c-0.264,0.736-0.716,1.327-1.356,1.774c-0.639,0.446-1.41,0.67-2.314,0.67c-0.867,0-1.645-0.206-2.325-0.616 c-0.681-0.408-1.214-1.001-1.601-1.771c-0.386-0.772-0.578-1.683-0.578-2.731c0-1.039,0.192-1.942,0.578-2.714 c0.387-0.772,0.92-1.361,1.601-1.773c0.681-0.408,1.458-0.614,2.325-0.614C733.254,349.782,734.025,350.006,734.664,350.451z M730.784,352.468c-0.549,0.586-0.822,1.392-0.822,2.416c0,1.023,0.273,1.828,0.822,2.414c0.551,0.585,1.282,0.878,2.199,0.878 c0.579,0,1.096-0.137,1.554-0.408c0.459-0.271,0.821-0.653,1.085-1.148c0.267-0.493,0.398-1.073,0.398-1.735 c0-0.651-0.132-1.227-0.398-1.729c-0.264-0.498-0.626-0.886-1.085-1.157c-0.458-0.271-0.975-0.406-1.554-0.406 C732.066,351.591,731.335,351.884,730.784,352.468z"></path> <path fill="#010101" d="M745.572,358.084v1.791h-1.266c-1.062,0-1.867-0.256-2.415-0.769c-0.55-0.514-0.825-1.365-0.825-2.56 v-4.883h-1.43v-1.756h1.43v-2.478h2.081v2.478h2.407v1.756h-2.407v4.92c0,0.566,0.106,0.958,0.317,1.175s0.58,0.325,1.112,0.325 H745.572L745.572,358.084z"></path> <path fill="#010101" d="M747.581,346.147c0.24-0.229,0.559-0.345,0.958-0.345c0.398,0,0.72,0.115,0.968,0.345 c0.248,0.229,0.37,0.517,0.37,0.866s-0.124,0.633-0.37,0.85c-0.247,0.219-0.569,0.327-0.968,0.327 c-0.399,0-0.718-0.108-0.958-0.327c-0.243-0.217-0.363-0.5-0.363-0.85C747.218,346.665,747.338,346.376,747.581,346.147z M749.569,349.908v9.967h-2.061v-9.967H749.569z"></path> <path fill="#010101" d="M759.227,350.396c0.775,0.41,1.377,1.001,1.811,1.773c0.435,0.771,0.65,1.675,0.65,2.714 c0,1.049-0.216,1.959-0.65,2.731c-0.434,0.771-1.035,1.361-1.811,1.771c-0.771,0.41-1.639,0.616-2.603,0.616 c-0.967,0-1.83-0.206-2.597-0.616c-0.765-0.408-1.368-1.003-1.809-1.78c-0.439-0.779-0.661-1.687-0.661-2.723 c0-1.039,0.22-1.942,0.661-2.714c0.44-0.772,1.044-1.361,1.809-1.773c0.767-0.408,1.63-0.614,2.597-0.614 C757.588,349.782,758.456,349.988,759.227,350.396z M755.158,351.936c-0.445,0.241-0.805,0.612-1.076,1.112 c-0.271,0.499-0.405,1.111-0.405,1.836c0,0.734,0.134,1.351,0.405,1.844c0.271,0.495,0.631,0.863,1.076,1.104 s0.936,0.362,1.466,0.362c0.529,0,1.019-0.121,1.466-0.362c0.443-0.241,0.805-0.609,1.075-1.104 c0.272-0.493,0.407-1.109,0.407-1.844c0-0.725-0.135-1.337-0.407-1.836c-0.271-0.5-0.632-0.871-1.075-1.112 c-0.447-0.243-0.937-0.364-1.466-0.364C756.094,351.573,755.605,351.694,755.158,351.936z"></path> <path fill="#010101" d="M772.035,350.867c0.699,0.747,1.049,1.815,1.049,3.2v5.808h-2.062v-5.59c0-0.893-0.229-1.583-0.688-2.071 s-1.086-0.731-1.882-0.731c-0.819,0-1.477,0.261-1.971,0.785c-0.496,0.525-0.743,1.294-0.743,2.307v5.301h-2.061v-9.967h2.061 v2.188c0.265-0.747,0.711-1.326,1.34-1.735c0.627-0.41,1.351-0.616,2.17-0.616C770.405,349.745,771.335,350.119,772.035,350.867z"></path> </g> <g> <g> <defs> <rect id="SVGID_1_" x="536.489" y="110.842" width="427.321" height="2.66"></rect> </defs> <clipPath id="SVGID_2_"> <use xlink:href="#SVGID_1_" overflow="visible"></use> </clipPath> <linearGradient id="SVGID_3_" gradientUnits="userSpaceOnUse" x1="84.0278" y1="58.2729" x2="84.9473" y2="58.2729" gradientTransform="matrix(464.6052 0 0 464.6052 -38502.9219 -26961.6016)"> <stop offset="0" style="stop-color:#B93894"></stop> <stop offset="0.1094" style="stop-color:#A64596"></stop> <stop offset="0.324" style="stop-color:#81569D"></stop> <stop offset="0.5274" style="stop-color:#5F60A1"></stop> <stop offset="0.7137" style="stop-color:#3D65A4"></stop> <stop offset="0.8772" style="stop-color:#1B67A6"></stop> <stop offset="1" style="stop-color:#0168A5"></stop> </linearGradient> <rect x="536.489" y="110.842" clip-path="url(#SVGID_2_)" fill="url(#SVGID_3_)" width="427.321" height="2.66"></rect> </g> </g> </svg> 