<?xml version="1.0" encoding="utf-8"?>
<!-- Generator: Adobe Illustrator 16.0.0, SVG Export Plug-In . SVG Version: 6.00 Build 0)  -->
<!DOCTYPE svg PUBLIC "-//W3C//DTD SVG 1.1//EN" "http://www.w3.org/Graphics/SVG/1.1/DTD/svg11.dtd">
<svg version="1.1" id="Layer_1" xmlns="http://www.w3.org/2000/svg" xmlns:xlink="http://www.w3.org/1999/xlink" x="0px" y="0px"
	 width="963.875px" height="462.214px" viewBox="0 0 963.875 462.214" enable-background="new 0 0 963.875 462.214"
	 xml:space="preserve">
<g>
	<path d="M544.597,4.666c2.477,0,4.408,0.482,5.795,1.445c1.389,0.964,2.082,2.404,2.082,4.322c0,0.973-0.258,1.843-0.771,2.608
		c-0.518,0.766-1.266,1.342-2.248,1.728c1.262,0.27,2.209,0.848,2.84,1.734c0.631,0.886,0.947,1.913,0.947,3.079
		c0,2.014-0.666,3.539-1.994,4.574c-1.33,1.036-3.215,1.554-5.652,1.554h-10.348v-2.529l2.24-0.434V7.644l-2.24-0.434V4.666h2.24
		H544.597z M541.707,13.482h3.035c1.127,0,1.994-0.231,2.602-0.694c0.607-0.462,0.91-1.137,0.91-2.023
		c0-0.973-0.305-1.691-0.918-2.153c-0.611-0.462-1.523-0.694-2.738-0.694h-2.891V13.482L541.707,13.482z M541.707,16.402v6.071
		h3.889c1.117,0,1.969-0.244,2.559-0.73c0.588-0.486,0.881-1.207,0.881-2.161c0-1.031-0.25-1.819-0.752-2.363
		c-0.5-0.544-1.291-0.817-2.369-0.817H541.707z"/>
	<path d="M555.234,23.181l2.023-0.434v-9.698l-2.24-0.434v-2.543h6.172l0.188,2.283c0.367-0.809,0.838-1.44,1.416-1.893
		s1.248-0.679,2.01-0.679c0.223,0,0.455,0.017,0.701,0.05c0.246,0.034,0.451,0.075,0.613,0.123l-0.447,3.844l-1.734-0.043
		c-0.615,0-1.127,0.121-1.531,0.361c-0.404,0.241-0.713,0.583-0.926,1.026v7.603l2.023,0.434v2.529h-8.268V23.181z"/>
	<path d="M574.595,26.014c-2.254,0-4.057-0.723-5.404-2.168c-1.35-1.445-2.023-3.281-2.023-5.507v-0.578
		c0-2.322,0.639-4.235,1.916-5.738c1.275-1.503,2.988-2.25,5.137-2.24c2.111,0,3.748,0.636,4.914,1.908s1.75,2.992,1.75,5.16v2.298
		h-9.338l-0.029,0.086c0.078,1.031,0.424,1.879,1.035,2.544c0.611,0.665,1.441,0.997,2.492,0.997c0.936,0,1.711-0.094,2.326-0.282
		c0.617-0.188,1.293-0.484,2.023-0.889l1.143,2.602c-0.646,0.511-1.48,0.939-2.508,1.286
		C577.001,25.84,575.857,26.014,574.595,26.014z M574.22,13.035c-0.781,0-1.396,0.299-1.85,0.896
		c-0.453,0.598-0.732,1.383-0.84,2.356l0.045,0.072h5.174v-0.376c0-0.896-0.211-1.611-0.629-2.146
		C575.701,13.302,575.068,13.035,574.22,13.035z"/>
	<path d="M592.835,25.71c-0.115-0.26-0.217-0.527-0.303-0.802c-0.088-0.274-0.154-0.551-0.203-0.831
		c-0.5,0.578-1.111,1.046-1.828,1.402c-0.719,0.356-1.539,0.535-2.465,0.535c-1.531,0-2.748-0.417-3.648-1.25
		s-1.352-1.968-1.352-3.404c0-1.464,0.588-2.597,1.764-3.396c1.174-0.799,2.9-1.2,5.174-1.2h2.152v-1.532
		c0-0.751-0.217-1.334-0.65-1.749c-0.434-0.414-1.072-0.622-1.922-0.622c-0.48,0-0.91,0.056-1.285,0.167
		c-0.377,0.111-0.68,0.243-0.91,0.397l-0.275,1.676h-3.18l0.016-3.469c0.771-0.52,1.654-0.958,2.652-1.315
		c0.996-0.357,2.082-0.535,3.258-0.535c1.938,0,3.51,0.475,4.719,1.423c1.211,0.949,1.814,2.301,1.814,4.054v6.46
		c0,0.241,0.002,0.468,0.008,0.68c0.004,0.212,0.02,0.414,0.051,0.607l1.285,0.173v2.529h-4.871V25.71z M589.179,22.892
		c0.637,0,1.213-0.137,1.734-0.412c0.52-0.274,0.924-0.619,1.213-1.033v-2.385h-2.152c-0.896,0-1.574,0.209-2.039,0.629
		c-0.461,0.419-0.691,0.922-0.691,1.51c0,0.53,0.17,0.944,0.512,1.243C588.097,22.742,588.572,22.892,589.179,22.892z"/>
	<path d="M598.689,5.707V3.163h6.461v13.065h0.938l2.43-3.425l-1.373-0.188v-2.543h7.688v2.543l-1.85,0.419l-2.818,3.873l3.945,5.94
		l1.604,0.333v2.529h-7.227V23.18l0.867-0.145l-2.398-3.874h-1.807v3.584l1.82,0.434v2.529h-8.064v-2.529l2.037-0.434V6.14
		L598.689,5.707z"/>
	<path d="M627.099,23.802c-0.492,0.723-1.072,1.272-1.742,1.647c-0.67,0.376-1.434,0.564-2.291,0.564
		c-1.928,0-3.424-0.704-4.486-2.11c-1.064-1.406-1.598-3.267-1.598-5.579v-0.303c0-2.467,0.533-4.457,1.604-5.969
		c1.07-1.513,2.574-2.269,4.51-2.269c0.781,0,1.484,0.171,2.111,0.513c0.625,0.342,1.176,0.827,1.646,1.453V6.14l-2.256-0.434V3.163
		h2.256h4.221v19.584l2.023,0.434v2.529h-5.682L627.099,23.802z M621.201,18.324c0,1.369,0.229,2.445,0.688,3.23
		c0.457,0.786,1.207,1.178,2.248,1.178c0.615,0,1.15-0.125,1.604-0.375s0.824-0.612,1.113-1.084v-6.634
		c-0.289-0.501-0.656-0.889-1.105-1.164c-0.447-0.274-0.977-0.412-1.582-0.412c-1.031,0-1.783,0.458-2.256,1.373
		c-0.473,0.916-0.707,2.11-0.707,3.584v0.304H621.201z"/>
	<path d="M634.439,17.746c0-2.332,0.652-4.242,1.959-5.73c1.307-1.488,3.109-2.233,5.412-2.233c2.312,0,4.121,0.742,5.428,2.226
		c1.307,1.484,1.959,3.396,1.959,5.738v0.304c0,2.351-0.652,4.266-1.959,5.745s-3.105,2.219-5.398,2.219
		c-2.322,0-4.135-0.74-5.439-2.219c-1.307-1.479-1.959-3.394-1.959-5.745v-0.305H634.439z M638.66,18.05
		c0,1.426,0.25,2.57,0.752,3.433c0.502,0.862,1.311,1.293,2.428,1.293c1.09,0,1.887-0.434,2.393-1.301
		c0.506-0.867,0.76-2.009,0.76-3.425v-0.304c0-1.387-0.256-2.52-0.768-3.396c-0.51-0.876-1.314-1.315-2.414-1.315
		c-1.098,0-1.896,0.438-2.396,1.315c-0.502,0.877-0.752,2.009-0.752,3.396v0.304H638.66z"/>
	<path d="M673.32,12.615l-1.576,0.203l-3.268,12.892h-3.525l-2.904-9.308h-0.088l-2.904,9.308h-3.512l-3.281-12.892l-1.576-0.203
		v-2.543h7.082v2.543l-1.662,0.318l1.477,7.155h0.086l2.92-10.016h2.832l2.949,10.045h0.086l1.461-7.169l-1.678-0.333v-2.543h7.082
		V12.615L673.32,12.615z"/>
	<path d="M674.535,23.181l2.021-0.434v-9.698l-2.238-0.434v-2.543h6.17l0.188,2.24c0.521-0.8,1.162-1.421,1.922-1.865
		c0.762-0.443,1.615-0.665,2.561-0.665c1.58,0,2.812,0.496,3.699,1.488c0.887,0.993,1.328,2.549,1.328,4.668v6.808l2.023,0.434
		v2.529h-8.064V23.18l1.809-0.434v-6.793c0-1.05-0.213-1.794-0.637-2.233c-0.426-0.438-1.064-0.658-1.924-0.658
		c-0.559,0-1.059,0.113-1.502,0.339c-0.443,0.227-0.814,0.547-1.113,0.961v8.383l1.707,0.434v2.529h-7.949V23.181L674.535,23.181z"
		/>
	<path d="M700.81,17.746c0-2.332,0.652-4.242,1.959-5.73c1.307-1.488,3.109-2.233,5.412-2.233c2.312,0,4.121,0.742,5.428,2.226
		c1.307,1.484,1.959,3.396,1.959,5.738v0.304c0,2.351-0.652,4.266-1.959,5.745s-3.105,2.219-5.398,2.219
		c-2.322,0-4.135-0.74-5.441-2.219c-1.305-1.479-1.959-3.394-1.959-5.745V17.746L700.81,17.746z M705.031,18.05
		c0,1.426,0.25,2.57,0.752,3.433c0.5,0.862,1.309,1.293,2.428,1.293c1.088,0,1.885-0.434,2.391-1.301
		c0.508-0.867,0.76-2.009,0.76-3.425v-0.304c0-1.387-0.254-2.52-0.766-3.396s-1.314-1.315-2.414-1.315
		c-1.098,0-1.896,0.438-2.398,1.315s-0.752,2.009-0.752,3.396V18.05L705.031,18.05z"/>
	<path d="M717.632,23.181l2.039-0.434v-9.712h-2.328v-2.963h2.328V8.337c0-1.754,0.506-3.105,1.518-4.054
		c1.012-0.949,2.434-1.424,4.264-1.424c0.355,0,0.721,0.027,1.092,0.08s0.777,0.128,1.221,0.224l-0.359,3.136
		c-0.232-0.039-0.455-0.072-0.672-0.101c-0.219-0.029-0.471-0.043-0.76-0.043c-0.686,0-1.203,0.188-1.555,0.562
		c-0.352,0.376-0.527,0.916-0.527,1.619v1.734H727v2.963h-3.107v9.712l2.037,0.434v2.529h-8.295v-2.528H717.632z"/>
	<path d="M745.021,4.666c2.391,0,4.264,0.547,5.621,1.641c1.359,1.094,2.039,2.604,2.039,4.531c0,1.06-0.283,1.98-0.854,2.761
		c-0.568,0.781-1.402,1.412-2.5,1.894c1.242,0.366,2.137,0.976,2.682,1.828c0.543,0.853,0.816,1.91,0.816,3.172v1.07
		c0,0.462,0.092,0.821,0.273,1.077c0.184,0.255,0.486,0.407,0.91,0.455l0.521,0.072v2.544h-2.184c-1.377,0-2.346-0.371-2.904-1.113
		c-0.559-0.742-0.84-1.701-0.84-2.876v-1.199c0-1.021-0.27-1.824-0.814-2.407s-1.312-0.889-2.305-0.918h-3.455v5.55l2.254,0.434
		v2.529h-8.715v-2.529l2.24-0.434V7.644l-2.24-0.434V4.666h2.24H745.021z M742.029,13.945h2.92c1.176,0,2.059-0.25,2.645-0.751
		c0.588-0.501,0.883-1.224,0.883-2.168s-0.291-1.698-0.875-2.262c-0.582-0.564-1.441-0.846-2.58-0.846h-2.99v6.027H742.029z"/>
	<path d="M763.507,26.014c-2.254,0-4.057-0.723-5.404-2.168c-1.35-1.445-2.023-3.281-2.023-5.507v-0.578
		c0-2.322,0.639-4.235,1.916-5.738c1.275-1.503,2.988-2.25,5.137-2.24c2.111,0,3.748,0.636,4.914,1.908s1.75,2.992,1.75,5.16v2.298
		h-9.338l-0.029,0.086c0.078,1.031,0.422,1.879,1.035,2.544c0.611,0.665,1.441,0.997,2.492,0.997c0.936,0,1.711-0.094,2.326-0.282
		c0.617-0.188,1.293-0.484,2.023-0.889l1.143,2.602c-0.646,0.511-1.48,0.939-2.508,1.286
		C765.914,25.84,764.769,26.014,763.507,26.014z M763.132,13.035c-0.781,0-1.396,0.299-1.85,0.896
		c-0.453,0.598-0.732,1.383-0.84,2.356l0.045,0.072h5.174v-0.376c0-0.896-0.211-1.611-0.629-2.146
		C764.613,13.302,763.978,13.035,763.132,13.035z"/>
	<path d="M778.246,12.615l-1.475,0.275l2.066,6.995l0.275,1.474h0.086l0.303-1.474l2.039-6.981l-1.504-0.289v-2.543h7.098v2.543
		l-1.357,0.217l-4.611,12.878h-4.033l-4.625-12.878l-1.357-0.217v-2.543h7.098v2.543H778.246z"/>
	<path d="M795.789,26.014c-2.256,0-4.057-0.723-5.406-2.168c-1.35-1.445-2.021-3.281-2.021-5.507v-0.578
		c0-2.322,0.637-4.235,1.914-5.738c1.275-1.503,2.988-2.25,5.139-2.24c2.109,0,3.748,0.636,4.914,1.908s1.748,2.992,1.748,5.16
		v2.298h-9.336l-0.029,0.086c0.076,1.031,0.422,1.879,1.033,2.544c0.611,0.665,1.441,0.997,2.494,0.997
		c0.934,0,1.709-0.094,2.324-0.282c0.617-0.188,1.293-0.484,2.023-0.889l1.143,2.602c-0.645,0.511-1.48,0.939-2.508,1.286
		C798.195,25.84,797.05,26.014,795.789,26.014z M795.412,13.035c-0.779,0-1.396,0.299-1.85,0.896
		c-0.453,0.598-0.732,1.383-0.84,2.356l0.045,0.072h5.174v-0.376c0-0.896-0.209-1.611-0.629-2.146
		C796.894,13.302,796.259,13.035,795.412,13.035z"/>
	<path d="M803.839,23.181l2.023-0.434v-9.698l-2.24-0.434v-2.543h6.17l0.189,2.24c0.52-0.8,1.16-1.421,1.922-1.865
		c0.76-0.443,1.613-0.665,2.559-0.665c1.58,0,2.812,0.496,3.699,1.488c0.887,0.993,1.33,2.549,1.33,4.668v6.808l2.021,0.434v2.529
		h-8.062V23.18l1.807-0.434v-6.793c0-1.05-0.213-1.794-0.637-2.233c-0.424-0.438-1.064-0.658-1.922-0.658
		c-0.561,0-1.061,0.113-1.504,0.339c-0.443,0.227-0.814,0.547-1.113,0.961v8.383l1.707,0.434v2.529h-7.949V23.181L803.839,23.181z"
		/>
	<path d="M833.8,23.73c-0.502,0.732-1.121,1.296-1.857,1.691s-1.576,0.593-2.521,0.593c-1.646,0-2.938-0.528-3.873-1.583
		c-0.936-1.055-1.402-2.695-1.402-4.921v-6.461l-1.721-0.434v-2.543h1.721h4.221v9.467c0,1.137,0.189,1.954,0.57,2.45
		c0.383,0.497,0.947,0.744,1.699,0.744c0.664,0,1.24-0.108,1.727-0.325c0.486-0.217,0.885-0.527,1.191-0.932V13.05l-1.85-0.434
		v-2.543h1.85h4.223v12.675l1.893,0.434v2.529h-5.594L833.8,23.73z"/>
	<path d="M848.816,26.014c-2.256,0-4.057-0.723-5.404-2.168c-1.352-1.445-2.023-3.281-2.023-5.507v-0.578
		c0-2.322,0.639-4.235,1.914-5.738c1.277-1.503,2.99-2.25,5.139-2.24c2.109,0,3.748,0.636,4.914,1.908s1.748,2.992,1.748,5.16v2.298
		h-9.336l-0.029,0.086c0.078,1.031,0.422,1.879,1.033,2.544c0.611,0.665,1.443,0.997,2.494,0.997c0.936,0,1.709-0.094,2.326-0.282
		s1.291-0.484,2.023-0.889l1.143,2.602c-0.646,0.511-1.48,0.939-2.508,1.286C851.222,25.84,850.078,26.014,848.816,26.014z
		 M848.441,13.035c-0.781,0-1.398,0.299-1.852,0.896c-0.453,0.598-0.73,1.383-0.838,2.356l0.043,0.072h5.174v-0.376
		c0-0.896-0.209-1.611-0.629-2.146C849.921,13.302,849.289,13.035,848.441,13.035z"/>
</g>
<g>
	<path fill="#B83594" d="M560.115,101.748c0,1.819-0.484,3.429-1.451,4.83c-0.969,1.402-2.295,2.495-3.98,3.279
		c1.938,0.818,3.463,1.986,4.58,3.504c1.119,1.519,1.678,3.254,1.678,5.206c0,3.371-1.143,5.961-3.43,7.771
		c-2.285,1.81-5.271,2.715-8.959,2.715c-3.705,0-6.705-0.905-8.998-2.715c-2.295-1.81-3.441-4.401-3.441-7.771
		c0-1.969,0.555-3.708,1.664-5.218c1.109-1.51,2.633-2.674,4.568-3.492c-1.703-0.784-3.027-1.877-3.979-3.279
		c-0.951-1.401-1.428-3.011-1.428-4.83c0-3.237,1.061-5.744,3.18-7.521s4.914-2.666,8.385-2.666c3.469,0,6.273,0.889,8.408,2.666
		C559.046,96.003,560.115,98.51,560.115,101.748z M553.658,118.066c0-1.635-0.48-2.945-1.439-3.93
		c-0.959-0.984-2.199-1.477-3.717-1.477s-2.744,0.493-3.68,1.477c-0.936,0.985-1.4,2.294-1.4,3.93c0,1.668,0.467,2.983,1.4,3.942
		c0.936,0.96,2.178,1.439,3.729,1.439c1.52,0,2.75-0.484,3.691-1.452C553.183,121.027,553.658,119.718,553.658,118.066z
		 M552.806,102.073c0-1.468-0.387-2.649-1.164-3.542c-0.773-0.893-1.822-1.339-3.141-1.339c-1.336,0-2.373,0.438-3.115,1.314
		c-0.744,0.876-1.115,2.064-1.115,3.566c0,1.519,0.377,2.724,1.129,3.617c0.75,0.893,1.801,1.339,3.152,1.339
		c1.316,0,2.355-0.446,3.115-1.339C552.427,104.797,552.806,103.591,552.806,102.073z"/>
	<path fill="#B83594" d="M571.878,107.204h4.105c1.734,0,3.02-0.455,3.854-1.364c0.834-0.909,1.25-2.173,1.25-3.792
		c0-1.468-0.416-2.645-1.25-3.529c-0.836-0.884-2.045-1.327-3.629-1.327c-1.369,0-2.521,0.401-3.455,1.202
		c-0.934,0.801-1.4,1.852-1.4,3.153h-7.084l-0.051-0.15c-0.1-2.854,0.994-5.206,3.279-7.058s5.123-2.778,8.51-2.778
		c3.771,0,6.779,0.901,9.023,2.703c2.244,1.802,3.365,4.372,3.365,7.709c0,1.585-0.5,3.091-1.502,4.518
		c-1.002,1.427-2.379,2.541-4.131,3.341c2.021,0.718,3.561,1.819,4.619,3.304c1.061,1.485,1.588,3.212,1.588,5.181
		c0,3.337-1.213,5.961-3.641,7.871c-2.428,1.911-5.535,2.866-9.322,2.866c-3.389,0-6.295-0.896-8.723-2.69
		c-2.43-1.793-3.602-4.326-3.518-7.596l0.049-0.15h7.084c0,1.401,0.5,2.557,1.502,3.466c1.002,0.91,2.27,1.364,3.805,1.364
		c1.686,0,3.016-0.467,3.992-1.402c0.977-0.934,1.465-2.203,1.465-3.804c0-1.918-0.48-3.325-1.439-4.217
		c-0.961-0.893-2.375-1.339-4.242-1.339h-4.104V107.204L571.878,107.204z"/>
</g>
<g>
	<path fill="#B83594" d="M590.888,94.299c0-1.255,0.406-2.3,1.221-3.137c0.811-0.836,1.941-1.255,3.393-1.255
		c1.469,0,2.605,0.416,3.414,1.248c0.807,0.832,1.211,1.88,1.211,3.145v1.124c0,1.255-0.404,2.296-1.211,3.123
		c-0.809,0.827-1.938,1.24-3.385,1.24c-1.461,0-2.6-0.413-3.416-1.24s-1.227-1.868-1.227-3.123V94.299z M593.72,95.423
		c0,0.564,0.154,1.039,0.467,1.423c0.312,0.384,0.76,0.576,1.344,0.576c0.562,0,1-0.192,1.311-0.576
		c0.312-0.384,0.469-0.858,0.469-1.423v-1.124c0-0.564-0.158-1.043-0.475-1.438c-0.318-0.395-0.762-0.591-1.336-0.591
		s-1.014,0.197-1.32,0.591s-0.459,0.874-0.459,1.438V95.423z M596.74,109.869l-2.072-1.095l10.375-16.605l2.072,1.094
		L596.74,109.869z M601.044,106.25c0-1.245,0.408-2.286,1.227-3.123c0.816-0.836,1.949-1.255,3.398-1.255
		c1.459,0,2.596,0.416,3.408,1.248c0.811,0.832,1.219,1.875,1.219,3.13v1.124c0,1.265-0.404,2.31-1.211,3.137
		c-0.809,0.827-1.938,1.24-3.387,1.24c-1.459,0-2.6-0.416-3.422-1.248s-1.232-1.875-1.232-3.13V106.25z M603.875,107.374
		c0,0.554,0.168,1.028,0.504,1.422s0.775,0.591,1.32,0.591c0.633,0,1.086-0.183,1.357-0.547c0.271-0.365,0.408-0.854,0.408-1.466
		v-1.124c0-0.555-0.156-1.029-0.467-1.423c-0.312-0.394-0.754-0.591-1.328-0.591c-0.584,0-1.029,0.197-1.336,0.591
		s-0.459,0.868-0.459,1.423V107.374L603.875,107.374z"/>
</g>
<g>
	<path d="M646.115,89.454c1.102,0.813,1.828,1.921,2.184,3.324h-2.359c-0.303-0.748-0.797-1.344-1.484-1.79
		c-0.688-0.445-1.506-0.668-2.449-0.668c-0.865,0-1.643,0.204-2.33,0.609c-0.688,0.407-1.227,0.983-1.611,1.731
		c-0.389,0.747-0.58,1.626-0.58,2.635c0,1.062,0.195,1.974,0.59,2.734c0.395,0.76,0.947,1.34,1.66,1.74
		c0.715,0.4,1.545,0.6,2.488,0.6c1.152,0,2.145-0.357,2.971-1.072c0.826-0.715,1.324-1.695,1.494-2.94h-5.094v-1.652h6.98v2.144
		c-0.156,1.022-0.52,1.95-1.092,2.783c-0.57,0.833-1.324,1.498-2.262,1.996c-0.938,0.499-2.01,0.748-3.215,0.748
		c-1.352,0-2.545-0.301-3.58-0.905c-1.035-0.603-1.836-1.438-2.398-2.507c-0.564-1.068-0.846-2.292-0.846-3.668
		s0.281-2.599,0.846-3.668c0.562-1.068,1.359-1.901,2.389-2.498c1.029-0.596,2.219-0.895,3.57-0.895
		C643.636,88.234,645.013,88.641,646.115,89.454z"/>
	<path d="M658.623,91.932c0.84,0.446,1.494,1.088,1.967,1.927c0.473,0.839,0.707,1.822,0.707,2.95c0,1.141-0.234,2.131-0.707,2.97
		c-0.473,0.839-1.127,1.482-1.967,1.928c-0.84,0.446-1.783,0.668-2.832,0.668s-1.99-0.223-2.822-0.668
		c-0.832-0.446-1.486-1.092-1.967-1.938c-0.479-0.846-0.717-1.832-0.717-2.96c0-1.127,0.238-2.11,0.717-2.95
		c0.48-0.839,1.135-1.481,1.967-1.927c0.832-0.446,1.773-0.669,2.822-0.669S657.783,91.486,658.623,91.932z M654.197,93.604
		c-0.484,0.263-0.875,0.666-1.17,1.209c-0.295,0.544-0.441,1.209-0.441,1.996c0,0.8,0.146,1.469,0.441,2.006s0.686,0.938,1.17,1.2
		c0.486,0.262,1.018,0.393,1.594,0.393s1.107-0.131,1.594-0.393c0.484-0.262,0.875-0.662,1.17-1.2s0.441-1.206,0.441-2.006
		c0-0.787-0.146-1.452-0.441-1.996s-0.686-0.947-1.17-1.209s-1.018-0.393-1.594-0.393C655.214,93.21,654.683,93.341,654.197,93.604z
		"/>
	<path d="M667.906,99.917l3.068-8.516h2.396l-4.129,10.836h-2.715l-4.129-10.836h2.398L667.906,99.917z"/>
	<path d="M685.015,97.262h-8.34c0.039,1.114,0.35,1.94,0.926,2.478c0.576,0.538,1.291,0.806,2.145,0.806
		c0.746,0,1.379-0.19,1.896-0.57s0.836-0.885,0.953-1.514h2.4c-0.145,0.76-0.447,1.436-0.904,2.025
		c-0.461,0.59-1.057,1.052-1.791,1.387c-0.732,0.335-1.553,0.501-2.457,0.501c-1.051,0-1.977-0.223-2.783-0.668
		s-1.439-1.088-1.896-1.928c-0.461-0.839-0.688-1.829-0.688-2.97c0-1.127,0.229-2.11,0.688-2.95c0.457-0.839,1.09-1.481,1.896-1.927
		c0.807-0.446,1.732-0.669,2.783-0.669c1.062,0,1.988,0.22,2.781,0.659s1.404,1.042,1.83,1.809s0.639,1.623,0.639,2.566
		C685.093,96.665,685.068,96.986,685.015,97.262z M682.468,94.459c-0.268-0.479-0.635-0.833-1.102-1.062
		c-0.465-0.229-0.973-0.344-1.523-0.344c-0.879,0-1.611,0.27-2.201,0.807c-0.592,0.538-0.912,1.331-0.965,2.379h6.156
		C682.859,95.531,682.738,94.938,682.468,94.459z"/>
	<path d="M691.072,91.843c0.682-0.413,1.469-0.619,2.361-0.619v2.438h-0.67c-0.982,0-1.773,0.239-2.369,0.718
		c-0.598,0.479-0.896,1.269-0.896,2.37v5.487h-2.24V91.401h2.24v2.124C689.867,92.817,690.39,92.256,691.072,91.843z"/>
	<path d="M704.191,92.443c0.76,0.813,1.141,1.973,1.141,3.481v6.313h-2.242V96.16c0-0.97-0.25-1.721-0.748-2.251
		c-0.498-0.531-1.18-0.797-2.045-0.797c-0.893,0-1.605,0.285-2.145,0.855c-0.537,0.57-0.807,1.406-0.807,2.508v5.762h-2.24V91.401
		h2.24v2.38c0.289-0.813,0.773-1.442,1.455-1.888c0.684-0.445,1.469-0.668,2.359-0.668C702.419,91.224,703.429,91.63,704.191,92.443
		z"/>
	<path d="M724.574,92.443c0.768,0.813,1.15,1.973,1.15,3.481v6.313h-2.242V96.16c0-0.944-0.236-1.675-0.707-2.193
		c-0.473-0.518-1.121-0.777-1.947-0.777c-0.879,0-1.576,0.279-2.094,0.836c-0.52,0.558-0.777,1.374-0.777,2.449v5.762h-2.242V96.16
		c0-0.944-0.234-1.675-0.709-2.193c-0.471-0.518-1.119-0.777-1.945-0.777c-0.879,0-1.576,0.279-2.096,0.836
		c-0.518,0.558-0.775,1.374-0.775,2.449v5.762h-2.242V91.401h2.242v2.262c0.273-0.787,0.732-1.39,1.377-1.809
		c0.643-0.42,1.395-0.629,2.262-0.629c0.904,0,1.688,0.223,2.352,0.668c0.66,0.446,1.143,1.088,1.443,1.927
		c0.314-0.812,0.82-1.448,1.516-1.908c0.693-0.458,1.48-0.688,2.359-0.688C722.781,91.224,723.806,91.63,724.574,92.443z"/>
	<path d="M738.332,97.262h-8.34c0.039,1.114,0.348,1.94,0.926,2.478c0.576,0.538,1.291,0.806,2.145,0.806
		c0.746,0,1.379-0.19,1.896-0.57s0.836-0.885,0.953-1.514h2.4c-0.146,0.76-0.447,1.436-0.904,2.025
		c-0.461,0.59-1.057,1.052-1.791,1.387s-1.553,0.501-2.457,0.501c-1.051,0-1.977-0.223-2.783-0.668s-1.439-1.088-1.896-1.928
		c-0.461-0.839-0.689-1.829-0.689-2.97c0-1.127,0.23-2.11,0.689-2.95c0.457-0.839,1.09-1.481,1.896-1.927
		c0.805-0.446,1.732-0.669,2.783-0.669c1.061,0,1.988,0.22,2.781,0.659s1.402,1.042,1.83,1.809c0.426,0.767,0.639,1.623,0.639,2.566
		C738.41,96.665,738.384,96.986,738.332,97.262z M735.785,94.459c-0.27-0.479-0.637-0.833-1.102-1.062
		c-0.467-0.229-0.975-0.344-1.523-0.344c-0.879,0-1.613,0.27-2.203,0.807c-0.59,0.538-0.912,1.331-0.965,2.379h6.156
		C736.173,95.531,736.052,94.938,735.785,94.459z"/>
	<path d="M749.66,92.443c0.76,0.813,1.141,1.973,1.141,3.481v6.313h-2.242V96.16c0-0.97-0.248-1.721-0.746-2.251
		c-0.5-0.531-1.182-0.797-2.047-0.797c-0.893,0-1.605,0.285-2.145,0.855c-0.537,0.57-0.807,1.406-0.807,2.508v5.762h-2.24V91.401
		h2.24v2.38c0.289-0.813,0.773-1.442,1.457-1.888c0.682-0.445,1.467-0.668,2.357-0.668C747.888,91.224,748.898,91.63,749.66,92.443z
		"/>
	<path d="M758.863,100.291v1.947h-1.377c-1.152,0-2.027-0.278-2.625-0.836c-0.596-0.557-0.896-1.485-0.896-2.783v-5.31h-1.553
		v-1.908h1.553v-2.694h2.264v2.694h2.615v1.908h-2.615v5.35c0,0.616,0.113,1.042,0.344,1.278c0.229,0.236,0.633,0.354,1.209,0.354
		H758.863z"/>
	<path d="M773.769,88.353v1.81h-5.959v4.307h4.918v1.73h-4.918v6.038h-2.24V88.353H773.769z"/>
	<path d="M785.767,91.401v10.836h-2.264v-2.36c-0.273,0.8-0.754,1.419-1.436,1.858s-1.475,0.659-2.379,0.659
		c-1.26,0-2.27-0.406-3.029-1.219s-1.141-1.973-1.141-3.481v-6.293h2.242v6.058c0,0.983,0.248,1.74,0.746,2.271
		s1.182,0.796,2.045,0.796c0.893,0,1.607-0.288,2.145-0.865c0.539-0.577,0.807-1.416,0.807-2.518V91.4L785.767,91.401
		L785.767,91.401z"/>
	<path d="M797.546,92.443c0.762,0.813,1.143,1.973,1.143,3.481v6.313h-2.242V96.16c0-0.97-0.25-1.721-0.748-2.251
		c-0.498-0.531-1.18-0.797-2.045-0.797c-0.893,0-1.607,0.285-2.145,0.855c-0.539,0.57-0.807,1.406-0.807,2.508v5.762h-2.242V91.401
		h2.242v2.38c0.289-0.813,0.773-1.442,1.455-1.888c0.682-0.445,1.469-0.668,2.359-0.668
		C795.777,91.224,796.787,91.63,797.546,92.443z"/>
	<path d="M808.167,91.991c0.693,0.485,1.18,1.128,1.455,1.928v-6.234h2.262v14.553h-2.262V99.72c-0.275,0.8-0.762,1.443-1.455,1.928
		c-0.695,0.485-1.535,0.728-2.518,0.728c-0.943,0-1.787-0.223-2.527-0.668c-0.74-0.446-1.32-1.088-1.74-1.928
		c-0.42-0.839-0.629-1.829-0.629-2.97c0-1.127,0.209-2.11,0.629-2.95c0.42-0.839,1-1.481,1.74-1.927
		c0.74-0.446,1.584-0.669,2.527-0.669C806.632,91.263,807.472,91.506,808.167,91.991z M803.949,94.184
		c-0.598,0.636-0.896,1.511-0.896,2.625c0,1.115,0.299,1.99,0.896,2.625c0.596,0.636,1.393,0.954,2.389,0.954
		c0.631,0,1.193-0.147,1.691-0.442c0.498-0.295,0.893-0.711,1.18-1.249c0.289-0.538,0.434-1.167,0.434-1.888
		c0-0.708-0.145-1.334-0.434-1.878c-0.287-0.544-0.682-0.964-1.18-1.259s-1.062-0.442-1.691-0.442
		C805.341,93.23,804.544,93.548,803.949,94.184z"/>
	<path d="M814.656,87.31c0.264-0.249,0.609-0.374,1.043-0.374s0.783,0.125,1.053,0.374c0.27,0.25,0.402,0.564,0.402,0.944
		s-0.135,0.688-0.402,0.924c-0.27,0.236-0.619,0.354-1.053,0.354s-0.779-0.118-1.043-0.354c-0.262-0.236-0.393-0.544-0.393-0.924
		S814.394,87.56,814.656,87.31z M816.82,91.401v10.836h-2.242V91.401H816.82z"/>
	<path d="M828.621,92.443c0.76,0.813,1.141,1.973,1.141,3.481v6.313h-2.242V96.16c0-0.97-0.248-1.721-0.746-2.251
		c-0.5-0.531-1.182-0.797-2.047-0.797c-0.893,0-1.605,0.285-2.145,0.855c-0.537,0.57-0.807,1.406-0.807,2.508v5.762h-2.24V91.401
		h2.24v2.38c0.289-0.813,0.773-1.442,1.457-1.888c0.682-0.445,1.467-0.668,2.357-0.668C826.849,91.224,827.859,91.63,828.621,92.443
		z"/>
	<path d="M839.24,91.991c0.695,0.485,1.188,1.128,1.475,1.928v-2.518h2.242v10.955c0,1.009-0.205,1.904-0.619,2.685
		c-0.412,0.78-1.006,1.393-1.779,1.838c-0.773,0.445-1.691,0.669-2.754,0.669c-1.52,0-2.75-0.361-3.688-1.082
		c-0.938-0.721-1.523-1.698-1.76-2.931h2.223c0.184,0.643,0.537,1.144,1.062,1.505c0.521,0.36,1.191,0.541,2.006,0.541
		c0.891,0,1.625-0.275,2.201-0.826c0.576-0.551,0.865-1.351,0.865-2.399V99.72c-0.289,0.8-0.779,1.443-1.475,1.928
		s-1.535,0.728-2.518,0.728c-0.943,0-1.787-0.223-2.527-0.668c-0.74-0.446-1.32-1.088-1.74-1.928
		c-0.42-0.839-0.629-1.829-0.629-2.97c0-1.127,0.209-2.11,0.629-2.95c0.42-0.839,1-1.481,1.74-1.927
		c0.74-0.446,1.584-0.669,2.527-0.669C837.707,91.263,838.544,91.506,839.24,91.991z M835.021,94.184
		c-0.598,0.636-0.895,1.511-0.895,2.625c0,1.115,0.297,1.99,0.895,2.625c0.598,0.636,1.395,0.954,2.391,0.954
		c0.629,0,1.193-0.147,1.691-0.442c0.498-0.295,0.891-0.711,1.18-1.249c0.287-0.538,0.432-1.167,0.432-1.888
		c0-0.708-0.145-1.334-0.432-1.878c-0.289-0.544-0.682-0.964-1.18-1.259s-1.062-0.442-1.691-0.442
		C836.416,93.23,835.619,93.548,835.021,94.184z"/>
</g>
<g>
	<path d="M643.833,117.853v1.81h-5.959v4.307h4.916v1.731h-4.916v6.038h-2.242v-13.885L643.833,117.853L643.833,117.853z"/>
	<path d="M653.626,121.432c0.84,0.446,1.496,1.088,1.967,1.927c0.475,0.839,0.709,1.822,0.709,2.95c0,1.141-0.234,2.131-0.709,2.97
		c-0.471,0.839-1.127,1.482-1.967,1.928c-0.838,0.446-1.783,0.668-2.83,0.668c-1.051,0-1.99-0.223-2.822-0.668
		c-0.832-0.446-1.488-1.092-1.967-1.938s-0.719-1.832-0.719-2.96c0-1.127,0.238-2.11,0.719-2.95
		c0.479-0.839,1.135-1.481,1.967-1.927c0.832-0.446,1.771-0.669,2.822-0.669C651.843,120.763,652.789,120.986,653.626,121.432z
		 M649.203,123.104c-0.486,0.263-0.875,0.666-1.17,1.209c-0.295,0.544-0.443,1.209-0.443,1.996c0,0.8,0.148,1.469,0.443,2.006
		s0.684,0.938,1.17,1.2c0.484,0.262,1.018,0.393,1.594,0.393s1.107-0.131,1.594-0.393c0.482-0.262,0.875-0.662,1.17-1.2
		s0.441-1.206,0.441-2.006c0-0.787-0.146-1.452-0.441-1.996s-0.688-0.947-1.17-1.209c-0.486-0.262-1.018-0.393-1.594-0.393
		C650.218,122.71,649.687,122.841,649.203,123.104z"/>
	<path d="M662.281,121.343c0.682-0.413,1.469-0.619,2.359-0.619v2.438h-0.668c-0.984,0-1.773,0.239-2.369,0.718
		c-0.598,0.479-0.896,1.269-0.896,2.37v5.487h-2.242v-10.836h2.242v2.124C661.074,122.317,661.599,121.756,662.281,121.343z"/>
	<path d="M680.835,118.58c1.043,0.604,1.861,1.446,2.459,2.527s0.895,2.304,0.895,3.668c0,1.364-0.297,2.586-0.895,3.668
		s-1.416,1.927-2.459,2.537s-2.205,0.915-3.49,0.915c-1.299,0-2.469-0.305-3.512-0.915c-1.041-0.609-1.865-1.455-2.467-2.537
		c-0.605-1.082-0.906-2.304-0.906-3.668c0-1.364,0.303-2.586,0.906-3.668c0.602-1.082,1.426-1.924,2.467-2.527
		c1.043-0.603,2.213-0.904,3.512-0.904C678.63,117.676,679.792,117.978,680.835,118.58z M674.964,120.37
		c-0.693,0.406-1.234,0.99-1.621,1.75c-0.387,0.761-0.58,1.646-0.58,2.655c0,1.009,0.193,1.895,0.58,2.655
		c0.387,0.761,0.928,1.344,1.621,1.75c0.695,0.407,1.488,0.61,2.381,0.61c0.879,0,1.662-0.203,2.352-0.61
		c0.688-0.406,1.225-0.99,1.611-1.75c0.387-0.76,0.58-1.645,0.58-2.655c0-1.01-0.193-1.895-0.58-2.655
		c-0.387-0.76-0.926-1.344-1.611-1.75c-0.689-0.406-1.473-0.61-2.352-0.61C676.453,119.76,675.66,119.964,674.964,120.37z"/>
	<path d="M695.193,121.432c0.74,0.446,1.32,1.088,1.74,1.927c0.42,0.839,0.629,1.822,0.629,2.95c0,1.141-0.209,2.131-0.629,2.97
		c-0.42,0.839-1,1.482-1.74,1.928c-0.74,0.446-1.584,0.668-2.527,0.668c-0.982,0-1.822-0.243-2.518-0.728s-1.182-1.127-1.455-1.928
		v7.67h-2.242V120.9h2.242v2.518c0.273-0.8,0.76-1.442,1.455-1.928c0.693-0.485,1.533-0.728,2.518-0.728
		C693.609,120.763,694.453,120.986,695.193,121.432z M690.287,123.172c-0.5,0.295-0.893,0.715-1.182,1.259
		c-0.287,0.544-0.434,1.17-0.434,1.878c0,0.721,0.146,1.351,0.434,1.888c0.289,0.537,0.682,0.954,1.182,1.249
		c0.498,0.295,1.062,0.442,1.691,0.442c0.996,0,1.795-0.318,2.396-0.954c0.605-0.636,0.906-1.511,0.906-2.625
		c0-1.101-0.303-1.973-0.906-2.615c-0.602-0.643-1.4-0.964-2.396-0.964C691.347,122.73,690.785,122.877,690.287,123.172z"/>
	<path d="M709.716,126.762h-8.34c0.039,1.114,0.35,1.94,0.926,2.478c0.576,0.538,1.291,0.806,2.145,0.806
		c0.746,0,1.379-0.19,1.896-0.57s0.836-0.885,0.953-1.514h2.4c-0.146,0.76-0.447,1.436-0.904,2.025
		c-0.461,0.59-1.057,1.052-1.791,1.387c-0.732,0.335-1.553,0.501-2.457,0.501c-1.051,0-1.977-0.223-2.783-0.668
		s-1.439-1.088-1.896-1.928c-0.461-0.839-0.689-1.829-0.689-2.97c0-1.127,0.23-2.11,0.689-2.95c0.457-0.839,1.09-1.481,1.896-1.927
		c0.807-0.446,1.732-0.669,2.783-0.669c1.062,0,1.988,0.22,2.781,0.659s1.404,1.042,1.83,1.809s0.639,1.623,0.639,2.566
		C709.794,126.165,709.769,126.486,709.716,126.762z M707.169,123.959c-0.27-0.479-0.637-0.833-1.102-1.062
		s-0.975-0.344-1.523-0.344c-0.879,0-1.613,0.269-2.203,0.807s-0.91,1.331-0.965,2.379h6.156
		C707.558,125.031,707.437,124.438,707.169,123.959z"/>
	<path d="M715.773,121.343c0.682-0.413,1.469-0.619,2.359-0.619v2.438h-0.67c-0.982,0-1.771,0.239-2.369,0.718
		c-0.596,0.479-0.895,1.269-0.895,2.37v5.487h-2.242v-10.836h2.242v2.124C714.566,122.317,715.091,121.756,715.773,121.343z"/>
	<path d="M726.667,121.491c0.695,0.485,1.188,1.128,1.477,1.928v-2.518h2.24v10.836h-2.24v-2.518
		c-0.289,0.8-0.781,1.443-1.477,1.928c-0.693,0.485-1.533,0.728-2.518,0.728c-0.943,0-1.785-0.223-2.527-0.668
		c-0.74-0.446-1.318-1.088-1.74-1.928c-0.42-0.839-0.629-1.829-0.629-2.97c0-1.127,0.209-2.11,0.629-2.95
		c0.422-0.839,1-1.481,1.74-1.927c0.742-0.446,1.584-0.669,2.527-0.669C725.134,120.763,725.972,121.006,726.667,121.491z
		 M722.449,123.684c-0.596,0.636-0.895,1.511-0.895,2.625c0,1.115,0.299,1.99,0.895,2.625c0.598,0.636,1.395,0.954,2.391,0.954
		c0.631,0,1.193-0.147,1.691-0.442c0.498-0.295,0.891-0.711,1.18-1.249c0.287-0.538,0.434-1.167,0.434-1.888
		c0-0.708-0.146-1.334-0.434-1.878c-0.289-0.544-0.682-0.964-1.18-1.259s-1.062-0.442-1.691-0.442
		C723.843,122.73,723.046,123.048,722.449,123.684z"/>
	<path d="M738.527,129.791v1.947h-1.377c-1.152,0-2.027-0.278-2.625-0.836c-0.598-0.557-0.896-1.485-0.896-2.783v-5.31h-1.553
		v-1.908h1.553v-2.694h2.264v2.694h2.615v1.908h-2.615v5.35c0,0.616,0.113,1.042,0.344,1.278c0.229,0.236,0.633,0.354,1.209,0.354
		H738.527z"/>
	<path d="M740.71,116.81c0.264-0.249,0.609-0.374,1.041-0.374c0.436,0,0.785,0.125,1.055,0.374c0.268,0.25,0.402,0.564,0.402,0.944
		s-0.135,0.688-0.402,0.924c-0.27,0.236-0.619,0.354-1.055,0.354c-0.432,0-0.777-0.118-1.041-0.354
		c-0.264-0.236-0.395-0.544-0.395-0.924S740.447,117.06,740.71,116.81z M742.873,120.901v10.836h-2.24v-10.836H742.873z"/>
	<path d="M753.375,121.432c0.84,0.446,1.496,1.088,1.967,1.927c0.475,0.839,0.709,1.822,0.709,2.95c0,1.141-0.234,2.131-0.709,2.97
		c-0.471,0.839-1.127,1.482-1.967,1.928c-0.838,0.446-1.783,0.668-2.83,0.668c-1.051,0-1.99-0.223-2.822-0.668
		c-0.832-0.446-1.488-1.092-1.967-1.938s-0.719-1.832-0.719-2.96c0-1.127,0.238-2.11,0.719-2.95
		c0.479-0.839,1.135-1.481,1.967-1.927c0.832-0.446,1.771-0.669,2.822-0.669C751.591,120.763,752.537,120.986,753.375,121.432z
		 M748.951,123.104c-0.486,0.263-0.875,0.666-1.17,1.209c-0.295,0.544-0.443,1.209-0.443,1.996c0,0.8,0.148,1.469,0.443,2.006
		s0.684,0.938,1.17,1.2c0.484,0.262,1.016,0.393,1.594,0.393c0.576,0,1.107-0.131,1.594-0.393c0.482-0.262,0.875-0.662,1.17-1.2
		s0.441-1.206,0.441-2.006c0-0.787-0.146-1.452-0.441-1.996s-0.688-0.947-1.17-1.209c-0.486-0.262-1.018-0.393-1.594-0.393
		C749.966,122.71,749.435,122.841,748.951,123.104z"/>
	<path d="M767.3,121.943c0.76,0.813,1.141,1.973,1.141,3.481v6.313h-2.242v-6.077c0-0.97-0.248-1.721-0.746-2.251
		c-0.5-0.531-1.182-0.797-2.047-0.797c-0.893,0-1.605,0.285-2.145,0.855c-0.537,0.57-0.807,1.406-0.807,2.508v5.762h-2.24v-10.836
		h2.24v2.38c0.289-0.813,0.773-1.442,1.457-1.888c0.682-0.445,1.467-0.668,2.359-0.668
		C765.529,120.724,766.539,121.13,767.3,121.943z"/>
	<path d="M777.673,121.737c0.768,0.649,1.236,1.518,1.406,2.606h-2.125c-0.092-0.59-0.344-1.065-0.756-1.426
		c-0.414-0.361-0.961-0.541-1.643-0.541c-0.564,0-1,0.135-1.309,0.403c-0.309,0.269-0.463,0.632-0.463,1.091
		c0,0.341,0.111,0.616,0.334,0.826c0.223,0.21,0.502,0.374,0.836,0.492s0.811,0.249,1.426,0.393c0.812,0.184,1.473,0.374,1.979,0.57
		c0.504,0.196,0.938,0.508,1.297,0.934c0.361,0.426,0.541,1.006,0.541,1.741c0,0.905-0.344,1.639-1.031,2.203
		s-1.617,0.846-2.783,0.846c-1.352,0-2.441-0.314-3.273-0.944c-0.834-0.629-1.334-1.508-1.506-2.636h2.184
		c0.066,0.59,0.328,1.069,0.787,1.436s1.062,0.55,1.809,0.55c0.537,0,0.961-0.141,1.27-0.422c0.309-0.282,0.463-0.64,0.463-1.072
		c0-0.38-0.119-0.681-0.355-0.904c-0.234-0.223-0.529-0.396-0.885-0.521c-0.354-0.125-0.84-0.252-1.455-0.383
		c-0.787-0.184-1.426-0.367-1.918-0.551c-0.492-0.184-0.912-0.482-1.258-0.895c-0.348-0.413-0.521-0.973-0.521-1.681
		c0-0.917,0.346-1.662,1.031-2.232c0.689-0.57,1.645-0.855,2.863-0.855C775.886,120.763,776.906,121.088,777.673,121.737z"/>
</g>
<g>
	<path fill="#0067A6" d="M562.628,181.488c-4.08,4.777-6.865,9.232-8.355,13.364s-2.559,9.119-3.203,14.959l-0.365,3.871h-7.637
		l0.365-3.871c0.592-5.597,1.865-10.736,3.816-15.417c1.953-4.682,4.631-8.984,8.029-12.907h-13.416l-0.287,3.766h-5.859v-9.65
		h26.912V181.488L562.628,181.488z"/>
</g>
<g>
	<path fill="#0067A6" d="M564.134,177.916c0-1.311,0.424-2.404,1.273-3.278c0.848-0.874,2.029-1.311,3.545-1.311
		c1.533,0,2.723,0.435,3.566,1.304c0.844,0.869,1.266,1.964,1.266,3.286v1.174c0,1.311-0.422,2.399-1.266,3.263
		s-2.021,1.296-3.537,1.296c-1.523,0-2.715-0.432-3.566-1.296c-0.855-0.864-1.281-1.952-1.281-3.263V177.916z M567.091,179.09
		c0,0.589,0.162,1.085,0.488,1.486c0.326,0.402,0.793,0.602,1.402,0.602c0.59,0,1.047-0.2,1.371-0.602
		c0.326-0.401,0.488-0.897,0.488-1.486v-1.174c0-0.589-0.166-1.09-0.496-1.502s-0.795-0.617-1.395-0.617
		c-0.602,0-1.061,0.206-1.379,0.617c-0.32,0.411-0.48,0.913-0.48,1.502V179.09L567.091,179.09z M570.248,194.185l-2.164-1.144
		l10.84-17.351l2.166,1.144L570.248,194.185z M574.746,190.403c0-1.301,0.428-2.388,1.281-3.263
		c0.854-0.874,2.037-1.312,3.553-1.312c1.523,0,2.711,0.435,3.561,1.304c0.85,0.869,1.271,1.959,1.271,3.271v1.174
		c0,1.321-0.422,2.414-1.266,3.278s-2.021,1.296-3.537,1.296c-1.523,0-2.717-0.435-3.574-1.304
		c-0.859-0.869-1.289-1.959-1.289-3.271V190.403L574.746,190.403z M577.705,191.578c0,0.579,0.174,1.075,0.523,1.486
		c0.352,0.411,0.812,0.618,1.381,0.618c0.66,0,1.135-0.19,1.418-0.572c0.285-0.381,0.428-0.892,0.428-1.532v-1.174
		c0-0.579-0.162-1.075-0.488-1.486c-0.324-0.411-0.787-0.618-1.387-0.618c-0.609,0-1.076,0.206-1.396,0.618
		c-0.318,0.412-0.479,0.907-0.479,1.486V191.578L577.705,191.578z"/>
</g>
<g>
	<path d="M646.076,172.75c1.127,0.865,1.889,2.039,2.281,3.52h-2.379c-0.328-0.839-0.852-1.504-1.564-1.996
		c-0.715-0.492-1.59-0.737-2.625-0.737c-0.826,0-1.562,0.203-2.213,0.609c-0.648,0.407-1.16,0.987-1.533,1.741
		c-0.375,0.754-0.561,1.636-0.561,2.645c0,0.997,0.186,1.872,0.561,2.625c0.373,0.754,0.885,1.334,1.533,1.741
		c0.648,0.406,1.387,0.609,2.213,0.609c1.035,0,1.91-0.246,2.625-0.737c0.715-0.492,1.236-1.15,1.564-1.977h2.379
		c-0.395,1.482-1.154,2.652-2.281,3.51c-1.129,0.859-2.545,1.289-4.248,1.289c-1.311,0-2.473-0.298-3.48-0.895
		c-1.01-0.596-1.789-1.429-2.342-2.498c-0.551-1.068-0.824-2.292-0.824-3.668c0-1.376,0.273-2.599,0.824-3.668
		c0.553-1.068,1.332-1.904,2.342-2.507s2.17-0.905,3.48-0.905C643.531,171.452,644.947,171.885,646.076,172.75z"/>
	<path d="M657.462,175.228c0.693,0.485,1.188,1.128,1.475,1.928v-2.518h2.242v10.836h-2.242v-2.518
		c-0.287,0.8-0.779,1.443-1.475,1.928c-0.695,0.485-1.533,0.728-2.518,0.728c-0.943,0-1.787-0.223-2.527-0.668
		c-0.74-0.446-1.32-1.088-1.74-1.928c-0.42-0.839-0.629-1.829-0.629-2.97c0-1.127,0.209-2.11,0.629-2.95
		c0.42-0.839,1-1.481,1.74-1.927c0.74-0.446,1.584-0.669,2.527-0.669C655.927,174.5,656.767,174.743,657.462,175.228z
		 M653.244,177.421c-0.598,0.636-0.895,1.511-0.895,2.625c0,1.115,0.297,1.99,0.895,2.625c0.596,0.636,1.393,0.954,2.389,0.954
		c0.631,0,1.193-0.147,1.691-0.442s0.893-0.711,1.18-1.249c0.289-0.538,0.434-1.167,0.434-1.888c0-0.708-0.145-1.334-0.434-1.878
		c-0.287-0.544-0.682-0.964-1.18-1.259s-1.062-0.442-1.691-0.442C654.636,176.467,653.839,176.785,653.244,177.421z"/>
	<path d="M672.615,175.169c0.742,0.446,1.322,1.088,1.74,1.927c0.42,0.839,0.631,1.822,0.631,2.95c0,1.141-0.211,2.131-0.631,2.97
		c-0.418,0.839-0.998,1.482-1.74,1.928c-0.74,0.446-1.582,0.668-2.527,0.668c-0.982,0-1.82-0.243-2.516-0.728
		c-0.695-0.485-1.182-1.127-1.457-1.928v7.67h-2.24v-15.989h2.24v2.518c0.275-0.8,0.762-1.442,1.457-1.928
		c0.693-0.485,1.533-0.728,2.516-0.728C671.033,174.5,671.875,174.724,672.615,175.169z M667.708,176.91
		c-0.498,0.295-0.893,0.715-1.18,1.259c-0.289,0.544-0.434,1.17-0.434,1.878c0,0.721,0.145,1.351,0.434,1.888
		c0.287,0.537,0.682,0.954,1.18,1.249s1.062,0.442,1.691,0.442c0.996,0,1.797-0.318,2.398-0.954
		c0.604-0.636,0.904-1.511,0.904-2.625c0-1.101-0.301-1.973-0.904-2.615c-0.604-0.643-1.402-0.964-2.398-0.964
		C668.771,176.467,668.207,176.615,667.708,176.91z"/>
	<path d="M677.226,170.547c0.264-0.249,0.609-0.374,1.043-0.374s0.783,0.125,1.053,0.374c0.268,0.25,0.402,0.564,0.402,0.944
		c0,0.38-0.135,0.688-0.402,0.924c-0.27,0.236-0.619,0.354-1.053,0.354s-0.779-0.118-1.043-0.354s-0.395-0.544-0.395-0.924
		C676.832,171.111,676.964,170.797,677.226,170.547z M679.39,174.638v10.836h-2.242v-10.836H679.39z"/>
	<path d="M687.552,183.528v1.947h-1.377c-1.152,0-2.027-0.278-2.625-0.836c-0.598-0.557-0.896-1.485-0.896-2.783v-5.31h-1.553
		v-1.908h1.553v-2.694h2.262v2.694h2.617v1.908h-2.617v5.35c0,0.616,0.115,1.042,0.346,1.278c0.229,0.236,0.633,0.354,1.209,0.354
		H687.552z"/>
	<path d="M696.519,175.228c0.693,0.485,1.188,1.128,1.475,1.928v-2.518h2.242v10.836h-2.242v-2.518
		c-0.287,0.8-0.779,1.443-1.475,1.928c-0.695,0.485-1.533,0.728-2.518,0.728c-0.943,0-1.787-0.223-2.527-0.668
		c-0.74-0.446-1.32-1.088-1.74-1.928c-0.42-0.839-0.629-1.829-0.629-2.97c0-1.127,0.209-2.11,0.629-2.95
		c0.42-0.839,1-1.481,1.74-1.927c0.74-0.446,1.584-0.669,2.527-0.669C694.986,174.5,695.824,174.743,696.519,175.228z
		 M692.3,177.421c-0.596,0.636-0.895,1.511-0.895,2.625c0,1.115,0.299,1.99,0.895,2.625c0.598,0.636,1.395,0.954,2.391,0.954
		c0.631,0,1.193-0.147,1.691-0.442s0.893-0.711,1.18-1.249c0.289-0.538,0.434-1.167,0.434-1.888c0-0.708-0.145-1.334-0.434-1.878
		c-0.287-0.544-0.682-0.964-1.18-1.259s-1.062-0.442-1.691-0.442C693.695,176.467,692.898,176.785,692.3,177.421z"/>
	<path d="M705.171,170.921v14.553h-2.24v-14.553H705.171z"/>
	<path d="M722.97,172.691c1.102,0.813,1.828,1.921,2.184,3.324h-2.359c-0.303-0.748-0.797-1.344-1.484-1.79
		c-0.688-0.445-1.504-0.668-2.447-0.668c-0.867,0-1.643,0.204-2.332,0.609c-0.688,0.407-1.225,0.983-1.611,1.731
		c-0.387,0.747-0.58,1.626-0.58,2.635c0,1.062,0.195,1.974,0.59,2.734c0.395,0.76,0.947,1.34,1.66,1.74
		c0.717,0.4,1.545,0.6,2.488,0.6c1.154,0,2.145-0.357,2.971-1.072c0.826-0.715,1.324-1.695,1.494-2.94h-5.094v-1.652h6.982v2.144
		c-0.158,1.022-0.521,1.95-1.094,2.783c-0.568,0.833-1.322,1.498-2.262,1.996c-0.938,0.499-2.008,0.748-3.215,0.748
		c-1.352,0-2.543-0.301-3.58-0.905c-1.035-0.603-1.836-1.438-2.398-2.507c-0.562-1.068-0.846-2.292-0.846-3.668
		s0.281-2.599,0.846-3.668c0.562-1.068,1.359-1.901,2.391-2.498c1.027-0.596,2.219-0.895,3.568-0.895
		C720.494,171.472,721.871,171.878,722.97,172.691z"/>
	<path d="M731.505,175.081c0.684-0.413,1.471-0.619,2.361-0.619v2.438h-0.67c-0.982,0-1.773,0.239-2.369,0.718
		s-0.895,1.269-0.895,2.37v5.487h-2.242v-10.836h2.242v2.124C730.3,176.054,730.824,175.494,731.505,175.081z"/>
	<path d="M742.402,175.228c0.693,0.485,1.186,1.128,1.475,1.928v-2.518h2.242v10.836h-2.242v-2.518
		c-0.289,0.8-0.781,1.443-1.475,1.928c-0.695,0.485-1.535,0.728-2.52,0.728c-0.941,0-1.785-0.223-2.525-0.668
		c-0.74-0.446-1.32-1.088-1.74-1.928c-0.42-0.839-0.629-1.829-0.629-2.97c0-1.127,0.209-2.11,0.629-2.95
		c0.42-0.839,1-1.481,1.74-1.927c0.74-0.446,1.584-0.669,2.525-0.669C740.867,174.5,741.707,174.743,742.402,175.228z
		 M738.183,177.421c-0.598,0.636-0.896,1.511-0.896,2.625c0,1.115,0.299,1.99,0.896,2.625c0.596,0.636,1.393,0.954,2.389,0.954
		c0.631,0,1.193-0.147,1.691-0.442s0.893-0.711,1.18-1.249c0.289-0.538,0.434-1.167,0.434-1.888c0-0.708-0.145-1.334-0.434-1.878
		c-0.287-0.544-0.682-0.964-1.18-1.259s-1.062-0.442-1.691-0.442C739.576,176.467,738.779,176.785,738.183,177.421z"/>
	<path d="M757.898,175.681c0.76,0.813,1.141,1.973,1.141,3.481v6.313h-2.242v-6.077c0-0.97-0.248-1.721-0.746-2.251
		c-0.5-0.531-1.182-0.797-2.047-0.797c-0.891,0-1.605,0.285-2.143,0.855c-0.539,0.57-0.809,1.406-0.809,2.508v5.762h-2.24v-10.836
		h2.24v2.38c0.289-0.813,0.773-1.442,1.457-1.888c0.682-0.445,1.469-0.668,2.359-0.668
		C756.128,174.461,757.138,174.868,757.898,175.681z"/>
	<path d="M767.103,183.528v1.947h-1.377c-1.154,0-2.029-0.278-2.625-0.836c-0.598-0.557-0.896-1.485-0.896-2.783v-5.31h-1.555
		v-1.908h1.555v-2.694h2.262v2.694h2.615v1.908h-2.615v5.35c0,0.616,0.115,1.042,0.346,1.278c0.229,0.236,0.631,0.354,1.209,0.354
		H767.103z"/>
	<path d="M775.824,175.474c0.768,0.649,1.236,1.518,1.406,2.606h-2.123c-0.092-0.59-0.344-1.065-0.758-1.426
		c-0.412-0.361-0.961-0.541-1.643-0.541c-0.562,0-1,0.135-1.309,0.403c-0.309,0.269-0.461,0.632-0.461,1.091
		c0,0.341,0.109,0.616,0.334,0.826c0.223,0.21,0.502,0.374,0.836,0.492c0.334,0.118,0.809,0.249,1.426,0.393
		c0.812,0.184,1.471,0.374,1.977,0.57c0.506,0.196,0.938,0.508,1.299,0.934c0.359,0.426,0.541,1.006,0.541,1.741
		c0,0.905-0.346,1.639-1.033,2.203s-1.615,0.846-2.783,0.846c-1.35,0-2.441-0.314-3.273-0.944c-0.834-0.629-1.334-1.508-1.506-2.636
		h2.186c0.064,0.59,0.326,1.069,0.785,1.436c0.459,0.367,1.062,0.55,1.811,0.55c0.537,0,0.959-0.141,1.27-0.422
		c0.307-0.282,0.461-0.64,0.461-1.072c0-0.38-0.117-0.681-0.354-0.904c-0.236-0.223-0.531-0.396-0.885-0.521
		c-0.355-0.125-0.84-0.252-1.457-0.383c-0.785-0.184-1.426-0.367-1.916-0.551c-0.492-0.184-0.912-0.482-1.26-0.895
		s-0.521-0.973-0.521-1.681c0-0.917,0.346-1.662,1.033-2.232c0.688-0.57,1.643-0.855,2.861-0.855
		C774.039,174.5,775.058,174.825,775.824,175.474z"/>
</g>
<g>
	<path d="M643.912,211.966h-5.859l-1.062,3.009h-2.398l5.113-13.668h2.576l5.094,13.668h-2.398L643.912,211.966z M643.283,210.235
		l-2.301-6.49l-2.301,6.49H643.283z"/>
	<path d="M658.13,205.181c0.762,0.813,1.143,1.973,1.143,3.481v6.313h-2.242v-6.077c0-0.97-0.25-1.721-0.748-2.251
		c-0.498-0.531-1.18-0.797-2.045-0.797c-0.893,0-1.607,0.285-2.145,0.855c-0.539,0.57-0.807,1.406-0.807,2.508v5.762h-2.242v-10.836
		h2.242v2.38c0.289-0.813,0.773-1.442,1.455-1.888c0.682-0.445,1.469-0.668,2.359-0.668
		C656.361,203.961,657.371,204.368,658.13,205.181z"/>
	<path d="M668.751,204.728c0.693,0.485,1.18,1.128,1.455,1.928v-6.234h2.262v14.553h-2.262v-2.518
		c-0.275,0.8-0.762,1.443-1.455,1.928c-0.695,0.485-1.535,0.728-2.518,0.728c-0.943,0-1.787-0.223-2.527-0.668
		c-0.74-0.446-1.32-1.088-1.74-1.928c-0.42-0.839-0.629-1.829-0.629-2.97c0-1.127,0.209-2.11,0.629-2.95
		c0.42-0.839,1-1.481,1.74-1.927c0.74-0.446,1.584-0.669,2.527-0.669C667.216,204,668.056,204.243,668.751,204.728z
		 M664.533,206.921c-0.598,0.636-0.896,1.511-0.896,2.625c0,1.115,0.299,1.99,0.896,2.625c0.596,0.636,1.393,0.954,2.389,0.954
		c0.631,0,1.193-0.147,1.691-0.442s0.893-0.711,1.18-1.249c0.289-0.538,0.434-1.167,0.434-1.888c0-0.708-0.145-1.334-0.434-1.878
		c-0.287-0.544-0.682-0.964-1.18-1.259s-1.062-0.442-1.691-0.442C665.925,205.967,665.128,206.285,664.533,206.921z"/>
	<path d="M690.828,211.681c-0.57,1.042-1.404,1.852-2.498,2.429c-1.096,0.577-2.402,0.865-3.924,0.865h-4.641V201.09h4.641
		c1.52,0,2.828,0.285,3.924,0.855c1.094,0.57,1.928,1.374,2.498,2.409c0.57,1.036,0.855,2.255,0.855,3.658
		C691.683,209.415,691.398,210.638,690.828,211.681z M688.064,211.651c0.891-0.865,1.338-2.078,1.338-3.638
		s-0.447-2.773-1.338-3.639c-0.893-0.865-2.17-1.298-3.836-1.298h-2.223v9.873h2.223
		C685.894,212.949,687.171,212.516,688.064,211.651z"/>
	<path d="M701.732,204.669c0.84,0.446,1.494,1.088,1.967,1.927c0.473,0.839,0.707,1.822,0.707,2.95c0,1.141-0.234,2.131-0.707,2.97
		c-0.473,0.839-1.127,1.482-1.967,1.928c-0.84,0.446-1.783,0.668-2.832,0.668s-1.99-0.223-2.822-0.668
		c-0.832-0.446-1.488-1.092-1.967-1.938c-0.479-0.846-0.717-1.832-0.717-2.96c0-1.127,0.236-2.11,0.717-2.95
		c0.479-0.839,1.135-1.481,1.967-1.927c0.832-0.446,1.773-0.669,2.822-0.669S700.892,204.224,701.732,204.669z M697.306,206.341
		c-0.484,0.263-0.875,0.666-1.17,1.209c-0.295,0.544-0.441,1.209-0.441,1.996c0,0.8,0.146,1.469,0.441,2.006
		c0.295,0.537,0.686,0.938,1.17,1.2c0.484,0.262,1.018,0.393,1.594,0.393s1.107-0.131,1.594-0.393c0.484-0.262,0.875-0.662,1.17-1.2
		c0.295-0.538,0.441-1.206,0.441-2.006c0-0.787-0.146-1.452-0.441-1.996s-0.686-0.947-1.17-1.209
		c-0.486-0.262-1.018-0.393-1.594-0.393S697.792,206.079,697.306,206.341z"/>
	<path d="M715.656,205.181c0.76,0.813,1.141,1.973,1.141,3.481v6.313h-2.24v-6.077c0-0.97-0.25-1.721-0.748-2.251
		c-0.498-0.531-1.182-0.797-2.047-0.797c-0.891,0-1.605,0.285-2.143,0.855c-0.539,0.57-0.807,1.406-0.807,2.508v5.762h-2.242
		v-10.836h2.242v2.38c0.289-0.813,0.771-1.442,1.455-1.888c0.682-0.445,1.469-0.668,2.359-0.668
		C713.884,203.961,714.896,204.368,715.656,205.181z"/>
	<path d="M726.275,204.728c0.693,0.485,1.188,1.128,1.475,1.928v-2.518h2.242v10.836h-2.242v-2.518
		c-0.287,0.8-0.779,1.443-1.475,1.928c-0.695,0.485-1.533,0.728-2.518,0.728c-0.943,0-1.785-0.223-2.527-0.668
		c-0.74-0.446-1.32-1.088-1.74-1.928c-0.42-0.839-0.629-1.829-0.629-2.97c0-1.127,0.209-2.11,0.629-2.95
		c0.42-0.839,1-1.481,1.74-1.927c0.742-0.446,1.584-0.669,2.527-0.669C724.742,204,725.58,204.243,726.275,204.728z
		 M722.056,206.921c-0.598,0.636-0.895,1.511-0.895,2.625c0,1.115,0.297,1.99,0.895,2.625c0.598,0.636,1.395,0.954,2.391,0.954
		c0.629,0,1.193-0.147,1.691-0.442c0.496-0.295,0.891-0.711,1.18-1.249c0.287-0.538,0.432-1.167,0.432-1.888
		c0-0.708-0.145-1.334-0.432-1.878c-0.289-0.544-0.684-0.964-1.18-1.259c-0.498-0.295-1.062-0.442-1.691-0.442
		C723.451,205.967,722.654,206.285,722.056,206.921z"/>
	<path d="M738.134,213.028v1.947h-1.377c-1.152,0-2.027-0.278-2.625-0.836c-0.598-0.557-0.896-1.485-0.896-2.783v-5.31h-1.553
		v-1.908h1.553v-2.694h2.262v2.694h2.617v1.908h-2.617v5.35c0,0.616,0.115,1.042,0.346,1.278c0.229,0.236,0.633,0.354,1.209,0.354
		H738.134z"/>
	<path d="M740.316,200.047c0.264-0.249,0.609-0.374,1.043-0.374s0.783,0.125,1.053,0.374c0.268,0.25,0.402,0.564,0.402,0.944
		c0,0.38-0.135,0.688-0.402,0.924c-0.27,0.236-0.619,0.354-1.053,0.354s-0.779-0.118-1.043-0.354s-0.395-0.544-0.395-0.924
		C739.921,200.611,740.052,200.297,740.316,200.047z M742.48,204.138v10.836h-2.242v-10.836H742.48z"/>
	<path d="M752.982,204.669c0.84,0.446,1.494,1.088,1.967,1.927c0.473,0.839,0.707,1.822,0.707,2.95c0,1.141-0.234,2.131-0.707,2.97
		c-0.473,0.839-1.127,1.482-1.967,1.928c-0.84,0.446-1.783,0.668-2.832,0.668s-1.99-0.223-2.822-0.668
		c-0.832-0.446-1.488-1.092-1.967-1.938c-0.479-0.846-0.717-1.832-0.717-2.96c0-1.127,0.236-2.11,0.717-2.95
		c0.479-0.839,1.135-1.481,1.967-1.927c0.832-0.446,1.773-0.669,2.822-0.669S752.142,204.224,752.982,204.669z M748.556,206.341
		c-0.484,0.263-0.875,0.666-1.17,1.209c-0.295,0.544-0.441,1.209-0.441,1.996c0,0.8,0.146,1.469,0.441,2.006
		c0.295,0.537,0.686,0.938,1.17,1.2c0.484,0.262,1.018,0.393,1.594,0.393s1.107-0.131,1.594-0.393c0.484-0.262,0.875-0.662,1.17-1.2
		c0.295-0.538,0.441-1.206,0.441-2.006c0-0.787-0.146-1.452-0.441-1.996s-0.686-0.947-1.17-1.209
		c-0.486-0.262-1.018-0.393-1.594-0.393S749.042,206.079,748.556,206.341z"/>
	<path d="M766.906,205.181c0.76,0.813,1.141,1.973,1.141,3.481v6.313h-2.24v-6.077c0-0.97-0.25-1.721-0.748-2.251
		c-0.498-0.531-1.182-0.797-2.047-0.797c-0.891,0-1.605,0.285-2.143,0.855c-0.539,0.57-0.807,1.406-0.807,2.508v5.762h-2.242
		v-10.836h2.242v2.38c0.289-0.813,0.771-1.442,1.455-1.888c0.682-0.445,1.469-0.668,2.359-0.668
		C765.134,203.961,766.146,204.368,766.906,205.181z"/>
	<path d="M777.281,204.974c0.768,0.649,1.236,1.518,1.406,2.606h-2.125c-0.092-0.59-0.344-1.065-0.756-1.426
		c-0.414-0.361-0.963-0.541-1.645-0.541c-0.562,0-1,0.135-1.307,0.403c-0.311,0.269-0.463,0.632-0.463,1.091
		c0,0.341,0.111,0.616,0.334,0.826s0.502,0.374,0.836,0.492c0.334,0.118,0.811,0.249,1.426,0.393
		c0.812,0.184,1.473,0.374,1.977,0.57c0.506,0.196,0.939,0.508,1.299,0.934c0.359,0.426,0.541,1.006,0.541,1.741
		c0,0.905-0.344,1.639-1.031,2.203c-0.689,0.564-1.617,0.846-2.783,0.846c-1.352,0-2.443-0.314-3.275-0.944
		c-0.832-0.629-1.334-1.508-1.504-2.636h2.184c0.064,0.59,0.328,1.069,0.787,1.436c0.459,0.367,1.061,0.55,1.809,0.55
		c0.537,0,0.961-0.141,1.27-0.422c0.309-0.282,0.463-0.64,0.463-1.072c0-0.38-0.119-0.681-0.355-0.904
		c-0.236-0.223-0.531-0.396-0.885-0.521s-0.84-0.252-1.455-0.383c-0.787-0.184-1.426-0.367-1.918-0.551s-0.912-0.482-1.258-0.895
		c-0.35-0.413-0.521-0.973-0.521-1.681c0-0.917,0.344-1.662,1.031-2.232c0.688-0.57,1.643-0.855,2.863-0.855
		C775.494,204,776.513,204.325,777.281,204.974z"/>
</g>
<g>
	<path fill="#BCBEC0" d="M558.359,277.558h4.221v4.964h-4.221v3.658l3.965,0.769v4.477h-15.402v-4.477l3.992-0.769v-3.658h-15.197
		l-0.357-3.659l15.479-24.688h7.521V277.558L558.359,277.558z M542.341,277.558h8.572v-13.432l-0.154-0.051l-0.613,1.073
		L542.341,277.558z"/>
</g>
<g>
	<path fill="#BCBEC0" d="M564.691,256.436c0-1.283,0.414-2.353,1.246-3.207c0.83-0.854,1.986-1.282,3.469-1.282
		c1.5,0,2.664,0.426,3.488,1.275c0.826,0.85,1.238,1.921,1.238,3.214v1.147c0,1.283-0.412,2.348-1.238,3.192
		c-0.824,0.845-1.979,1.269-3.461,1.269c-1.49,0-2.652-0.424-3.488-1.269c-0.836-0.846-1.254-1.909-1.254-3.192V256.436z
		 M567.585,257.583c0,0.578,0.158,1.062,0.477,1.455c0.318,0.394,0.777,0.59,1.373,0.59c0.576,0,1.023-0.196,1.344-0.59
		c0.316-0.394,0.477-0.877,0.477-1.455v-1.147c0-0.576-0.162-1.065-0.484-1.47c-0.322-0.402-0.777-0.604-1.363-0.604
		c-0.588,0-1.037,0.201-1.352,0.604c-0.312,0.402-0.469,0.894-0.469,1.47v1.147H567.585z M570.673,272.351l-2.119-1.118
		l10.605-16.976l2.119,1.119L570.673,272.351z M575.074,268.651c0-1.272,0.418-2.336,1.252-3.19
		c0.836-0.855,1.994-1.283,3.477-1.283c1.49,0,2.652,0.425,3.482,1.275c0.83,0.85,1.246,1.916,1.246,3.198v1.147
		c0,1.293-0.414,2.363-1.238,3.207c-0.826,0.847-1.98,1.269-3.461,1.269c-1.492,0-2.658-0.425-3.498-1.274
		c-0.84-0.851-1.26-1.916-1.26-3.199V268.651z M577.966,269.8c0,0.566,0.172,1.052,0.516,1.455c0.344,0.402,0.793,0.604,1.35,0.604
		c0.646,0,1.109-0.188,1.389-0.561c0.277-0.371,0.416-0.871,0.416-1.498v-1.148c0-0.566-0.158-1.052-0.477-1.454
		c-0.318-0.401-0.771-0.604-1.357-0.604c-0.596,0-1.051,0.203-1.365,0.604c-0.312,0.402-0.469,0.888-0.469,1.454v1.148H577.966z"/>
</g>
<g>
	<path d="M642.927,263.013l-3.461-5.547h-1.594v5.547h-2.24v-13.885h4.896c1.586,0,2.789,0.387,3.607,1.16s1.23,1.797,1.23,3.067
		c0,1.088-0.305,1.979-0.914,2.675c-0.611,0.695-1.492,1.141-2.646,1.338l3.639,5.645H642.927z M637.875,255.875h2.479
		c1.811,0,2.715-0.801,2.715-2.399c0-0.761-0.221-1.354-0.66-1.78s-1.123-0.639-2.055-0.639h-2.479V255.875z"/>
	<path d="M657.384,258.037h-8.34c0.039,1.114,0.35,1.94,0.926,2.479c0.576,0.537,1.291,0.807,2.145,0.807
		c0.746,0,1.379-0.189,1.896-0.57c0.518-0.379,0.836-0.885,0.953-1.515h2.4c-0.146,0.761-0.447,1.437-0.904,2.026
		c-0.461,0.59-1.057,1.052-1.791,1.386c-0.732,0.335-1.553,0.502-2.457,0.502c-1.051,0-1.977-0.224-2.783-0.669
		s-1.439-1.088-1.896-1.927c-0.461-0.839-0.689-1.829-0.689-2.97c0-1.129,0.23-2.111,0.689-2.951c0.457-0.838,1.09-1.48,1.896-1.928
		c0.807-0.445,1.732-0.668,2.783-0.668c1.062,0,1.988,0.221,2.781,0.658c0.793,0.439,1.404,1.043,1.83,1.811
		c0.426,0.767,0.639,1.621,0.639,2.565C657.462,257.44,657.437,257.762,657.384,258.037z M654.837,255.234
		c-0.27-0.479-0.637-0.832-1.102-1.062c-0.465-0.229-0.975-0.344-1.523-0.344c-0.879,0-1.613,0.27-2.203,0.807
		s-0.91,1.33-0.965,2.38h6.156C655.226,256.307,655.105,255.712,654.837,255.234z"/>
	<path d="M666.244,253.012c0.768,0.649,1.236,1.519,1.406,2.606h-2.125c-0.092-0.591-0.344-1.066-0.756-1.427
		c-0.414-0.36-0.961-0.541-1.645-0.541c-0.562,0-1,0.136-1.307,0.403c-0.311,0.27-0.463,0.633-0.463,1.092
		c0,0.341,0.111,0.616,0.334,0.825c0.223,0.21,0.502,0.374,0.836,0.491c0.334,0.119,0.811,0.25,1.426,0.395
		c0.812,0.184,1.473,0.373,1.977,0.57c0.506,0.195,0.939,0.508,1.299,0.934c0.359,0.428,0.541,1.008,0.541,1.74
		c0,0.904-0.344,1.641-1.031,2.203c-0.689,0.562-1.617,0.846-2.783,0.846c-1.352,0-2.443-0.314-3.275-0.943
		s-1.334-1.508-1.504-2.636h2.184c0.064,0.591,0.328,1.068,0.787,1.437c0.459,0.367,1.061,0.551,1.809,0.551
		c0.537,0,0.961-0.141,1.27-0.424c0.309-0.281,0.463-0.639,0.463-1.071c0-0.38-0.119-0.683-0.355-0.903
		c-0.236-0.224-0.531-0.396-0.885-0.521c-0.354-0.124-0.84-0.252-1.455-0.385c-0.787-0.183-1.426-0.365-1.918-0.549
		c-0.492-0.185-0.912-0.482-1.258-0.896c-0.35-0.413-0.521-0.975-0.521-1.682c0-0.918,0.344-1.662,1.031-2.231
		s1.643-0.854,2.863-0.854C664.457,252.039,665.476,252.363,666.244,253.012z"/>
	<path d="M680,258.037h-8.338c0.039,1.114,0.348,1.94,0.924,2.479c0.576,0.537,1.291,0.807,2.145,0.807
		c0.748,0,1.381-0.189,1.896-0.57c0.52-0.379,0.836-0.885,0.955-1.515h2.398c-0.145,0.761-0.445,1.437-0.904,2.026
		s-1.055,1.052-1.789,1.386c-0.734,0.335-1.555,0.502-2.459,0.502c-1.049,0-1.977-0.224-2.783-0.669s-1.438-1.088-1.896-1.927
		s-0.688-1.829-0.688-2.97c0-1.129,0.229-2.111,0.688-2.951c0.459-0.838,1.092-1.48,1.896-1.928
		c0.809-0.445,1.734-0.668,2.783-0.668c1.062,0,1.99,0.221,2.783,0.658c0.793,0.439,1.402,1.043,1.828,1.811
		c0.426,0.767,0.641,1.621,0.641,2.565C680.08,257.44,680.052,257.762,680,258.037z M677.453,255.234
		c-0.268-0.479-0.635-0.832-1.102-1.062c-0.465-0.229-0.975-0.344-1.523-0.344c-0.879,0-1.613,0.27-2.203,0.807
		s-0.91,1.33-0.963,2.38h6.156C677.843,256.307,677.722,255.712,677.453,255.234z"/>
	<path d="M689.105,252.767c0.693,0.484,1.188,1.128,1.475,1.927v-2.517h2.242v10.836h-2.242v-2.518
		c-0.287,0.799-0.779,1.441-1.475,1.928c-0.695,0.484-1.533,0.728-2.518,0.728c-0.943,0-1.787-0.223-2.527-0.669
		c-0.74-0.445-1.32-1.088-1.74-1.927s-0.629-1.829-0.629-2.97c0-1.129,0.209-2.111,0.629-2.951c0.42-0.838,1-1.48,1.74-1.928
		c0.74-0.444,1.584-0.668,2.527-0.668C687.572,252.039,688.41,252.281,689.105,252.767z M684.886,254.958
		c-0.598,0.638-0.895,1.513-0.895,2.627c0,1.113,0.297,1.988,0.895,2.625s1.395,0.953,2.391,0.953c0.629,0,1.191-0.146,1.689-0.441
		s0.893-0.711,1.182-1.249c0.287-0.537,0.432-1.167,0.432-1.888c0-0.709-0.145-1.334-0.432-1.879
		c-0.289-0.543-0.684-0.963-1.182-1.258c-0.498-0.296-1.061-0.443-1.689-0.443C686.281,254.005,685.484,254.324,684.886,254.958z"/>
	<path d="M699.332,252.619c0.684-0.412,1.469-0.619,2.361-0.619v2.438h-0.67c-0.982,0-1.773,0.239-2.369,0.718
		s-0.896,1.27-0.896,2.369v5.487h-2.24v-10.837h2.24v2.125C698.126,253.593,698.65,253.033,699.332,252.619z"/>
	<path d="M711.664,253.149c0.918,0.741,1.488,1.748,1.711,3.021h-2.381c-0.131-0.683-0.449-1.217-0.953-1.604
		c-0.504-0.386-1.137-0.58-1.896-0.58c-0.865,0-1.586,0.306-2.164,0.915c-0.576,0.609-0.865,1.504-0.865,2.686
		c0,1.18,0.289,2.078,0.865,2.693c0.578,0.616,1.299,0.924,2.164,0.924c0.76,0,1.393-0.195,1.896-0.59s0.822-0.931,0.953-1.611
		h2.381c-0.223,1.271-0.793,2.281-1.711,3.027c-0.918,0.747-2.078,1.121-3.48,1.121c-1.051,0-1.977-0.223-2.783-0.669
		c-0.807-0.444-1.439-1.088-1.896-1.927c-0.461-0.84-0.688-1.829-0.688-2.971c0-1.127,0.229-2.11,0.688-2.949
		c0.457-0.84,1.092-1.481,1.896-1.928c0.807-0.445,1.732-0.668,2.783-0.668C709.585,252.039,710.746,252.41,711.664,253.149z"/>
	<path d="M724.623,253.218c0.76,0.814,1.143,1.975,1.143,3.48v6.313h-2.242v-6.077c0-0.971-0.25-1.721-0.748-2.252
		c-0.498-0.53-1.182-0.796-2.045-0.796c-0.893,0-1.607,0.284-2.145,0.854c-0.539,0.57-0.807,1.406-0.807,2.508v5.763h-2.242v-14.554
		h2.242v6.097c0.289-0.812,0.771-1.44,1.455-1.888c0.682-0.445,1.469-0.67,2.359-0.67C722.853,252,723.863,252.406,724.623,253.218z
		"/>
</g>
<g>
	<path d="M642.496,282.267c0.695,0.484,1.188,1.128,1.477,1.927v-2.517h2.24v10.836h-2.24v-2.518
		c-0.289,0.799-0.781,1.441-1.477,1.928c-0.695,0.484-1.533,0.728-2.518,0.728c-0.943,0-1.785-0.223-2.527-0.669
		c-0.74-0.445-1.32-1.088-1.74-1.927s-0.629-1.829-0.629-2.97c0-1.129,0.209-2.111,0.629-2.951c0.42-0.838,1-1.48,1.74-1.928
		c0.742-0.445,1.584-0.668,2.527-0.668C640.962,281.539,641.8,281.781,642.496,282.267z M638.277,284.458
		c-0.596,0.638-0.895,1.513-0.895,2.627c0,1.113,0.297,1.988,0.895,2.625s1.395,0.953,2.391,0.953c0.629,0,1.193-0.146,1.691-0.441
		s0.891-0.711,1.18-1.249c0.287-0.537,0.432-1.167,0.432-1.888c0-0.709-0.145-1.334-0.432-1.879
		c-0.289-0.543-0.682-0.963-1.18-1.258s-1.062-0.443-1.691-0.443C639.671,283.505,638.875,283.824,638.277,284.458z"/>
	<path d="M657.994,282.718c0.76,0.814,1.141,1.975,1.141,3.48v6.313h-2.242v-6.077c0-0.971-0.248-1.721-0.746-2.252
		c-0.5-0.53-1.182-0.796-2.047-0.796c-0.893,0-1.605,0.284-2.145,0.854c-0.537,0.57-0.807,1.406-0.807,2.508v5.763h-2.24v-10.837
		h2.24v2.38c0.289-0.812,0.773-1.441,1.457-1.888c0.682-0.445,1.467-0.67,2.357-0.67C656.222,281.5,657.232,281.906,657.994,282.718
		z"/>
	<path d="M668.613,282.267c0.695,0.484,1.18,1.128,1.455,1.927v-6.233h2.262v14.554h-2.262v-2.519
		c-0.275,0.801-0.76,1.442-1.455,1.928c-0.695,0.486-1.533,0.729-2.518,0.729c-0.943,0-1.785-0.223-2.527-0.669
		c-0.74-0.444-1.32-1.088-1.74-1.927c-0.42-0.84-0.629-1.829-0.629-2.971c0-1.127,0.209-2.11,0.629-2.949
		c0.42-0.84,1-1.481,1.74-1.928c0.742-0.445,1.584-0.668,2.527-0.668C667.08,281.539,667.917,281.781,668.613,282.267z
		 M664.394,284.458c-0.598,0.638-0.895,1.513-0.895,2.627c0,1.113,0.297,1.988,0.895,2.625s1.395,0.953,2.391,0.953
		c0.629,0,1.193-0.146,1.691-0.441s0.891-0.711,1.18-1.249c0.287-0.537,0.432-1.167,0.432-1.888c0-0.709-0.145-1.334-0.432-1.879
		c-0.289-0.543-0.682-0.963-1.18-1.258s-1.062-0.443-1.691-0.443C665.789,283.505,664.992,283.824,664.394,284.458z"/>
	<path d="M681.869,278.628v13.885h-2.242v-13.885H681.869z"/>
	<path d="M693.669,282.718c0.76,0.814,1.141,1.975,1.141,3.48v6.313h-2.242v-6.077c0-0.971-0.248-1.721-0.746-2.252
		c-0.5-0.53-1.182-0.796-2.047-0.796c-0.893,0-1.605,0.284-2.145,0.854c-0.537,0.57-0.807,1.406-0.807,2.508v5.763h-2.24v-10.837
		h2.24v2.38c0.289-0.812,0.773-1.441,1.457-1.888c0.682-0.445,1.467-0.67,2.359-0.67C691.898,281.5,692.908,281.906,693.669,282.718
		z"/>
	<path d="M706.509,282.718c0.762,0.814,1.143,1.975,1.143,3.48v6.313h-2.242v-6.077c0-0.971-0.25-1.721-0.748-2.252
		c-0.498-0.53-1.18-0.796-2.045-0.796c-0.893,0-1.607,0.284-2.145,0.854s-0.807,1.406-0.807,2.508v5.763h-2.242v-10.837h2.242v2.38
		c0.289-0.812,0.773-1.441,1.455-1.888c0.682-0.445,1.469-0.67,2.359-0.67C704.74,281.5,705.75,281.906,706.509,282.718z"/>
	<path d="M718.054,282.207c0.84,0.446,1.494,1.09,1.967,1.928c0.473,0.84,0.709,1.822,0.709,2.951c0,1.141-0.236,2.131-0.709,2.97
		s-1.127,1.481-1.967,1.927c-0.84,0.446-1.783,0.669-2.83,0.669c-1.051,0-1.99-0.223-2.822-0.669
		c-0.834-0.445-1.488-1.091-1.967-1.938c-0.48-0.846-0.719-1.832-0.719-2.959c0-1.129,0.238-2.111,0.719-2.951
		c0.479-0.838,1.133-1.48,1.967-1.928c0.832-0.444,1.771-0.668,2.822-0.668C716.271,281.539,717.216,281.762,718.054,282.207z
		 M713.63,283.878c-0.484,0.264-0.875,0.666-1.17,1.211c-0.295,0.543-0.441,1.209-0.441,1.996c0,0.799,0.146,1.469,0.441,2.006
		s0.686,0.938,1.17,1.199c0.484,0.263,1.018,0.394,1.594,0.394s1.107-0.131,1.594-0.394c0.482-0.263,0.875-0.662,1.17-1.199
		s0.441-1.207,0.441-2.006c0-0.787-0.146-1.453-0.441-1.996c-0.295-0.545-0.688-0.947-1.17-1.211
		c-0.486-0.262-1.018-0.394-1.594-0.394C714.646,283.485,714.115,283.617,713.63,283.878z"/>
	<path d="M727.337,290.192l3.068-8.517h2.398l-4.131,10.837h-2.713l-4.131-10.837h2.4L727.337,290.192z"/>
	<path d="M741.32,282.267c0.695,0.484,1.188,1.128,1.475,1.927v-2.517h2.242v10.836h-2.242v-2.518
		c-0.287,0.799-0.779,1.441-1.475,1.928c-0.695,0.484-1.533,0.728-2.518,0.728c-0.943,0-1.785-0.223-2.527-0.669
		c-0.74-0.445-1.32-1.088-1.74-1.927s-0.629-1.829-0.629-2.97c0-1.129,0.209-2.111,0.629-2.951c0.42-0.838,1-1.48,1.74-1.928
		c0.742-0.445,1.584-0.668,2.527-0.668C739.787,281.539,740.625,281.781,741.32,282.267z M737.101,284.458
		c-0.598,0.638-0.895,1.513-0.895,2.627c0,1.113,0.297,1.988,0.895,2.625s1.395,0.953,2.391,0.953c0.629,0,1.193-0.146,1.691-0.441
		s0.891-0.711,1.18-1.249c0.287-0.537,0.432-1.167,0.432-1.888c0-0.709-0.145-1.334-0.432-1.879
		c-0.289-0.543-0.682-0.963-1.18-1.258s-1.062-0.443-1.691-0.443C738.496,283.505,737.699,283.824,737.101,284.458z"/>
	<path d="M753.179,290.565v1.947h-1.377c-1.152,0-2.027-0.278-2.625-0.837c-0.598-0.557-0.896-1.483-0.896-2.782v-5.31h-1.553
		v-1.908h1.553v-2.693h2.262v2.693h2.617v1.908h-2.617v5.35c0,0.615,0.115,1.042,0.346,1.277c0.229,0.235,0.633,0.354,1.209,0.354
		H753.179L753.179,290.565z"/>
	<path d="M755.363,277.585c0.262-0.248,0.609-0.373,1.041-0.373c0.434,0,0.785,0.125,1.053,0.373c0.27,0.25,0.404,0.563,0.404,0.943
		c0,0.381-0.135,0.688-0.404,0.926c-0.268,0.236-0.619,0.354-1.053,0.354c-0.432,0-0.779-0.117-1.041-0.354
		c-0.264-0.238-0.395-0.545-0.395-0.926C754.968,278.149,755.099,277.835,755.363,277.585z M757.525,281.677v10.836h-2.24v-10.836
		H757.525z"/>
	<path d="M768.027,282.207c0.84,0.446,1.494,1.09,1.967,1.928c0.473,0.84,0.707,1.822,0.707,2.951c0,1.141-0.234,2.131-0.707,2.97
		s-1.127,1.481-1.967,1.927c-0.84,0.446-1.783,0.669-2.832,0.669s-1.99-0.223-2.822-0.669c-0.832-0.445-1.488-1.091-1.967-1.938
		c-0.479-0.846-0.717-1.832-0.717-2.959c0-1.129,0.236-2.111,0.717-2.951c0.479-0.838,1.135-1.48,1.967-1.928
		c0.832-0.444,1.773-0.668,2.822-0.668S767.187,281.762,768.027,282.207z M763.601,283.878c-0.484,0.264-0.875,0.666-1.17,1.211
		c-0.295,0.543-0.441,1.209-0.441,1.996c0,0.799,0.146,1.469,0.441,2.006s0.686,0.938,1.17,1.199
		c0.484,0.263,1.018,0.394,1.594,0.394s1.107-0.131,1.594-0.394c0.484-0.263,0.875-0.662,1.17-1.199s0.441-1.207,0.441-2.006
		c0-0.787-0.146-1.453-0.441-1.996c-0.295-0.545-0.686-0.947-1.17-1.211c-0.484-0.262-1.018-0.394-1.594-0.394
		S764.087,283.617,763.601,283.878z"/>
	<path d="M781.951,282.718c0.76,0.814,1.141,1.975,1.141,3.48v6.313h-2.24v-6.077c0-0.971-0.25-1.721-0.748-2.252
		c-0.498-0.53-1.182-0.796-2.045-0.796c-0.893,0-1.607,0.284-2.145,0.854c-0.539,0.57-0.807,1.406-0.807,2.508v5.763h-2.242v-10.837
		h2.242v2.38c0.289-0.812,0.771-1.441,1.455-1.888c0.682-0.445,1.469-0.67,2.359-0.67
		C780.181,281.5,781.191,281.906,781.951,282.718z"/>
</g>
<g>
	<path fill="#808285" d="M555.775,340.207l-0.666-2.508H545.08l-1.049,8.598c0.697-0.512,1.535-0.934,2.508-1.268
		c0.973-0.332,2.047-0.506,3.223-0.523c3.582-0.051,6.355,1.031,8.316,3.248c1.961,2.219,2.939,5.305,2.939,9.262
		c0,3.582-1.076,6.561-3.234,8.932c-2.158,2.369-5.268,3.555-9.326,3.555c-3.412,0-6.336-0.934-8.775-2.801
		c-2.438-1.867-3.615-4.439-3.529-7.713l0.051-0.129l7.164-0.357c0,1.654,0.469,2.945,1.406,3.875s2.166,1.396,3.686,1.396
		c1.738,0,3.027-0.623,3.863-1.869c0.834-1.244,1.254-2.855,1.254-4.834c0-2.15-0.445-3.873-1.332-5.168
		c-0.887-1.299-2.209-1.945-3.965-1.945c-1.416,0-2.504,0.264-3.264,0.793c-0.758,0.529-1.301,1.246-1.623,2.148l-6.602-0.436
		l2.148-20.748h21.439v8.494h-4.604V340.207z"/>
</g>
<g>
	<path fill="#808285" d="M563.105,333.974c0-1.281,0.414-2.352,1.246-3.207c0.83-0.854,1.986-1.281,3.469-1.281
		c1.5,0,2.664,0.426,3.488,1.275c0.826,0.85,1.238,1.92,1.238,3.213v1.148c0,1.283-0.412,2.348-1.238,3.193
		c-0.824,0.844-1.979,1.268-3.461,1.268c-1.49,0-2.652-0.424-3.488-1.268c-0.836-0.848-1.254-1.91-1.254-3.193V333.974z
		 M566,335.123c0,0.578,0.158,1.062,0.477,1.455s0.777,0.59,1.373,0.59c0.576,0,1.023-0.197,1.344-0.59
		c0.316-0.395,0.477-0.877,0.477-1.455v-1.148c0-0.574-0.162-1.064-0.484-1.469c-0.322-0.402-0.777-0.604-1.363-0.604
		c-0.588,0-1.037,0.201-1.352,0.604c-0.312,0.402-0.469,0.895-0.469,1.469v1.148H566z M569.087,349.89l-2.119-1.117l10.605-16.977
		l2.119,1.119L569.087,349.89z M573.488,346.191c0-1.273,0.418-2.338,1.252-3.191c0.836-0.855,1.994-1.283,3.477-1.283
		c1.49,0,2.652,0.424,3.482,1.275c0.83,0.85,1.246,1.916,1.246,3.199v1.146c0,1.293-0.414,2.363-1.238,3.207
		c-0.826,0.846-1.98,1.27-3.461,1.27c-1.492,0-2.658-0.426-3.498-1.275s-1.26-1.916-1.26-3.199V346.191z M576.38,347.339
		c0,0.566,0.172,1.051,0.516,1.455c0.344,0.402,0.793,0.604,1.35,0.604c0.646,0,1.109-0.188,1.389-0.561
		c0.277-0.371,0.416-0.871,0.416-1.498v-1.148c0-0.566-0.158-1.053-0.477-1.453c-0.318-0.402-0.771-0.605-1.357-0.605
		c-0.596,0-1.051,0.203-1.365,0.605c-0.312,0.4-0.469,0.887-0.469,1.453v1.148H576.38z"/>
</g>
<g>
	<path d="M642.927,340.552l-3.461-5.547h-1.594v5.547h-2.24v-13.885h4.896c1.586,0,2.789,0.387,3.607,1.16s1.23,1.797,1.23,3.066
		c0,1.09-0.305,1.98-0.914,2.676c-0.611,0.695-1.492,1.141-2.646,1.338l3.639,5.645H642.927L642.927,340.552z M637.875,333.414
		h2.479c1.811,0,2.715-0.801,2.715-2.4c0-0.76-0.221-1.354-0.66-1.779s-1.123-0.639-2.055-0.639h-2.479V333.414z"/>
	<path d="M657.384,335.576h-8.34c0.039,1.115,0.35,1.939,0.926,2.479c0.576,0.537,1.291,0.807,2.145,0.807
		c0.746,0,1.379-0.189,1.896-0.57c0.518-0.379,0.836-0.885,0.953-1.514h2.4c-0.146,0.76-0.447,1.436-0.904,2.025
		c-0.461,0.59-1.057,1.051-1.791,1.385c-0.732,0.336-1.553,0.504-2.457,0.504c-1.051,0-1.977-0.225-2.783-0.67
		s-1.439-1.088-1.896-1.928c-0.461-0.838-0.689-1.828-0.689-2.969c0-1.129,0.23-2.111,0.689-2.951
		c0.457-0.838,1.09-1.48,1.896-1.928c0.807-0.445,1.732-0.668,2.783-0.668c1.062,0,1.988,0.221,2.781,0.658
		c0.793,0.439,1.404,1.043,1.83,1.811c0.426,0.766,0.639,1.621,0.639,2.566C657.462,334.978,657.437,335.3,657.384,335.576z
		 M654.837,332.773c-0.27-0.479-0.637-0.832-1.102-1.062c-0.465-0.229-0.975-0.344-1.523-0.344c-0.879,0-1.613,0.27-2.203,0.807
		s-0.91,1.33-0.965,2.379h6.156C655.226,333.845,655.105,333.251,654.837,332.773z"/>
	<path d="M665.074,338.603v1.947h-1.377c-1.154,0-2.029-0.277-2.625-0.836c-0.598-0.557-0.896-1.482-0.896-2.783v-5.309h-1.555
		v-1.908h1.555v-2.693h2.262v2.693h2.617v1.908h-2.617v5.35c0,0.615,0.115,1.041,0.346,1.277c0.229,0.236,0.631,0.355,1.209,0.355
		h1.082V338.603z"/>
	<path d="M674.041,330.306c0.695,0.484,1.188,1.127,1.477,1.928v-2.518h2.24v10.836h-2.24v-2.518
		c-0.289,0.799-0.781,1.441-1.477,1.928c-0.693,0.484-1.533,0.729-2.518,0.729c-0.943,0-1.785-0.225-2.527-0.67
		c-0.74-0.445-1.32-1.088-1.74-1.928c-0.42-0.838-0.629-1.828-0.629-2.969c0-1.129,0.209-2.111,0.629-2.951
		c0.422-0.838,1-1.48,1.74-1.928c0.742-0.445,1.584-0.668,2.527-0.668C672.507,329.578,673.345,329.82,674.041,330.306z
		 M669.822,332.498c-0.596,0.637-0.895,1.512-0.895,2.627c0,1.113,0.299,1.988,0.895,2.625c0.598,0.637,1.395,0.953,2.391,0.953
		c0.629,0,1.193-0.146,1.691-0.441s0.891-0.711,1.18-1.25c0.287-0.537,0.434-1.166,0.434-1.887c0-0.709-0.146-1.334-0.434-1.879
		c-0.289-0.543-0.682-0.963-1.18-1.258s-1.062-0.443-1.691-0.443C671.216,331.544,670.419,331.863,669.822,332.498z"/>
	<path d="M680.531,325.625c0.262-0.248,0.609-0.373,1.041-0.373c0.434,0,0.785,0.125,1.053,0.373c0.27,0.25,0.404,0.562,0.404,0.943
		s-0.135,0.688-0.404,0.926c-0.268,0.236-0.619,0.354-1.053,0.354c-0.432,0-0.779-0.117-1.041-0.354
		c-0.264-0.238-0.395-0.545-0.395-0.926S680.267,325.875,680.531,325.625z M682.693,329.716v10.836h-2.24v-10.836H682.693z"/>
	<path d="M687.65,325.998v14.555h-2.242v-14.555H687.65z"/>
	<path d="M702.261,340.552l-3.461-5.547h-1.594v5.547h-2.242v-13.885h4.896c1.586,0,2.789,0.387,3.609,1.16
		c0.818,0.773,1.229,1.797,1.229,3.066c0,1.09-0.305,1.98-0.914,2.676s-1.492,1.141-2.645,1.338l3.639,5.645H702.261
		L702.261,340.552z M697.207,333.414h2.48c1.809,0,2.713-0.801,2.713-2.4c0-0.76-0.219-1.354-0.658-1.779s-1.125-0.639-2.055-0.639
		h-2.48V333.414z"/>
	<path d="M716.716,335.576h-8.338c0.039,1.115,0.348,1.939,0.924,2.479c0.576,0.537,1.291,0.807,2.145,0.807
		c0.748,0,1.381-0.189,1.896-0.57c0.52-0.379,0.836-0.885,0.955-1.514h2.398c-0.145,0.76-0.445,1.436-0.904,2.025
		s-1.055,1.051-1.789,1.385c-0.734,0.336-1.555,0.504-2.459,0.504c-1.049,0-1.977-0.225-2.783-0.67s-1.438-1.088-1.896-1.928
		c-0.459-0.838-0.688-1.828-0.688-2.969c0-1.129,0.229-2.111,0.688-2.951c0.459-0.838,1.092-1.48,1.896-1.928
		c0.809-0.445,1.734-0.668,2.783-0.668c1.062,0,1.99,0.221,2.783,0.658c0.793,0.439,1.402,1.043,1.828,1.811
		c0.426,0.766,0.641,1.621,0.641,2.566C716.796,334.978,716.769,335.3,716.716,335.576z M714.169,332.773
		c-0.268-0.479-0.635-0.832-1.102-1.062c-0.465-0.229-0.975-0.344-1.523-0.344c-0.879,0-1.611,0.27-2.203,0.807
		c-0.59,0.537-0.91,1.33-0.963,2.379h6.156C714.56,333.845,714.439,333.251,714.169,332.773z"/>
	<path d="M723.404,338.232l3.068-8.518h2.396l-4.129,10.836h-2.715l-4.129-10.836h2.398L723.404,338.232z"/>
	<path d="M740.513,335.576h-8.34c0.039,1.115,0.35,1.939,0.926,2.479c0.576,0.537,1.291,0.807,2.145,0.807
		c0.746,0,1.379-0.189,1.896-0.57c0.518-0.379,0.836-0.885,0.953-1.514h2.4c-0.146,0.76-0.447,1.436-0.904,2.025
		c-0.461,0.59-1.057,1.051-1.791,1.385c-0.732,0.336-1.553,0.504-2.457,0.504c-1.051,0-1.977-0.225-2.783-0.67
		s-1.439-1.088-1.896-1.928c-0.461-0.838-0.688-1.828-0.688-2.969c0-1.129,0.229-2.111,0.688-2.951
		c0.457-0.838,1.09-1.48,1.896-1.928c0.807-0.445,1.732-0.668,2.783-0.668c1.062,0,1.988,0.221,2.781,0.658
		c0.793,0.439,1.404,1.043,1.83,1.811c0.426,0.766,0.639,1.621,0.639,2.566C740.593,334.978,740.566,335.3,740.513,335.576z
		 M737.966,332.773c-0.268-0.479-0.635-0.832-1.102-1.062c-0.465-0.229-0.973-0.344-1.523-0.344c-0.879,0-1.611,0.27-2.201,0.807
		c-0.592,0.537-0.912,1.33-0.965,2.379h6.156C738.357,333.845,738.236,333.251,737.966,332.773z"/>
	<path d="M751.841,330.757c0.762,0.814,1.143,1.975,1.143,3.48v6.312h-2.242v-6.076c0-0.971-0.25-1.721-0.748-2.252
		c-0.498-0.529-1.18-0.797-2.045-0.797c-0.893,0-1.607,0.285-2.145,0.855s-0.807,1.406-0.807,2.508v5.762h-2.242v-10.836h2.242
		v2.379c0.289-0.811,0.773-1.439,1.455-1.887c0.682-0.445,1.469-0.67,2.359-0.67C750.072,329.539,751.082,329.945,751.841,330.757z"
		/>
	<path d="M765.589,329.716v10.836h-2.262v-2.359c-0.275,0.799-0.754,1.42-1.436,1.857c-0.684,0.439-1.477,0.658-2.381,0.658
		c-1.26,0-2.27-0.406-3.027-1.219c-0.762-0.812-1.143-1.975-1.143-3.48v-6.293h2.242v6.057c0,0.982,0.248,1.74,0.748,2.271
		c0.498,0.531,1.18,0.797,2.045,0.797c0.893,0,1.605-0.289,2.145-0.865c0.537-0.576,0.807-1.416,0.807-2.518v-5.742H765.589
		L765.589,329.716z"/>
	<path d="M778.273,335.576h-8.338c0.039,1.115,0.348,1.939,0.924,2.479c0.576,0.537,1.291,0.807,2.145,0.807
		c0.746,0,1.379-0.189,1.896-0.57c0.518-0.379,0.836-0.885,0.955-1.514h2.398c-0.145,0.76-0.445,1.436-0.904,2.025
		c-0.461,0.59-1.057,1.051-1.789,1.385c-0.734,0.336-1.555,0.504-2.459,0.504c-1.051,0-1.977-0.225-2.783-0.67
		s-1.439-1.088-1.896-1.928c-0.461-0.838-0.688-1.828-0.688-2.969c0-1.129,0.229-2.111,0.688-2.951
		c0.457-0.838,1.09-1.48,1.896-1.928c0.807-0.445,1.732-0.668,2.783-0.668c1.062,0,1.988,0.221,2.781,0.658
		c0.793,0.439,1.404,1.043,1.83,1.811c0.426,0.766,0.641,1.621,0.641,2.566C778.353,334.978,778.326,335.3,778.273,335.576z
		 M775.726,332.773c-0.27-0.479-0.637-0.832-1.102-1.062c-0.465-0.229-0.975-0.344-1.523-0.344c-0.879,0-1.613,0.27-2.203,0.807
		s-0.91,1.33-0.963,2.379h6.154C776.117,333.845,775.996,333.251,775.726,332.773z"/>
	<path d="M782.246,340.886c0,0.734-0.189,1.334-0.57,1.799c-0.381,0.467-0.955,0.699-1.729,0.699v-0.904
		c0.326,0,0.57-0.086,0.727-0.256c0.158-0.172,0.236-0.459,0.236-0.865v-0.178h-1.141v-2.164h2.123
		C782.128,339.621,782.246,340.244,782.246,340.886z"/>
	<path d="M796.208,340.552l-3.461-5.547h-1.594v5.547h-2.24v-13.885h4.896c1.586,0,2.789,0.387,3.607,1.16s1.23,1.797,1.23,3.066
		c0,1.09-0.307,1.98-0.914,2.676c-0.611,0.695-1.492,1.141-2.646,1.338l3.639,5.645H796.208L796.208,340.552z M791.154,333.414
		h2.479c1.811,0,2.715-0.801,2.715-2.4c0-0.76-0.221-1.354-0.658-1.779c-0.439-0.426-1.125-0.639-2.057-0.639h-2.479V333.414z"/>
	<path d="M810.664,335.576h-8.338c0.039,1.115,0.348,1.939,0.924,2.479c0.576,0.537,1.291,0.807,2.145,0.807
		c0.748,0,1.381-0.189,1.896-0.57c0.52-0.379,0.836-0.885,0.955-1.514h2.398c-0.145,0.76-0.445,1.436-0.904,2.025
		s-1.055,1.051-1.789,1.385c-0.734,0.336-1.555,0.504-2.459,0.504c-1.049,0-1.977-0.225-2.783-0.67s-1.438-1.088-1.896-1.928
		c-0.459-0.838-0.688-1.828-0.688-2.969c0-1.129,0.229-2.111,0.688-2.951c0.459-0.838,1.092-1.48,1.896-1.928
		c0.809-0.445,1.734-0.668,2.783-0.668c1.062,0,1.99,0.221,2.783,0.658c0.793,0.439,1.402,1.043,1.828,1.811
		c0.426,0.766,0.641,1.621,0.641,2.566C810.744,334.978,810.716,335.3,810.664,335.576z M808.117,332.773
		c-0.268-0.479-0.635-0.832-1.102-1.062c-0.465-0.229-0.975-0.344-1.523-0.344c-0.879,0-1.613,0.27-2.203,0.807
		s-0.91,1.33-0.963,2.379h6.156C808.507,333.845,808.384,333.251,808.117,332.773z"/>
	<path d="M821.205,330.687c0.918,0.742,1.488,1.748,1.711,3.021h-2.379c-0.131-0.682-0.449-1.217-0.953-1.605
		c-0.506-0.385-1.139-0.578-1.898-0.578c-0.865,0-1.586,0.305-2.162,0.914c-0.578,0.609-0.865,1.504-0.865,2.686
		c0,1.18,0.287,2.078,0.865,2.693c0.576,0.615,1.297,0.924,2.162,0.924c0.762,0,1.395-0.195,1.898-0.59s0.822-0.932,0.953-1.611
		h2.379c-0.223,1.27-0.793,2.281-1.711,3.027c-0.918,0.748-2.078,1.121-3.479,1.121c-1.051,0-1.979-0.223-2.783-0.67
		c-0.809-0.443-1.439-1.088-1.898-1.926c-0.459-0.84-0.688-1.83-0.688-2.971c0-1.127,0.229-2.111,0.688-2.949
		c0.459-0.84,1.092-1.48,1.898-1.928c0.807-0.445,1.732-0.668,2.783-0.668C819.126,329.578,820.287,329.949,821.205,330.687z"/>
	<path d="M832.867,330.246c0.84,0.447,1.494,1.09,1.967,1.928c0.473,0.84,0.707,1.822,0.707,2.951c0,1.141-0.234,2.131-0.707,2.969
		c-0.473,0.84-1.127,1.482-1.967,1.928s-1.783,0.67-2.832,0.67s-1.99-0.225-2.822-0.67s-1.486-1.092-1.967-1.938
		c-0.479-0.846-0.717-1.832-0.717-2.959c0-1.129,0.238-2.111,0.717-2.951c0.48-0.838,1.135-1.48,1.967-1.928
		c0.832-0.445,1.773-0.668,2.822-0.668S832.027,329.8,832.867,330.246z M828.441,331.917c-0.484,0.264-0.875,0.666-1.17,1.211
		c-0.295,0.543-0.441,1.209-0.441,1.996c0,0.799,0.146,1.469,0.441,2.006s0.686,0.938,1.17,1.199s1.018,0.393,1.594,0.393
		s1.107-0.131,1.594-0.393c0.484-0.262,0.875-0.662,1.17-1.199s0.441-1.207,0.441-2.006c0-0.787-0.146-1.453-0.441-1.996
		c-0.295-0.545-0.686-0.947-1.17-1.211c-0.484-0.262-1.018-0.393-1.594-0.393S828.927,331.656,828.441,331.917z"/>
	<path d="M842.15,338.232l3.066-8.518h2.398l-4.129,10.836h-2.715l-4.129-10.836h2.398L842.15,338.232z"/>
	<path d="M859.259,335.576h-8.338c0.039,1.115,0.348,1.939,0.926,2.479c0.574,0.537,1.291,0.807,2.143,0.807
		c0.748,0,1.381-0.189,1.896-0.57c0.52-0.379,0.838-0.885,0.955-1.514h2.398c-0.145,0.76-0.445,1.436-0.904,2.025
		s-1.055,1.051-1.789,1.385c-0.734,0.336-1.555,0.504-2.459,0.504c-1.049,0-1.977-0.225-2.783-0.67s-1.438-1.088-1.896-1.928
		c-0.459-0.838-0.688-1.828-0.688-2.969c0-1.129,0.229-2.111,0.688-2.951c0.459-0.838,1.092-1.48,1.896-1.928
		c0.809-0.445,1.734-0.668,2.783-0.668c1.062,0,1.99,0.221,2.783,0.658c0.793,0.439,1.402,1.043,1.828,1.811
		c0.426,0.766,0.641,1.621,0.641,2.566C859.339,334.978,859.312,335.3,859.259,335.576z M856.712,332.773
		c-0.268-0.479-0.635-0.832-1.102-1.062c-0.465-0.229-0.973-0.344-1.523-0.344c-0.879,0-1.611,0.27-2.203,0.807
		c-0.59,0.537-0.91,1.33-0.963,2.379h6.156C857.103,333.845,856.982,333.251,856.712,332.773z"/>
	<path d="M865.316,330.158c0.682-0.412,1.469-0.619,2.359-0.619v2.438h-0.668c-0.982,0-1.773,0.24-2.369,0.719
		c-0.598,0.479-0.896,1.27-0.896,2.369v5.486h-2.24v-10.836h2.24v2.125C864.111,331.132,864.634,330.572,865.316,330.158z"/>
	<path d="M869.427,325.625c0.264-0.248,0.609-0.373,1.041-0.373c0.436,0,0.785,0.125,1.055,0.373
		c0.268,0.25,0.402,0.562,0.402,0.943s-0.135,0.688-0.402,0.926c-0.27,0.236-0.619,0.354-1.055,0.354
		c-0.432,0-0.777-0.117-1.041-0.354c-0.264-0.238-0.395-0.545-0.395-0.926S869.164,325.875,869.427,325.625z M871.589,329.716
		v10.836h-2.24v-10.836H871.589z"/>
	<path d="M884.294,335.576h-8.338c0.039,1.115,0.348,1.939,0.924,2.479c0.576,0.537,1.291,0.807,2.145,0.807
		c0.748,0,1.381-0.189,1.896-0.57c0.52-0.379,0.836-0.885,0.955-1.514h2.398c-0.145,0.76-0.445,1.436-0.904,2.025
		s-1.055,1.051-1.789,1.385c-0.734,0.336-1.555,0.504-2.459,0.504c-1.049,0-1.977-0.225-2.783-0.67s-1.438-1.088-1.896-1.928
		c-0.459-0.838-0.688-1.828-0.688-2.969c0-1.129,0.229-2.111,0.688-2.951c0.459-0.838,1.092-1.48,1.896-1.928
		c0.809-0.445,1.734-0.668,2.783-0.668c1.062,0,1.99,0.221,2.783,0.658c0.793,0.439,1.402,1.043,1.828,1.811
		c0.426,0.766,0.641,1.621,0.641,2.566C884.375,334.978,884.347,335.3,884.294,335.576z M881.748,332.773
		c-0.268-0.479-0.635-0.832-1.102-1.062c-0.465-0.229-0.975-0.344-1.523-0.344c-0.879,0-1.613,0.27-2.203,0.807
		s-0.91,1.33-0.963,2.379h6.156C882.138,333.845,882.017,333.251,881.748,332.773z"/>
	<path d="M893.154,330.55c0.768,0.65,1.236,1.52,1.406,2.607h-2.123c-0.094-0.59-0.346-1.066-0.758-1.426
		c-0.412-0.361-0.961-0.541-1.643-0.541c-0.562,0-1,0.135-1.309,0.402c-0.309,0.27-0.461,0.633-0.461,1.092
		c0,0.342,0.109,0.615,0.334,0.824c0.223,0.211,0.502,0.375,0.836,0.492c0.334,0.119,0.809,0.25,1.426,0.395
		c0.811,0.184,1.471,0.373,1.977,0.57c0.504,0.195,0.938,0.508,1.297,0.934c0.361,0.428,0.541,1.008,0.541,1.74
		c0,0.904-0.344,1.641-1.031,2.203s-1.615,0.846-2.783,0.846c-1.352,0-2.441-0.314-3.273-0.943
		c-0.834-0.629-1.334-1.508-1.506-2.635h2.186c0.064,0.59,0.326,1.066,0.785,1.436c0.459,0.367,1.062,0.551,1.811,0.551
		c0.537,0,0.959-0.141,1.268-0.424c0.309-0.281,0.463-0.639,0.463-1.072c0-0.379-0.117-0.682-0.354-0.902
		c-0.236-0.225-0.531-0.396-0.885-0.521c-0.355-0.125-0.84-0.252-1.457-0.385c-0.785-0.182-1.426-0.365-1.916-0.549
		c-0.492-0.186-0.912-0.482-1.26-0.896s-0.521-0.975-0.521-1.682c0-0.918,0.346-1.662,1.033-2.232
		c0.688-0.568,1.643-0.854,2.861-0.854C891.369,329.578,892.388,329.902,893.154,330.55z"/>
</g>
<g>
	<path d="M643.912,367.042h-5.859l-1.062,3.01h-2.398l5.113-13.668h2.576l5.094,13.668h-2.398L643.912,367.042z M643.283,365.312
		l-2.301-6.49l-2.301,6.49H643.283z"/>
	<path d="M658.13,360.257c0.762,0.814,1.143,1.975,1.143,3.48v6.312h-2.242v-6.076c0-0.971-0.25-1.721-0.748-2.252
		c-0.498-0.529-1.18-0.797-2.045-0.797c-0.893,0-1.607,0.285-2.145,0.855c-0.539,0.57-0.807,1.406-0.807,2.508v5.762h-2.242v-10.836
		h2.242v2.379c0.289-0.811,0.773-1.439,1.455-1.887c0.682-0.445,1.469-0.67,2.359-0.67
		C656.361,359.039,657.371,359.445,658.13,360.257z"/>
	<path d="M668.751,359.806c0.693,0.484,1.18,1.127,1.455,1.928V355.5h2.262v14.553h-2.262v-2.518
		c-0.275,0.801-0.762,1.441-1.455,1.928c-0.695,0.486-1.535,0.729-2.518,0.729c-0.943,0-1.787-0.223-2.527-0.67
		c-0.74-0.443-1.32-1.088-1.74-1.926c-0.42-0.84-0.629-1.83-0.629-2.971c0-1.127,0.209-2.111,0.629-2.949
		c0.42-0.84,1-1.48,1.74-1.928c0.74-0.445,1.584-0.668,2.527-0.668C667.216,359.078,668.056,359.32,668.751,359.806z
		 M664.533,361.998c-0.598,0.637-0.896,1.512-0.896,2.627c0,1.113,0.299,1.988,0.896,2.625c0.596,0.637,1.393,0.953,2.389,0.953
		c0.631,0,1.193-0.146,1.691-0.441s0.893-0.711,1.18-1.25c0.289-0.537,0.434-1.166,0.434-1.887c0-0.709-0.145-1.334-0.434-1.879
		c-0.287-0.543-0.682-0.963-1.18-1.258s-1.062-0.443-1.691-0.443C665.925,361.044,665.128,361.363,664.533,361.998z"/>
	<path d="M689.687,356.894c1.041,0.605,1.859,1.445,2.457,2.527s0.895,2.305,0.895,3.668s-0.297,2.586-0.895,3.668
		s-1.416,1.928-2.457,2.537c-1.043,0.609-2.207,0.914-3.492,0.914c-1.297,0-2.467-0.305-3.51-0.914s-1.865-1.455-2.469-2.537
		s-0.904-2.305-0.904-3.668s0.301-2.586,0.904-3.668s1.426-1.924,2.469-2.527c1.043-0.602,2.213-0.902,3.51-0.902
		C687.48,355.99,688.644,356.292,689.687,356.894z M683.816,358.685c-0.695,0.406-1.236,0.99-1.623,1.75
		c-0.387,0.762-0.58,1.646-0.58,2.654c0,1.01,0.193,1.896,0.58,2.656s0.928,1.344,1.623,1.75c0.693,0.406,1.486,0.607,2.379,0.607
		c0.879,0,1.662-0.201,2.352-0.607c0.688-0.406,1.227-0.99,1.611-1.75c0.387-0.762,0.58-1.646,0.58-2.656
		c0-1.008-0.193-1.895-0.58-2.654s-0.924-1.344-1.611-1.75s-1.473-0.609-2.352-0.609
		C685.302,358.076,684.509,358.279,683.816,358.685z"/>
	<path d="M700.748,368.103v1.947h-1.377c-1.152,0-2.027-0.277-2.625-0.836c-0.596-0.557-0.895-1.482-0.895-2.783v-5.309h-1.555
		v-1.908h1.555v-2.693h2.262v2.693h2.615v1.908h-2.615v5.35c0,0.615,0.115,1.041,0.344,1.277c0.23,0.236,0.633,0.355,1.209,0.355
		h1.082V368.103z"/>
	<path d="M711.939,360.257c0.76,0.814,1.141,1.975,1.141,3.48v6.312h-2.242v-6.076c0-0.971-0.25-1.721-0.748-2.252
		c-0.498-0.529-1.18-0.797-2.045-0.797c-0.893,0-1.605,0.285-2.145,0.855c-0.537,0.57-0.807,1.406-0.807,2.508v5.762h-2.24v-14.553
		h2.24v6.096c0.289-0.811,0.773-1.439,1.455-1.887c0.684-0.445,1.469-0.67,2.359-0.67
		C710.167,359.039,711.177,359.445,711.939,360.257z"/>
	<path d="M725.685,365.076h-8.338c0.037,1.115,0.348,1.939,0.924,2.479c0.576,0.537,1.291,0.807,2.145,0.807
		c0.746,0,1.379-0.189,1.896-0.57c0.518-0.379,0.836-0.885,0.955-1.514h2.398c-0.145,0.76-0.447,1.436-0.904,2.025
		c-0.461,0.59-1.057,1.051-1.791,1.385c-0.732,0.336-1.553,0.504-2.457,0.504c-1.051,0-1.977-0.225-2.783-0.67
		s-1.439-1.088-1.896-1.928c-0.461-0.838-0.688-1.828-0.688-2.969c0-1.129,0.229-2.111,0.688-2.951
		c0.457-0.838,1.09-1.48,1.896-1.928c0.807-0.445,1.732-0.668,2.783-0.668c1.062,0,1.988,0.221,2.781,0.658
		c0.793,0.439,1.404,1.043,1.83,1.811c0.426,0.766,0.639,1.621,0.639,2.566C725.765,364.478,725.738,364.8,725.685,365.076z
		 M723.138,362.273c-0.27-0.479-0.637-0.832-1.102-1.062c-0.465-0.229-0.975-0.344-1.523-0.344c-0.879,0-1.613,0.27-2.203,0.807
		s-0.91,1.33-0.963,2.379h6.154C723.529,363.345,723.408,362.751,723.138,362.273z"/>
	<path d="M731.742,359.658c0.682-0.412,1.469-0.619,2.361-0.619v2.438h-0.67c-0.982,0-1.773,0.24-2.369,0.719
		c-0.598,0.479-0.896,1.27-0.896,2.369v5.486h-2.24v-10.836h2.24v2.125C730.537,360.632,731.06,360.072,731.742,359.658z"/>
</g>
<g>
	<path fill="#BCBEC0" d="M536.099,442.027l6.295-0.768v-25.227h-6.371v-4.273l13.816-2.506v32.006l6.293,0.768v4.479h-20.033
		V442.027z"/>
</g>
<g>
	<path fill="#BCBEC0" d="M558.322,411.515c0-1.281,0.414-2.352,1.246-3.207c0.828-0.854,1.984-1.281,3.467-1.281
		c1.502,0,2.666,0.426,3.49,1.275s1.238,1.92,1.238,3.213v1.148c0,1.283-0.414,2.348-1.238,3.191
		c-0.824,0.846-1.979,1.27-3.461,1.27c-1.49,0-2.654-0.424-3.49-1.27c-0.834-0.846-1.252-1.908-1.252-3.191V411.515z
		 M561.216,412.664c0,0.578,0.158,1.062,0.477,1.455s0.775,0.59,1.373,0.59c0.576,0,1.023-0.197,1.342-0.59
		c0.318-0.395,0.479-0.877,0.479-1.455v-1.148c0-0.574-0.162-1.064-0.484-1.469c-0.324-0.402-0.777-0.604-1.365-0.604
		c-0.586,0-1.037,0.201-1.35,0.604s-0.471,0.895-0.471,1.469V412.664L561.216,412.664z M564.302,427.431l-2.117-1.119l10.605-16.975
		l2.117,1.119L564.302,427.431z M568.703,423.732c0-1.273,0.418-2.338,1.254-3.191c0.834-0.855,1.992-1.283,3.475-1.283
		c1.492,0,2.652,0.424,3.482,1.275c0.83,0.85,1.246,1.916,1.246,3.199v1.146c0,1.293-0.412,2.363-1.238,3.207
		c-0.824,0.846-1.979,1.268-3.461,1.268c-1.49,0-2.656-0.424-3.496-1.273c-0.842-0.852-1.262-1.916-1.262-3.199V423.732z
		 M571.597,424.88c0,0.566,0.172,1.051,0.516,1.455c0.342,0.402,0.793,0.604,1.35,0.604c0.646,0,1.109-0.188,1.387-0.561
		c0.279-0.371,0.418-0.871,0.418-1.498v-1.148c0-0.566-0.158-1.053-0.477-1.453c-0.318-0.402-0.771-0.605-1.357-0.605
		c-0.598,0-1.053,0.203-1.365,0.605c-0.312,0.4-0.471,0.887-0.471,1.453V424.88L571.597,424.88z"/>
</g>
<g>
	<path d="M637.875,404.208v13.885h-2.242v-13.885H637.875z"/>
	<path d="M649.675,408.298c0.76,0.814,1.141,1.975,1.141,3.48v6.312h-2.242v-6.076c0-0.971-0.248-1.721-0.746-2.252
		c-0.5-0.529-1.182-0.797-2.047-0.797c-0.893,0-1.605,0.285-2.145,0.855c-0.537,0.57-0.807,1.406-0.807,2.508v5.762h-2.24v-10.836
		h2.24v2.379c0.289-0.811,0.773-1.439,1.457-1.887c0.682-0.445,1.467-0.67,2.359-0.67
		C647.904,407.08,648.914,407.486,649.675,408.298z"/>
	<path d="M662.171,407.787c0.742,0.447,1.322,1.09,1.74,1.928c0.42,0.84,0.631,1.822,0.631,2.951c0,1.141-0.211,2.131-0.631,2.969
		c-0.418,0.84-0.998,1.482-1.74,1.928c-0.738,0.445-1.582,0.67-2.525,0.67c-0.984,0-1.822-0.242-2.518-0.729
		s-1.182-1.129-1.457-1.928v7.67h-2.24v-15.988h2.24v2.518c0.275-0.801,0.762-1.441,1.457-1.928
		c0.693-0.484,1.533-0.729,2.518-0.729C660.589,407.119,661.431,407.341,662.171,407.787z M657.265,409.529
		c-0.498,0.295-0.893,0.715-1.182,1.258c-0.287,0.545-0.432,1.17-0.432,1.879c0,0.721,0.145,1.35,0.432,1.887
		c0.289,0.539,0.684,0.955,1.182,1.25s1.062,0.441,1.691,0.441c0.996,0,1.795-0.316,2.398-0.953s0.904-1.512,0.904-2.625
		c0-1.104-0.303-1.975-0.904-2.617c-0.604-0.641-1.402-0.963-2.398-0.963C658.328,409.085,657.763,409.234,657.265,409.529z"/>
	<path d="M673.57,407.847c0.693,0.484,1.186,1.127,1.475,1.928v-2.518h2.242v10.836h-2.242v-2.518
		c-0.289,0.799-0.779,1.441-1.475,1.928c-0.695,0.484-1.535,0.729-2.52,0.729c-0.941,0-1.785-0.225-2.525-0.67
		s-1.32-1.088-1.74-1.928c-0.42-0.838-0.629-1.828-0.629-2.969c0-1.129,0.209-2.111,0.629-2.951c0.42-0.838,1-1.48,1.74-1.928
		c0.74-0.445,1.584-0.668,2.525-0.668C672.035,407.119,672.875,407.361,673.57,407.847z M669.351,410.039
		c-0.598,0.637-0.896,1.512-0.896,2.627c0,1.113,0.299,1.988,0.896,2.625c0.596,0.637,1.393,0.953,2.389,0.953
		c0.631,0,1.193-0.146,1.691-0.441s0.893-0.711,1.18-1.25c0.289-0.537,0.434-1.166,0.434-1.887c0-0.709-0.145-1.334-0.434-1.879
		c-0.287-0.543-0.682-0.963-1.18-1.258s-1.062-0.443-1.691-0.443C670.744,409.085,669.947,409.404,669.351,410.039z"/>
	<path d="M685.427,416.146v1.947h-1.377c-1.152,0-2.027-0.277-2.625-0.836c-0.598-0.557-0.896-1.484-0.896-2.783v-5.311h-1.553
		v-1.906h1.553v-2.695h2.262v2.695h2.617v1.906h-2.617v5.35c0,0.617,0.115,1.043,0.346,1.279c0.229,0.234,0.633,0.354,1.209,0.354
		H685.427L685.427,416.146z"/>
	<path d="M687.611,403.166c0.262-0.248,0.607-0.373,1.041-0.373s0.785,0.125,1.053,0.373c0.27,0.25,0.404,0.562,0.404,0.943
		s-0.135,0.688-0.404,0.926c-0.268,0.236-0.619,0.354-1.053,0.354s-0.779-0.117-1.041-0.354c-0.264-0.238-0.395-0.545-0.395-0.926
		S687.347,403.416,687.611,403.166z M689.773,407.257v10.836h-2.24v-10.836H689.773z"/>
	<path d="M702.478,413.117h-8.338c0.039,1.115,0.348,1.939,0.924,2.479c0.576,0.537,1.291,0.807,2.145,0.807
		c0.746,0,1.379-0.189,1.896-0.57c0.518-0.379,0.836-0.885,0.955-1.514h2.398c-0.145,0.76-0.447,1.436-0.904,2.025
		c-0.461,0.59-1.057,1.051-1.789,1.385c-0.734,0.336-1.555,0.504-2.459,0.504c-1.051,0-1.977-0.225-2.783-0.67
		s-1.439-1.088-1.896-1.928c-0.461-0.838-0.688-1.828-0.688-2.969c0-1.129,0.229-2.111,0.688-2.951
		c0.457-0.838,1.09-1.48,1.896-1.928c0.807-0.445,1.732-0.668,2.783-0.668c1.062,0,1.988,0.221,2.781,0.658
		c0.793,0.439,1.404,1.043,1.83,1.811c0.426,0.766,0.641,1.621,0.641,2.566C702.558,412.521,702.531,412.841,702.478,413.117z
		 M699.931,410.314c-0.27-0.479-0.637-0.832-1.102-1.062c-0.465-0.229-0.975-0.344-1.523-0.344c-0.879,0-1.613,0.27-2.203,0.807
		s-0.91,1.33-0.963,2.379h6.154C700.322,411.386,700.201,410.792,699.931,410.314z"/>
	<path d="M713.806,408.298c0.76,0.814,1.141,1.975,1.141,3.48v6.312h-2.242v-6.076c0-0.971-0.248-1.721-0.746-2.252
		c-0.5-0.529-1.182-0.797-2.047-0.797c-0.891,0-1.605,0.285-2.143,0.855c-0.539,0.57-0.809,1.406-0.809,2.508v5.762h-2.24v-10.836
		h2.24v2.379c0.289-0.811,0.773-1.439,1.457-1.887c0.682-0.445,1.467-0.67,2.359-0.67
		C712.037,407.08,713.046,407.486,713.806,408.298z"/>
	<path d="M723.009,416.146v1.947h-1.377c-1.152,0-2.027-0.277-2.625-0.836c-0.596-0.557-0.895-1.484-0.895-2.783v-5.311h-1.555
		v-1.906h1.555v-2.695h2.262v2.695h2.615v1.906h-2.615v5.35c0,0.617,0.115,1.043,0.344,1.279c0.23,0.234,0.633,0.354,1.209,0.354
		H723.009L723.009,416.146z"/>
	<path d="M737.996,415.083h-5.859l-1.062,3.01h-2.398l5.113-13.668h2.576l5.094,13.668h-2.398L737.996,415.083z M737.367,413.353
		l-2.301-6.488l-2.301,6.488H737.367z"/>
	<path d="M752.216,408.298c0.76,0.814,1.141,1.975,1.141,3.48v6.312h-2.242v-6.076c0-0.971-0.248-1.721-0.746-2.252
		c-0.5-0.529-1.182-0.797-2.047-0.797c-0.893,0-1.605,0.285-2.145,0.855c-0.537,0.57-0.807,1.406-0.807,2.508v5.762h-2.24v-10.836
		h2.24v2.379c0.289-0.811,0.773-1.439,1.457-1.887c0.682-0.445,1.467-0.67,2.359-0.67
		C750.445,407.08,751.455,407.486,752.216,408.298z"/>
	<path d="M762.835,407.847c0.693,0.484,1.18,1.127,1.455,1.928v-6.234h2.262v14.553h-2.262v-2.518
		c-0.275,0.801-0.762,1.441-1.455,1.928c-0.695,0.486-1.535,0.729-2.518,0.729c-0.943,0-1.787-0.223-2.527-0.67
		c-0.74-0.443-1.32-1.088-1.74-1.926c-0.42-0.84-0.629-1.83-0.629-2.971c0-1.127,0.209-2.111,0.629-2.949
		c0.42-0.84,1-1.48,1.74-1.928c0.74-0.445,1.584-0.668,2.527-0.668C761.3,407.119,762.14,407.361,762.835,407.847z M758.617,410.039
		c-0.598,0.637-0.895,1.512-0.895,2.627c0,1.113,0.297,1.988,0.895,2.625c0.596,0.637,1.393,0.953,2.389,0.953
		c0.631,0,1.193-0.146,1.691-0.441s0.893-0.711,1.18-1.25c0.289-0.537,0.434-1.166,0.434-1.887c0-0.709-0.145-1.334-0.434-1.879
		c-0.287-0.543-0.682-0.963-1.18-1.258s-1.062-0.443-1.691-0.443C760.009,409.085,759.212,409.404,758.617,410.039z"/>
</g>
<g>
	<path d="M645.554,434.435c1.043,0.605,1.861,1.445,2.459,2.527c0.596,1.082,0.895,2.305,0.895,3.668s-0.299,2.586-0.895,3.668
		c-0.598,1.082-1.416,1.928-2.459,2.537s-2.205,0.914-3.49,0.914c-1.299,0-2.469-0.305-3.512-0.914s-1.865-1.455-2.469-2.537
		s-0.904-2.305-0.904-3.668s0.303-2.586,0.904-3.668c0.604-1.082,1.426-1.924,2.469-2.527c1.043-0.602,2.213-0.902,3.512-0.902
		C643.349,433.531,644.511,433.833,645.554,434.435z M639.683,436.226c-0.695,0.406-1.234,0.99-1.621,1.75
		c-0.389,0.762-0.58,1.646-0.58,2.654c0,1.01,0.191,1.896,0.58,2.656c0.387,0.76,0.926,1.344,1.621,1.75s1.488,0.607,2.381,0.607
		c0.877,0,1.662-0.201,2.35-0.607c0.689-0.406,1.227-0.99,1.613-1.75c0.387-0.762,0.58-1.646,0.58-2.656
		c0-1.008-0.193-1.895-0.58-2.654s-0.926-1.344-1.613-1.75s-1.473-0.609-2.35-0.609C641.171,435.617,640.378,435.82,639.683,436.226
		z"/>
	<path d="M661.16,436.757v10.836h-2.262v-2.359c-0.275,0.799-0.754,1.42-1.438,1.857c-0.682,0.439-1.475,0.658-2.379,0.658
		c-1.26,0-2.27-0.406-3.029-1.219s-1.141-1.975-1.141-3.48v-6.293h2.242v6.057c0,0.982,0.248,1.74,0.748,2.271
		c0.498,0.531,1.18,0.797,2.045,0.797c0.891,0,1.605-0.289,2.143-0.865c0.539-0.576,0.809-1.416,0.809-2.518v-5.742H661.16
		L661.16,436.757z"/>
	<path d="M669.302,445.646v1.947h-1.377c-1.152,0-2.027-0.277-2.625-0.836c-0.598-0.557-0.896-1.484-0.896-2.783v-5.311h-1.553
		v-1.906h1.553v-2.695h2.262v2.695h2.617v1.906h-2.617v5.35c0,0.617,0.115,1.043,0.346,1.279c0.229,0.234,0.633,0.354,1.209,0.354
		H669.302L669.302,445.646z"/>
	<path d="M680.148,437.287c0.74,0.447,1.32,1.09,1.74,1.928c0.42,0.84,0.629,1.822,0.629,2.951c0,1.141-0.209,2.131-0.629,2.969
		c-0.42,0.84-1,1.482-1.74,1.928s-1.584,0.67-2.527,0.67c-0.982,0-1.822-0.242-2.518-0.729s-1.182-1.129-1.455-1.928v7.67h-2.242
		v-15.988h2.242v2.518c0.273-0.801,0.76-1.441,1.455-1.928c0.693-0.484,1.533-0.729,2.518-0.729
		C678.564,436.619,679.408,436.841,680.148,437.287z M675.242,439.029c-0.5,0.295-0.893,0.715-1.182,1.258
		c-0.287,0.545-0.434,1.17-0.434,1.879c0,0.721,0.146,1.35,0.434,1.887c0.289,0.539,0.682,0.955,1.182,1.25
		c0.498,0.295,1.062,0.441,1.691,0.441c0.994,0,1.795-0.316,2.396-0.953c0.605-0.637,0.906-1.512,0.906-2.625
		c0-1.104-0.303-1.975-0.906-2.617c-0.602-0.641-1.4-0.963-2.396-0.963C676.302,438.585,675.74,438.734,675.242,439.029z"/>
	<path d="M691.544,437.347c0.693,0.484,1.188,1.127,1.475,1.928v-2.518h2.242v10.836h-2.242v-2.518
		c-0.287,0.799-0.779,1.441-1.475,1.928c-0.695,0.484-1.535,0.729-2.518,0.729c-0.943,0-1.787-0.225-2.527-0.67
		s-1.32-1.088-1.74-1.928c-0.42-0.838-0.629-1.828-0.629-2.969c0-1.129,0.209-2.111,0.629-2.951c0.42-0.838,1-1.48,1.74-1.928
		c0.74-0.445,1.584-0.668,2.527-0.668C690.009,436.619,690.849,436.861,691.544,437.347z M687.326,439.539
		c-0.598,0.637-0.895,1.512-0.895,2.627c0,1.113,0.297,1.988,0.895,2.625c0.596,0.637,1.393,0.953,2.389,0.953
		c0.631,0,1.193-0.146,1.691-0.441s0.893-0.711,1.18-1.25c0.289-0.537,0.434-1.166,0.434-1.887c0-0.709-0.145-1.334-0.434-1.879
		c-0.287-0.543-0.682-0.963-1.18-1.258s-1.062-0.443-1.691-0.443C688.718,438.585,687.921,438.904,687.326,439.539z"/>
	<path d="M703.402,445.646v1.947h-1.377c-1.152,0-2.027-0.277-2.625-0.836c-0.598-0.557-0.896-1.484-0.896-2.783v-5.311h-1.553
		v-1.906h1.553v-2.695h2.264v2.695h2.615v1.906h-2.615v5.35c0,0.617,0.113,1.043,0.344,1.279c0.229,0.234,0.633,0.354,1.209,0.354
		H703.402L703.402,445.646z"/>
	<path d="M705.585,432.666c0.264-0.248,0.609-0.373,1.041-0.373c0.436,0,0.785,0.125,1.055,0.373
		c0.268,0.25,0.402,0.562,0.402,0.943s-0.135,0.688-0.402,0.926c-0.27,0.236-0.619,0.354-1.055,0.354
		c-0.432,0-0.777-0.117-1.041-0.354c-0.264-0.238-0.395-0.545-0.395-0.926S705.322,432.916,705.585,432.666z M707.748,436.757
		v10.836h-2.24v-10.836H707.748z"/>
	<path d="M720.453,442.617h-8.338c0.039,1.115,0.348,1.939,0.924,2.479c0.576,0.537,1.291,0.807,2.145,0.807
		c0.748,0,1.381-0.189,1.896-0.57c0.52-0.379,0.836-0.885,0.955-1.514h2.398c-0.145,0.76-0.445,1.436-0.904,2.025
		s-1.057,1.051-1.789,1.385c-0.734,0.336-1.555,0.504-2.459,0.504c-1.049,0-1.977-0.225-2.783-0.67s-1.438-1.088-1.896-1.928
		c-0.459-0.838-0.688-1.828-0.688-2.969c0-1.129,0.229-2.111,0.688-2.951c0.459-0.838,1.092-1.48,1.896-1.928
		c0.807-0.445,1.734-0.668,2.783-0.668c1.062,0,1.99,0.221,2.783,0.658c0.793,0.439,1.402,1.043,1.828,1.811
		c0.426,0.766,0.641,1.621,0.641,2.566C720.533,442.021,720.505,442.341,720.453,442.617z M717.906,439.814
		c-0.268-0.479-0.635-0.832-1.102-1.062c-0.465-0.229-0.975-0.344-1.523-0.344c-0.879,0-1.613,0.27-2.203,0.807
		s-0.91,1.33-0.963,2.379h6.156C718.296,440.886,718.175,440.292,717.906,439.814z"/>
	<path d="M731.781,437.798c0.76,0.814,1.141,1.975,1.141,3.48v6.312h-2.24v-6.076c0-0.971-0.25-1.721-0.748-2.252
		c-0.498-0.529-1.182-0.797-2.047-0.797c-0.891,0-1.605,0.285-2.143,0.855c-0.539,0.57-0.807,1.406-0.807,2.508v5.762h-2.242
		v-10.836h2.242v2.379c0.289-0.811,0.771-1.439,1.455-1.887c0.682-0.445,1.469-0.67,2.359-0.67
		C730.009,436.58,731.021,436.986,731.781,437.798z"/>
	<path d="M740.986,445.646v1.947h-1.377c-1.154,0-2.029-0.277-2.625-0.836c-0.598-0.557-0.896-1.484-0.896-2.783v-5.311h-1.555
		v-1.906h1.555v-2.695h2.262v2.695h2.615v1.906h-2.615v5.35c0,0.617,0.115,1.043,0.346,1.279c0.229,0.234,0.631,0.354,1.209,0.354
		H740.986L740.986,445.646z"/>
	<path d="M758.134,434.869c1.129,0.865,1.889,2.039,2.281,3.52h-2.379c-0.328-0.838-0.85-1.504-1.562-1.996
		c-0.717-0.49-1.592-0.736-2.627-0.736c-0.826,0-1.562,0.203-2.213,0.609c-0.648,0.406-1.16,0.986-1.533,1.74
		s-0.561,1.635-0.561,2.646c0,0.996,0.188,1.871,0.561,2.625s0.885,1.334,1.533,1.74s1.387,0.609,2.213,0.609
		c1.035,0,1.91-0.246,2.627-0.738c0.713-0.49,1.234-1.148,1.562-1.977h2.379c-0.393,1.48-1.152,2.652-2.281,3.512
		s-2.545,1.287-4.248,1.287c-1.311,0-2.473-0.297-3.48-0.895c-1.01-0.598-1.789-1.43-2.34-2.498s-0.826-2.291-0.826-3.668
		s0.275-2.6,0.826-3.668s1.33-1.904,2.34-2.508s2.17-0.904,3.48-0.904C755.589,433.57,757.005,434.003,758.134,434.869z"/>
	<path d="M764.9,433.039v14.555h-2.242v-14.555H764.9z"/>
	<path d="M767.693,432.666c0.262-0.248,0.607-0.373,1.041-0.373s0.785,0.125,1.053,0.373c0.27,0.25,0.404,0.562,0.404,0.943
		s-0.135,0.688-0.404,0.926c-0.268,0.236-0.619,0.354-1.053,0.354s-0.779-0.117-1.041-0.354c-0.264-0.238-0.395-0.545-0.395-0.926
		S767.429,432.916,767.693,432.666z M769.855,436.757v10.836h-2.24v-10.836H769.855z"/>
	<path d="M781.656,437.798c0.76,0.814,1.141,1.975,1.141,3.48v6.312h-2.242v-6.076c0-0.971-0.248-1.721-0.746-2.252
		c-0.5-0.529-1.182-0.797-2.047-0.797c-0.893,0-1.605,0.285-2.145,0.855c-0.537,0.57-0.807,1.406-0.807,2.508v5.762h-2.24v-10.836
		h2.24v2.379c0.289-0.811,0.773-1.439,1.457-1.887c0.682-0.445,1.467-0.67,2.357-0.67
		C779.884,436.58,780.894,436.986,781.656,437.798z"/>
	<path d="M785.49,432.666c0.264-0.248,0.609-0.373,1.043-0.373s0.783,0.125,1.053,0.373c0.27,0.25,0.402,0.562,0.402,0.943
		s-0.135,0.688-0.402,0.926c-0.268,0.236-0.619,0.354-1.053,0.354s-0.779-0.117-1.043-0.354c-0.262-0.238-0.393-0.545-0.393-0.926
		S785.228,432.916,785.49,432.666z M787.654,436.757v10.836h-2.242v-10.836H787.654z"/>
	<path d="M798.667,437.728c0.918,0.742,1.488,1.748,1.711,3.021h-2.381c-0.131-0.682-0.449-1.217-0.953-1.605
		c-0.504-0.385-1.137-0.578-1.896-0.578c-0.865,0-1.586,0.305-2.164,0.914c-0.576,0.609-0.865,1.504-0.865,2.686
		c0,1.18,0.289,2.078,0.865,2.693c0.578,0.615,1.299,0.924,2.164,0.924c0.76,0,1.393-0.195,1.896-0.59s0.822-0.932,0.953-1.611
		h2.381c-0.223,1.27-0.793,2.281-1.711,3.027c-0.918,0.748-2.078,1.121-3.48,1.121c-1.049,0-1.977-0.223-2.783-0.67
		c-0.807-0.443-1.439-1.088-1.896-1.926c-0.461-0.84-0.688-1.83-0.688-2.971c0-1.127,0.229-2.111,0.688-2.949
		c0.457-0.84,1.092-1.48,1.896-1.928c0.807-0.445,1.732-0.668,2.783-0.668C796.589,436.619,797.75,436.99,798.667,437.728z"/>
	<path d="M809.16,437.591c0.768,0.65,1.236,1.52,1.406,2.607h-2.125c-0.092-0.59-0.344-1.066-0.756-1.426
		c-0.414-0.361-0.961-0.541-1.645-0.541c-0.562,0-1,0.135-1.307,0.402c-0.311,0.27-0.463,0.633-0.463,1.092
		c0,0.342,0.111,0.615,0.334,0.824c0.223,0.211,0.502,0.375,0.836,0.492c0.334,0.119,0.811,0.25,1.426,0.395
		c0.812,0.184,1.473,0.373,1.977,0.57c0.506,0.195,0.939,0.508,1.299,0.934c0.359,0.428,0.541,1.008,0.541,1.74
		c0,0.904-0.344,1.641-1.031,2.203c-0.689,0.562-1.617,0.846-2.783,0.846c-1.352,0-2.443-0.314-3.275-0.943
		s-1.334-1.508-1.504-2.635h2.184c0.064,0.59,0.328,1.066,0.787,1.436c0.459,0.367,1.061,0.551,1.809,0.551
		c0.537,0,0.961-0.141,1.27-0.424c0.309-0.281,0.463-0.639,0.463-1.072c0-0.379-0.119-0.682-0.355-0.902
		c-0.236-0.225-0.531-0.396-0.885-0.521s-0.84-0.252-1.455-0.385c-0.787-0.182-1.426-0.365-1.918-0.549
		c-0.492-0.186-0.912-0.482-1.258-0.896c-0.35-0.414-0.521-0.975-0.521-1.682c0-0.918,0.344-1.662,1.031-2.232
		c0.688-0.568,1.643-0.854,2.863-0.854C807.373,436.619,808.392,436.943,809.16,437.591z"/>
</g>
<g>
	<g>
		<defs>
			<rect id="SVGID_1_" x="534.433" y="42.507" width="429.439" height="3.028"/>
		</defs>
		<clipPath id="SVGID_2_">
			<use xlink:href="#SVGID_1_"  overflow="visible"/>
		</clipPath>
		
			<linearGradient id="SVGID_3_" gradientUnits="userSpaceOnUse" x1="68.6797" y1="61.0376" x2="69.6797" y2="61.0376" gradientTransform="matrix(429.4384 0 0 429.4384 -28958.9336 -26167.6895)">
			<stop  offset="0" style="stop-color:#B93593"/>
			<stop  offset="0.1094" style="stop-color:#A54496"/>
			<stop  offset="0.324" style="stop-color:#80559C"/>
			<stop  offset="0.5274" style="stop-color:#5E5FA0"/>
			<stop  offset="0.7137" style="stop-color:#3D64A3"/>
			<stop  offset="0.8772" style="stop-color:#1B66A5"/>
			<stop  offset="1" style="stop-color:#0067A5"/>
		</linearGradient>
		<rect x="534.433" y="42.507" clip-path="url(#SVGID_2_)" fill="url(#SVGID_3_)" width="429.439" height="3.028"/>
	</g>
</g>
<g>
	<path fill="#D1D3D4" d="M226.9,226.743L156.833,11.098C180.652,3.358,201.854,0,226.9,0V226.743z"/>
	<path fill="#0067A6" d="M226.9,226.743L7.883,285.429C-23.231,169.307,42.5,48.247,156.833,11.098L226.9,226.743z"/>
	<path fill="#B83594" d="M226.9,226.743V0c125.227,0,226.742,101.516,226.742,226.743S352.127,453.486,226.9,453.486
		c-105.19,0-191.792-66.451-219.017-168.059L226.9,226.743z"/>
	<path fill="#D1D3D4" d="M226.743,226.743L210.927,0.553C215.923,0.203,221.734,0,226.743,0V226.743z"/>
	<path fill="#808285" d="M226.743,226.743L141.804,16.511C165.025,7.129,185.942,2.3,210.927,0.553L226.743,226.743z"/>
	<path fill="#BCBEC0" d="M226.743,226.743L93.467,43.304c16.21-11.777,29.759-19.288,48.337-26.793L226.743,226.743z"/>
	<path fill="#B83594" d="M226.743,226.743L26.541,120.294c16.462-30.96,38.559-56.38,66.926-76.99L226.743,226.743z"/>
	<path fill="#0067A6" d="M226.743,226.743V0C351.97,0,453.486,101.516,453.486,226.743S351.97,453.486,226.743,453.486
		S0,351.97,0,226.743c0-40.072,7.728-71.067,26.541-106.449L226.743,226.743z"/>
</g>
</svg>
